<svg width="343" height="49" viewBox="0 0 343 49" fill="none" xmlns="http://www.w3.org/2000/svg">
<path d="M0.55 48V1.2H19.1075C22.2708 1.2 24.86 1.83916 26.875 3.1175C28.9117 4.37416 30.4175 5.98833 31.3925 7.96C32.3892 9.93166 32.8875 11.9683 32.8875 14.07C32.8875 16.6483 32.27 18.8367 31.035 20.635C29.8217 22.4333 28.1642 23.6467 26.0625 24.275V22.65C29.0092 23.3217 31.2408 24.7192 32.7575 26.8425C34.2958 28.9658 35.065 31.3817 35.065 34.09C35.065 36.8633 34.5342 39.29 33.4725 41.37C32.4108 43.45 30.8292 45.075 28.7275 46.245C26.6475 47.415 24.0692 48 20.9925 48H0.55ZM8.48 40.6225H20.0175C21.3825 40.6225 22.6067 40.3517 23.69 39.81C24.7733 39.2467 25.6183 38.4667 26.225 37.47C26.8533 36.4517 27.1675 35.2492 27.1675 33.8625C27.1675 32.6058 26.8967 31.4792 26.355 30.4825C25.8133 29.4858 25.0225 28.695 23.9825 28.11C22.9425 27.5033 21.6967 27.2 20.245 27.2H8.48V40.6225ZM8.48 19.8875H19.01C20.1367 19.8875 21.1442 19.6708 22.0325 19.2375C22.9208 18.8042 23.625 18.165 24.145 17.32C24.665 16.475 24.925 15.435 24.925 14.2C24.925 12.575 24.405 11.2208 23.365 10.1375C22.325 9.05417 20.8733 8.5125 19.01 8.5125H8.48V19.8875ZM64.5984 48.975C59.9184 48.975 55.91 47.9567 52.5734 45.92C49.2367 43.8617 46.6692 41.0017 44.8709 37.34C43.0942 33.6783 42.2059 29.4317 42.2059 24.6C42.2059 19.7683 43.0942 15.5217 44.8709 11.86C46.6692 8.19833 49.2367 5.34916 52.5734 3.3125C55.91 1.25416 59.9184 0.224999 64.5984 0.224999C69.2784 0.224999 73.2867 1.25416 76.6234 3.3125C79.9817 5.34916 82.5492 8.19833 84.3259 11.86C86.1242 15.5217 87.0234 19.7683 87.0234 24.6C87.0234 29.4317 86.1242 33.6783 84.3259 37.34C82.5492 41.0017 79.9817 43.8617 76.6234 45.92C73.2867 47.9567 69.2784 48.975 64.5984 48.975ZM64.5984 41.5975C67.74 41.6192 70.3509 40.9258 72.4309 39.5175C74.5325 38.1092 76.1034 36.1267 77.1434 33.57C78.205 31.0133 78.7359 28.0233 78.7359 24.6C78.7359 21.1767 78.205 18.2083 77.1434 15.695C76.1034 13.16 74.5325 11.1883 72.4309 9.78C70.3509 8.37167 67.74 7.64583 64.5984 7.6025C61.4567 7.58083 58.8459 8.27416 56.7659 9.6825C54.6859 11.0908 53.115 13.0733 52.0534 15.63C51.0134 18.1867 50.4934 21.1767 50.4934 24.6C50.4934 28.0233 51.0134 31.0025 52.0534 33.5375C53.0934 36.0508 54.6534 38.0117 56.7334 39.42C58.835 40.8283 61.4567 41.5542 64.5984 41.5975ZM106.718 48V8.545H91.5729V1.2H129.695V8.545H114.55V48H106.718ZM133.622 48L148.377 1.2H159.85L174.605 48H166.545L153.155 6.01H154.91L141.682 48H133.622ZM141.845 37.86V30.5475H166.415V37.86H141.845ZM183.731 48V1.2H191.661L213.371 34.1875V1.2H221.301V48H213.371L191.661 15.0125V48H183.731ZM234.286 48V1.2H242.118V48H234.286ZM274.896 48.975C270.216 48.975 266.208 47.9567 262.871 45.92C259.535 43.8617 256.967 41.0017 255.169 37.34C253.392 33.6783 252.504 29.4317 252.504 24.6C252.504 19.7683 253.392 15.5217 255.169 11.86C256.967 8.19833 259.535 5.34916 262.871 3.3125C266.208 1.25416 270.216 0.224999 274.896 0.224999C280.291 0.224999 284.787 1.57917 288.384 4.2875C291.98 6.97416 294.505 10.6033 295.956 15.175L288.059 17.3525C287.149 14.2975 285.6 11.9142 283.411 10.2025C281.223 8.46916 278.385 7.6025 274.896 7.6025C271.755 7.6025 269.133 8.30667 267.031 9.715C264.951 11.1233 263.38 13.1058 262.319 15.6625C261.279 18.1975 260.748 21.1767 260.726 24.6C260.726 28.0233 261.246 31.0133 262.286 33.57C263.348 36.105 264.93 38.0767 267.031 39.485C269.133 40.8933 271.755 41.5975 274.896 41.5975C278.385 41.5975 281.223 40.7308 283.411 38.9975C285.6 37.2642 287.149 34.8808 288.059 31.8475L295.956 34.025C294.505 38.5967 291.98 42.2367 288.384 44.945C284.787 47.6317 280.291 48.975 274.896 48.975ZM301.822 48L316.577 1.2H328.05L342.805 48H334.745L321.355 6.01H323.11L309.882 48H301.822ZM310.045 37.86V30.5475H334.615V37.86H310.045Z" fill="white"/>
</svg>
