<?xml version="1.0" encoding="UTF-8"?>
<!DOCTYPE svg PUBLIC "-//W3C//DTD SVG 1.1//EN" "http://www.w3.org/Graphics/SVG/1.1/DTD/svg11.dtd">
<!-- Creator: CorelDRAW 2020 (64-Bit) -->
<svg xmlns="http://www.w3.org/2000/svg" xml:space="preserve" width="270.148mm" height="146.822mm" version="1.1" shape-rendering="geometricPrecision" text-rendering="geometricPrecision" image-rendering="optimizeQuality" fill-rule="evenodd" clip-rule="evenodd"
viewBox="0 0 2701484 1468218"
 xmlns:xlink="http://www.w3.org/1999/xlink"
 xmlns:xodm="http://www.corel.com/coreldraw/odm/2003">
 <defs>
   <linearGradient id="id0" gradientUnits="userSpaceOnUse" x1="2188634" y1="664113" x2="2373450" y2="377981">
    <stop offset="0" stop-opacity="1" stop-color="#459B54"/>
    <stop offset="0.490196" stop-opacity="1" stop-color="#009E1D"/>
    <stop offset="1" stop-opacity="1" stop-color="#D6F0A0"/>
   </linearGradient>
   <linearGradient id="id1" gradientUnits="userSpaceOnUse" x1="2168072" y1="691126" x2="2396399" y2="350053">
    <stop offset="0" stop-opacity="1" stop-color="#D6F0A0"/>
    <stop offset="0.501961" stop-opacity="1" stop-color="#009E10"/>
    <stop offset="1" stop-opacity="1" stop-color="#459A50"/>
   </linearGradient>
   <linearGradient id="id2" gradientUnits="userSpaceOnUse" x1="2127499" y1="688554" x2="1801325" y2="466266">
    <stop offset="0" stop-opacity="1" stop-color="#4D9A45"/>
    <stop offset="0.490196" stop-opacity="1" stop-color="#009E15"/>
    <stop offset="1" stop-opacity="1" stop-color="#D6F0A0"/>
   </linearGradient>
   <linearGradient id="id3" gradientUnits="userSpaceOnUse" x1="2628305" y1="757652" x2="2094241" y2="393685">
    <stop offset="0" stop-opacity="1" stop-color="#009E52"/>
    <stop offset="1" stop-opacity="1" stop-color="#D6F0A0"/>
   </linearGradient>
 </defs>
 <g id="Слой_x0020_1">
  <metadata id="CorelCorpID_0Corel-Layer"/>
  <path fill="white" d="M42010 1319997c3252,-64415 14562,-126695 26199,-188563 6725,-35753 27489,-148933 45071,-168531 15218,3939 30004,54935 39089,72261 11207,21373 43335,48572 47422,62091 -2061,5083 -5711,9973 -8394,16230 -7035,16405 -17620,27663 -29722,40306 -13423,14025 -65678,87599 -79057,107671 -6405,9612 -12136,18659 -18172,28484 -5396,8782 -11230,22105 -16746,30408l-5690 -357zm2064070 -119789l658 707c-2141,4919 -8762,13281 -12296,18475 -4678,6873 -6469,4498 -22927,9329 -16422,4818 -32602,10534 -47423,16982 -54341,23635 -111825,63458 -139003,116659 -13134,25705 -27278,78677 -1843,99204 28170,22735 72899,-19121 84392,-31102 10953,-11415 21111,-20167 30852,-32499 22208,-28112 33949,-39314 56790,-71023l40715 -55977c2263,-3174 3947,-5282 6598,-8964 2238,-3110 3927,-7387 8063,-8334 12817,-2938 48296,-3721 61792,-2308l-23166 31764c-8594,11457 -16268,21028 -24607,32081 -21141,28022 -41490,51151 -64534,75510 -4846,5122 -9297,8682 -14144,13644 -21288,21792 -43509,26631 -43436,41166 35,7274 10419,26575 32955,9490 56754,-43028 76714,-71870 121877,-132657 26957,-36282 56143,-77362 83733,-112982 4096,-5286 9528,-11479 12230,-16577 5097,2681 3924,6039 10468,9323 26911,13501 80402,-20762 97644,-34692 34373,-27766 16876,-64333 -18418,-61624 -12483,959 -22067,5850 -32517,7458 -3987,-7025 -2934,-11213 -17201,-12815 -20621,-2317 -20099,5808 -33753,25115 -4489,6348 -7521,11934 -12133,17876 -10083,12993 -42083,63951 -48613,71378l-62666 882c6842,-14701 55907,-74569 58633,-84935 1595,-6073 295,-11864 -3381,-15208 -12600,-11464 -24925,9081 -36152,17943 -12239,9662 -45288,40245 -63234,39149 -3193,-14435 27144,-37525 28212,-45226 1095,-7891 -3798,-13588 -9496,-15638 -13411,-4825 -23342,8175 -31356,16963 -6995,7670 -16723,18664 -22591,28607 -9318,1735 -7882,568 -16704,4348 -10861,4652 -38368,15864 -47664,17335 -2781,-1192 -3173,1493 -1617,-2333 480,-10068 96,-8118 -3384,-15744 10607,-6177 23278,-13330 28761,-25376 7284,-15999 384,-30696 -13863,-34411 -44668,-11646 -124568,53639 -125660,92009 -482,16918 12514,25895 29321,25795 7968,-46 16279,-2454 23163,-4804 6418,-2192 14854,-6544 20171,-7708 3540,3283 3787,4950 8685,6913 12630,5064 29230,-640 41491,-4532 8298,-2636 15726,-5238 23546,-8604 7135,-3072 16700,-7872 24083,-9676 5840,10238 8461,17345 24514,18063 14670,655 23904,-6784 34435,-8419zm-343941 -208218l-1855 -316c15758,-24690 42950,-55691 39895,-88301 -4386,-46828 -49936,-36652 -81978,-22459 -28978,12835 -56816,33853 -78146,50778 -8975,7122 -44860,37992 -51324,45377 -4155,4747 -12073,12220 -17039,15854l21728 -44550c52268,-118177 -31769,-149070 -128640,-173112 -41006,-10176 -95010,-18607 -132025,-35824 -10346,-4812 -12523,-8157 -26871,-6384 -12186,1504 -15447,12571 -14148,18460 930,4208 9855,20137 16558,24615 13166,8794 3340,10177 36091,22812 16305,6291 34565,10558 52880,14975 35322,8515 74001,15031 107562,25737 101536,32389 68648,82060 22655,157303 -27759,45412 -50543,77826 -80355,119703l-21610 28399c-8083,10073 -19734,17210 -14802,32155 2554,7739 9477,14348 20404,12441 10221,-1783 27515,-24880 34583,-33292 20556,-24463 40753,-47557 62343,-71028 9507,-10336 21761,-25848 31747,-34947 5821,-5305 10420,-11448 16125,-17227l34962 -32849c5680,-5642 11792,-10480 17786,-15555l36470 -30200c13410,-10496 64444,-50064 89031,-44065 5767,15936 -8720,38029 -15561,48611 -22562,34912 -101428,145705 -128327,176229 -14025,15914 -29460,26235 -23015,42093 3701,9110 11636,11440 20714,8965 8793,-2398 12093,-10389 17357,-16010l72759 -79511c3155,-3477 5722,-5344 8747,-9016 6389,-7753 26811,-25875 35035,-32787 40205,-33790 66154,-58715 112701,-90688 20220,-13889 70115,-48218 94769,-33467 1708,19984 -23798,53023 -32074,65055 -6462,9393 -14478,18202 -21570,27334 -21624,27847 -41980,54009 -62232,83371 -12230,17736 -27166,39950 -37298,60508 -12021,24393 -21468,42562 -21998,75363 -1274,78683 63880,78055 57864,43942 -2188,-12408 -8919,-22369 -10723,-38303 -3581,-31604 6360,-54274 18497,-77365 46438,-88340 71229,-105194 120005,-171217 11370,-15390 29372,-40790 33821,-63990 6242,-32543 -15977,-49428 -47429,-46075 -61220,6531 -135993,70071 -184069,108458zm-327497 -990186c-8680,2347 -13767,665 -19754,7751l-2814 3910c-130,195 -370,569 -477,729 -107,163 -325,489 -483,738l-2863 65773c-11352,10338 -8253,11591 -29174,26467 -33896,24104 -72715,39473 -105616,63316 -21106,15296 -37563,35311 -65020,47229 -29404,12762 -52595,18193 -77850,35522 -24364,16716 -43523,32486 -60393,51882 -20543,23622 -30356,37192 -49251,62992 -38743,52897 -55506,68427 -127226,98422 -291226,121799 -542074,7001 -680490,107481 -12785,9281 -19788,16880 -29929,26747 -6260,6091 -20531,24165 -24406,32667 -5324,5225 -17564,29196 -21701,37914 -23766,50072 -24990,93049 -32387,147635 -9055,66830 -39183,122288 -51930,188181 -6471,33446 -15267,65015 -22077,98049 -24972,121140 -30313,178330 -30801,299167l910 29573c8067,4652 16354,13769 27758,5848 14354,-9973 35657,-59260 45796,-77569 33667,-60795 71859,-119632 115069,-172812 46585,-57331 62201,-70080 134480,-40244 117979,48702 82699,79280 144220,184777 11003,18871 55047,93144 84442,74162 29070,-18774 -2741,-104982 -13655,-128252 -21447,-45723 -45339,-61641 -69655,-94892 -23760,-32489 -37073,-74994 -39034,-125119 -1154,-29532 4800,-47098 23075,-58913 16384,-10594 40700,-15412 63074,-19197 52378,-8860 101584,-6068 153653,1385 98734,14135 178964,39188 237381,91549 26242,23520 49722,54816 67427,97083 14985,35774 29317,90034 32427,132746 1960,20947 -921,51420 -4429,71583 -1762,10138 -13463,60690 -7680,66475 -120,10419 8724,23345 18356,23740 10330,423 19612,-12016 22262,-20597 12531,-40574 26374,-91416 38194,-133048 6291,-22158 13881,-44977 19278,-67450 10105,-42094 52381,-257328 65885,-277328 21545,-3010 60826,14613 80014,21841 27661,10421 43929,10936 54352,48509 3744,33554 -18156,68548 -31208,89293 -9370,14892 -43361,56953 -43816,76293 388,17199 11061,30475 27675,19850 12100,-7738 19463,-17008 27962,-27630 12932,-16158 34156,-47077 43374,-68869 20629,-48772 34403,-83140 11954,-131093 -5389,-11514 -16494,-26599 -25881,-30981 -10746,-14352 -81741,-32381 -109710,-44587 -5567,-2429 -10278,-5365 -15586,-7508 -5432,-5564 -7787,-4908 -10752,-15068 -2413,-8268 -2699,-17171 -2463,-25957 467,-17348 3584,-33307 4627,-50112 4196,-67649 13606,-182530 -30584,-236734 -5188,-6362 -20058,-22234 -31679,-23866 -5659,-7014 -23441,-13264 -34815,-15352 -15066,-2767 -31532,-1940 -46598,624 -58080,9883 -169831,55867 -187251,117104 -5394,5538 -11444,36466 -5860,41902 -309,13948 12569,37534 18481,47287 22715,37467 64857,74800 100110,98841 26112,17808 49034,37113 79616,52641 25267,12828 68131,22348 75536,57612 936,5630 -5590,25483 -7096,32748 -6934,33457 -9664,73048 -18409,104094 -5970,21200 -11343,42789 -15728,65169 -5793,29560 -2654,43861 -25306,57080 -1580,-1942 -1029,-4009 -2826,-5908 1196,-28259 -36511,-96377 -48924,-116866 -5013,-8277 -10545,-17967 -16175,-24964 -7010,-8712 -54845,-55263 -66159,-59041 -10421,-9921 -48599,-34837 -65804,-37675 -20958,-17559 -60816,-26715 -86282,-31732 -80260,-15814 -189577,-24169 -270381,-7067 -9601,2031 -42227,10906 -50017,8865 -6093,-7582 -11179,-29552 -11934,-41651 -1169,-18713 734,-34456 -2310,-53594 -4771,-30004 -11447,-62183 -19249,-90636 -7957,-29012 -21662,-53997 -36232,-73829 -12169,-16564 -41855,-46643 -62340,-49036 -4342,-3818 -20969,-6818 -28196,-7307 -11790,-798 -21801,1263 -31745,5213 -17918,7115 -31457,18014 -48133,25140 12485,-37255 50225,-64998 87727,-76719 46481,-14530 101043,-12741 152152,-12689 105073,110 209817,-1937 311467,-18289 91715,-14754 177740,-42757 242402,-86559 41783,-28303 77142,-90009 113155,-133599 7504,-9083 36741,-41799 48362,-23705 -1344,5131 -6739,14486 -9434,20408 -3240,7120 -5817,13624 -8672,21343 -4966,13436 -10945,32680 -12545,48468l3376 36041c-841,17230 19629,44488 36419,56314 58521,41229 175548,15231 236335,-2736 23707,-7006 47325,-17737 72862,-20488 30982,-3338 53906,839 79541,-15035 28284,-17515 54256,-56227 41365,-92895 -3514,-9996 -12067,-24633 -21385,-26123 -6612,-12921 -103324,-58088 -122063,-66025 -22559,-9557 -45147,-17891 -66635,-27834 -26148,-12099 -56529,-14466 -72906,-21995l-11293 -8173c26592,-31555 100379,-54608 117640,-68964 33179,-27598 43273,-51339 44836,-95531 265,-7458 143,-15135 -1266,-22327 -825,-4210 -3560,-14793 -8002,-15476 -2020,-3647 -3706,-6079 -5915,-8331l-6367 1804zm-312141 853287c-4180,8167 1320,9491 -7269,20757 -5229,6859 -10995,6565 -22038,6063 -8560,-4230 -17137,-9311 -25655,-13936 -8881,-4822 -17116,-9251 -25841,-14178 -17519,-9894 -33512,-18397 -51512,-28492 -1042,-5859 -37135,-33846 -45297,-40303 -55664,-44046 -106290,-97389 -27344,-149069 26341,-17245 86083,-45034 124974,-47177 31129,-1716 47493,8565 60901,24353 10459,12317 21528,40821 24354,61125 2799,15515 3355,75439 1746,92303 -1516,15912 -565,30775 -1600,46566 -880,13426 -5708,29673 -5419,41988zm-881764 205852c-4940,-766 -10392,-2173 -13817,-4092 -53216,-60818 -64355,-83277 -78491,-166650 -11829,-69764 30510,-144184 61679,-180386 16132,-18736 44532,-45812 83931,-29741 25553,10423 44707,38252 56076,66176 11900,29228 20479,62398 26333,96087 4742,27293 12677,85106 9615,112182 -2036,2105 -7201,10970 -13852,17456 -4327,4218 -11591,10233 -16998,14125 -12240,8808 -25231,16323 -38139,25220 -14534,10017 -63054,49103 -76337,49623zm152516 35033l-5293 22582c-14488,1070 -25769,-5193 -37005,-10795 -12558,-6261 -21092,-8270 -34620,-12226 -4712,-11089 -10771,-6473 50,-21555 11735,-16353 38768,-37255 59038,-42707 13311,11747 18444,40892 17830,64701zm1152190 -715188c-1505,13734 1154,9583 -6304,19824 -13561,18619 -27174,23981 -53271,23073 -31582,-1100 -58925,8974 -86086,17626 -27188,8659 -53419,15275 -82687,20679 -14878,2748 -30311,4980 -45708,6638 -16168,1740 -32217,1625 -48271,3078 -27530,-11405 -47575,-11130 -58409,-38778 -8778,-22398 2382,-61079 10195,-80916 15336,-38934 50813,-98063 102068,-93642 47331,4083 108568,31013 147423,48192l99707 46995c8728,4872 22225,14261 21343,27231zm1066103 750530c-8344,34576 29095,29048 50556,-2243 8827,-12870 5078,-30295 -6461,-36501 -11870,-6385 -31424,-74 -42219,4503 -25159,10664 -44886,27438 -57788,45575 -18167,25541 -17120,57019 9484,70483 23036,11658 61747,-2814 83783,-10554 13039,-4579 24932,-8804 37228,-13873 26261,-10828 12004,-27848 6784,-30065 -7945,-3371 -24220,6122 -38096,10931 -102034,35365 -71105,-24332 -43271,-38256zm-359917 299848c-10979,-14536 3743,-50959 10135,-63326 17684,-34210 48622,-61203 81347,-79818 11729,-6671 42299,-21786 57235,-23903 -4574,9798 -61177,81560 -68033,89781 -11564,13865 -63444,77830 -80684,77266zm193266 -231605c-1811,4728 -9117,14112 -12416,18879 -5169,7472 -6999,5539 -21483,9657 -16611,4722 -30419,9821 -46056,16191 -30992,12625 -56611,28424 -79714,45865 -22472,16965 -43196,39351 -59056,65421 -14065,23119 -29289,68701 -12576,97977 13414,23496 43600,14766 64624,-354 25336,-18222 58502,-54390 77745,-78959l86909 -116495c3398,-5051 3499,-4483 10237,-5136 19244,-1863 30012,-1723 48587,-1723 20546,0 53974,10163 56395,-13469 1290,-12596 -4767,-20036 -15232,-21903 -15170,-2707 -52489,-571 -69299,171 2763,-6709 43508,-61654 50949,-71915 4848,-6685 14271,-19369 3786,-28330 -11179,-9555 -20693,4537 -25409,8905 -11692,10827 -59004,52500 -73371,47924 -99,-226 -188,-858 -196,-712 -10,143 -151,-577 -155,-717 -327,-10187 16715,-28073 22910,-35041 11168,-12558 3805,-22530 -6234,-24652 -8598,-1815 -11590,937 -15851,4764 -16526,14840 -53382,51946 -44054,77498 10431,28569 49977,8237 58960,6154zm-531373 231756c-13672,-42125 28319,-92292 45689,-109305 18582,-18201 67082,-50507 103716,-57973 -3945,8138 -26330,36213 -33532,45909 -16925,22781 -68514,88067 -91379,106464 -5331,4290 -15113,14961 -24494,14905zm371422 -272580c3168,-3130 18774,-8945 22882,-10494 8477,-3197 17196,-5921 27443,-5444 -2793,13677 -22312,28432 -41236,27824 -4816,-6140 790,-1550 -9089,-11886zm-363801 21519c-839,-11220 35881,-40981 49654,-45019 -2742,9501 -4533,12657 1544,20435 -5753,3953 -1451,-1174 -11411,8005 -6557,6045 -29812,18262 -39787,16579z"/>
  <path fill="url(#id0)" fill-rule="nonzero" d="M2117347 549391c-15,25 -31,51 -22,92 -4860,54286 2954,117266 28775,190149l648 -1040c-22040,-341703 259246,-432364 270976,-436008 -256927,58466 -299339,242140 -300377,246807z"/>
  <path fill="url(#id1)" fill-rule="nonzero" d="M2146748 738592c27906,-299790 270976,-436008 270976,-436008 -11730,3644 -293016,94305 -270976,436008z"/>
  <path fill="url(#id2)" fill-rule="nonzero" d="M2120537 717862l-654 -576c-238375,-22719 -269748,-227011 -270954,-235521 -34,-54 -43,-137 -21,-196 -3,-27 -3,-27 -3,-27 -4,-28 -6,-56 -6,-56l924 -1086c183988,-13796 250162,100375 251798,103266 -45,-165 -115,-297 -161,-461 -914,-2182 -1820,-4307 -2752,-6402 -632,-1424 -1293,-2843 -1923,-4238 -831,-1684 -1634,-3370 -2491,-5051l-1535 -2985c-530,-986 -1031,-1972 -1561,-2956 -529,-984 -1088,-1993 -1645,-2974 -558,-982 -1115,-1962 -1668,-2916 -520,-900 -1066,-1769 -1586,-2670 -311,-530 -622,-1059 -929,-1561 -576,-895 -1124,-1792 -1669,-2662 -1456,-2262 -2907,-4469 -4407,-6615 -603,-891 -1204,-1755 -1832,-2616 -601,-864 -1229,-1724 -1854,-2556 -1227,-1698 -2505,-3361 -3781,-4995 -649,-803 -1300,-1604 -1925,-2437 -324,-388 -678,-799 -1002,-1187 -323,-387 -650,-802 -974,-1188 -1488,-1781 -2970,-3507 -4477,-5201 -672,-744 -1313,-1462 -1985,-2206 -830,-894 -1687,-1787 -2516,-2682 -1679,-1731 -3358,-3435 -5058,-5109 -852,-836 -1700,-1645 -2578,-2478 -442,-431 -913,-887 -1379,-1286 -96,-103 -188,-177 -284,-280 -3007,-2796 -6111,-5472 -9206,-8035 -1424,-1197 -2875,-2363 -4351,-3526 -1136,-861 -2274,-1752 -3437,-2609 -370,-298 -799,-618 -1198,-912 -1406,-1031 -2813,-2059 -4245,-3058l-31 -25c-1404,-1001 -2832,-1972 -4260,-2944 -121,-71 -213,-145 -334,-216 -1518,-1018 -3001,-1983 -4514,-2945 -1209,-769 -2447,-1535 -3682,-2274 -518,-366 -1061,-701 -1629,-1005 -1145,-692 -2259,-1360 -3429,-2021 -272,-166 -571,-331 -839,-471 -1444,-857 -2914,-1682 -4349,-2456 -61,-50 -148,-68 -179,-92 -1228,-684 -2482,-1336 -3735,-1988 -777,-421 -1580,-814 -2355,-1208 -1314,-702 -2651,-1345 -3988,-1988 -1370,-696 -2797,-1385 -4217,-2019 -1395,-664 -2819,-1326 -4239,-1961 -561,-248 -1152,-494 -1744,-767 -1062,-447 -2127,-923 -3220,-1396 -5607,-2374 -11276,-4545 -16896,-6524 -1053,-365 -2075,-705 -3127,-1068 -8947,-3054 -17867,-5604 -26688,-7770 -1072,-278 -2141,-527 -3237,-774 -3614,-875 -7219,-1666 -10787,-2377 -1411,-296 -2823,-592 -4205,-865 -4255,-833 -8473,-1557 -12625,-2204 -1319,-223 -2603,-392 -3893,-590 -976,-175 -1946,-295 -2917,-415 -1232,-204 -2430,-355 -3629,-506 -1943,-269 -3853,-483 -5735,-701 -1542,-199 -3077,-340 -4588,-514 -1511,-174 -3019,-321 -4527,-465 -1477,-123 -2956,-271 -4406,-395 -1476,-121 -2898,-248 -4345,-344 -1446,-97 -2863,-196 -4254,-298 -201,-35 -424,-10 -624,-45 -4025,-238 -7844,-415 -11577,-571 -28,2 -28,2 -28,2 -1300,-55 -2570,-87 -3813,-120 -2714,-100 -5333,-125 -7869,-130 -1013,-4 -2029,-34 -3016,-39 -4590,-9 -8861,61 -12737,145 -559,33 -1121,37 -1680,70 -1348,34 -2610,86 -3842,136 -869,37 -1682,70 -2523,105 -2435,123 -4646,251 -6631,382 -671,46 -1285,84 -1870,148 -3548,244 -6025,513 -7307,624l-28 3c55,1543 198,4681 522,9205 44,671 92,1370 167,2066 417,5641 1140,13079 2317,21846 296,2192 627,4464 967,6821 185,1190 372,2380 560,3598 402,2406 816,4923 1264,7492 1820,10274 4207,21613 7339,33604 361,1509 777,3011 1193,4514 840,3062 1735,6118 2664,9227 451,1555 902,3111 1411,4688l3 27c2282,7269 4862,14703 7731,22188 406,1139 832,2219 1290,3323 1480,3781 3047,7579 4698,11370 452,1049 928,2066 1407,3112 2675,5959 5577,11950 8697,17860l4 29c1729,3218 3482,6405 5320,9584 1729,2964 3518,5951 5359,8904 1838,2926 3760,5841 5734,8724 535,787 1071,1572 1631,2329 12096,17265 26606,33452 44056,47405 1669,1366 3417,2698 5194,4024 1750,1331 3523,2630 5350,3895 914,633 1824,1237 2737,1870 1854,1262 3733,2494 5637,3695 938,602 1904,1201 2867,1773 847,526 1717,1023 2592,1575l8000 4452c899,493 1822,956 2745,1419 923,462 1849,953 2768,1389 927,489 1847,924 2794,1356 2821,1355 5721,2644 8642,3875 2948,1228 5950,2423 8997,3527 1174,435 2288,850 3458,1257 906,295 1813,620 2746,913 1021,339 2075,703 3153,1036 1046,308 2100,673 3174,979 2125,641 4306,1277 6480,1857 1071,279 2147,583 3243,830 31,25 31,25 59,22 36941,9386 81311,10985 134503,1264z"/>
  <path fill="url(#id3)" fill-rule="nonzero" d="M2418114 302492l1763 1071c57019,238770 -65595,358696 -85894,376610 -229,106 -500,223 -730,329 -109,74 -270,118 -408,241l682 -187c-1258,1080 -2032,1723 -2279,1922 230,-107 408,-243 598,-337 1105,-692 2212,-1384 3277,-2064 17914,-5044 135175,-31460 253643,93236l-49 1395 -30 51c0,0 0,0 -40,11 -30,51 -98,113 -139,125 -6104,5128 -79736,73796 -233554,37574 144328,93612 294683,-33961 297742,-37132 29,-51 29,-51 29,-51 -899,-918 -2538,-2801 -5010,-5360 -383,-456 -809,-902 -1283,-1375 -1387,-1434 -2937,-2994 -4664,-4722 -588,-574 -1177,-1146 -1777,-1758 -888,-879 -1777,-1758 -2767,-2695 -413,-405 -816,-769 -1188,-1186 -2849,-2671 -5935,-5582 -9368,-8655 -702,-670 -1485,-1319 -2238,-2020 -1886,-1684 -3835,-3437 -5904,-5158 -958,-816 -1916,-1634 -2925,-2479 0,0 0,0 -11,-41 -2891,-2358 -5805,-4797 -8965,-7341 -153,-87 -328,-255 -493,-382 -1100,-864 -2200,-1728 -3352,-2620 -1151,-894 -2291,-1747 -3454,-2680 -1152,-893 -2342,-1774 -3534,-2657 -1204,-922 -2435,-1793 -3678,-2705 -1232,-870 -2435,-1793 -3718,-2692 -1550,-1086 -3110,-2213 -4711,-3328 -1016,-713 -2022,-1387 -3066,-2051 -801,-557 -1573,-1166 -2442,-1661 -1067,-745 -2124,-1448 -3272,-2169 -3487,-2325 -7094,-4617 -10821,-6873 -1228,-700 -2467,-1439 -3706,-2180 -3103,-1868 -6326,-3704 -9577,-5489 -973,-553 -1934,-1066 -2935,-1569 -7967,-4334 -16302,-8438 -24972,-12191 -1020,-410 -2010,-872 -3029,-1284 -5518,-2328 -11173,-4533 -16906,-6545 -1139,-378 -2268,-717 -3327,-1116 -610,-178 -1231,-397 -1801,-585 -1517,-492 -2981,-953 -4486,-1405 -1466,-461 -2970,-911 -4464,-1322 -1414,-433 -2868,-853 -4300,-1194 -844,-245 -1688,-489 -2572,-720 -1351,-364 -2692,-688 -4084,-1039 -39,10 -91,-18 -183,-36 -1574,-389 -3229,-756 -4873,-1082 -284,-95 -649,-167 -923,-221 -1340,-323 -2619,-577 -3938,-820 -598,-139 -1238,-265 -1866,-352 -1410,-260 -2831,-562 -4270,-771 -1764,-293 -3488,-598 -5292,-880 -132,-7 -264,-15 -405,-61 -1703,-224 -3405,-449 -5147,-661l-40 11c-1701,-224 -3443,-438 -5174,-610 -486,-39 -1023,-108 -1499,-108 -1467,-159 -2873,-247 -4330,-365 -1852,-141 -3703,-281 -5574,-329 -4024,-192 -8106,-281 -12235,-228 -122,34 -253,26 -384,20 -606,-6 -1253,-3 -1888,42 -1201,28 -2363,43 -3564,71 -2392,95 -4772,230 -7182,415 -1219,119 -2450,198 -3680,276 -1008,104 -1924,226 -2932,328 -2267,235 -4524,507 -6808,832 -505,52 -1038,156 -1531,247 -503,51 -1047,115 -1541,207 -1025,194 -2021,338 -3058,493 -2063,350 -4115,740 -6155,1169 -1026,196 -2052,391 -3106,638 -1015,234 -2071,481 -3086,715 -2562,574 -5143,1238 -7712,1943 -1004,275 -1997,591 -3052,837 -551,194 -1152,359 -1704,554 -994,315 -1997,590 -2989,906 -1033,326 -2106,664 -3169,1041 -1113,349 -2175,727 -3238,1104 -1061,378 -2083,744 -3145,1122l-3124 1202c-1763,656 -3504,1393 -5267,2049 -1379,636 -2810,1245 -4239,1853 -690,320 -1391,597 -2110,967 915,-596 1871,-1203 2788,-1800 1831,-1194 3691,-2437 5511,-3670 2219,-1515 4385,-3059 6552,-4603l3915 -2887c1251,-947 2502,-1895 3793,-2853 1280,-999 2560,-1997 3841,-2997 1229,-1027 2509,-2026 3749,-3014 1119,-954 2239,-1909 3411,-2834 663,-570 1327,-1141 1951,-1701 1149,-1007 2268,-1960 3417,-2966 2841,-2549 5631,-5128 8329,-7724 1097,-1035 2184,-2110 3282,-3145 1086,-1075 2132,-2139 3179,-3203 2093,-2128 4175,-4296 6206,-6495 956,-1081 1951,-2175 2986,-3279 453,-555 944,-1122 1448,-1649 452,-556 984,-1132 1447,-1648 2166,-2494 4239,-5005 6314,-7517 905,-1111 1808,-2223 2672,-3323 1100,-1338 2180,-2757 3218,-4164 2100,-2735 4107,-5486 6065,-8268 999,-1396 1957,-2781 2905,-4207 539,-709 1056,-1499 1503,-2226 128,-164 257,-329 343,-483 3244,-4861 6363,-9861 9269,-14846 1362,-2273 2674,-4575 3974,-6917 969,-1820 1948,-3600 2918,-5420 349,-613 688,-1267 987,-1911 1161,-2218 2282,-4425 3352,-6661 30,-52 30,-52 30,-52 1110,-2247 2181,-4483 3211,-6708 77,-194 164,-347 201,-529 1127,-2340 2166,-4696 3163,-7042 815,-1907 1590,-3803 2365,-5699 375,-837 750,-1675 1033,-2530 729,-1752 1456,-3506 2092,-5279 172,-479 314,-905 496,-1343 858,-2222 1677,-4432 2444,-6673 58,-101 77,-193 95,-284 694,-1873 1338,-3777 1971,-5721 407,-1191 814,-2382 1169,-3602 663,-1994 1314,-4029 1914,-6094 679,-2086 1297,-4241 1914,-6397 589,-2104 1207,-4259 1784,-6402 192,-874 425,-1758 659,-2641 417,-1626 833,-3252 1252,-4878 2081,-8471 3857,-16945 5354,-25342 308,-1552 575,-3094 804,-4623 2292,-13364 3862,-26530 4932,-39473 126,-1588 262,-3138 388,-4725 393,-5333 678,-10592 894,-15788 84,-2052 170,-4104 214,-6146 243,-6196 296,-12298 292,-18299 -3,-1898 -45,-3786 -48,-5684 -31,-1373 -22,-2757 -65,-4171 -49,-1755 -60,-3523 -139,-5228 -83,-2825 -186,-5561 -318,-8245 -62,-2271 -182,-4439 -312,-6648 -110,-2129 -229,-4298 -389,-6457 -150,-2116 -258,-4245 -436,-6312 -150,-2117 -316,-4143 -494,-6210 -180,-2067 -347,-4093 -555,-6109 16,-263 -73,-584 -69,-888 -564,-5673 -1162,-11164 -1839,-16461 42,-11 42,-11 42,-11 -245,-1833 -488,-3665 -721,-5459 -480,-3796 -1029,-7531 -1574,-11095 -225,-1449 -450,-2898 -653,-4266 -1046,-6492 -2091,-12508 -3115,-17969 -169,-774 -299,-1559 -467,-2333 -346,-1891 -709,-3691 -1052,-5410 -290,-1215 -518,-2362 -757,-3548 -713,-3389 -1389,-6483 -2018,-9247 -213,-935 -404,-1789 -624,-2591 -1182,-4942 -2089,-8407 -2546,-10225l-39 11c-2133,412 -6545,1321 -12876,2797 -933,213 -1908,438 -2832,691 -7906,1865 -18248,4616 -30325,8273 -3041,878 -6180,1868 -9439,2890 -1625,533 -3248,1064 -4913,1607 -3329,1086 -6807,2256 -10313,3477 -14111,4905 -29582,10831 -45791,17997 -2051,864 -4091,1769 -6120,2715 -4110,1859 -8236,3812 -12392,5816 -2099,1006 -4197,2013 -6284,3061l-41 11c-9746,4918 -19685,10233 -29595,15973 -1496,842 -2952,1674 -4385,2585 -4983,2921 -10004,6023 -15003,9208 -1353,889 -2707,1779 -4048,2708 -7845,5086 -15578,10574 -23245,16303l-41 11c-4139,3165 -8257,6411 -12324,9684 -3809,3116 -7634,6324 -11357,9590 -3724,3266 -7375,6642 -11003,10098 -999,921 -1988,1882 -2935,2834 -21665,20965 -41195,45144 -56927,72943 -1545,2712 -3038,5451 -4520,8233 -1432,2811 -2862,5621 -4243,8460 -684,1439 -1379,2839 -2064,4278 -1318,2909 -2625,5858 -3892,8795 -632,1469 -1255,2979 -1876,4488 -546,1315 -1053,2618 -1628,3985 -1564,4056 -3037,8130 -4487,12283 -474,1425 -918,2798 -1350,4211 -473,1426 -917,2800 -1338,4253 -484,1385 -905,2838 -1297,4242 -1235,4311 -2420,8651 -3491,13089 -1071,4438 -2080,8944 -2946,13500 -345,1734 -659,3418 -1004,5153 -192,1347 -423,2707 -655,4066 -268,1541 -486,3111 -742,4693 -218,1570 -445,3100 -651,4711 -434,3141 -806,6352 -1177,9562 -126,1588 -291,3188 -417,4776 1016,-4639 43461,-188317 300361,-246768 109,-73 229,-106 310,-128 11,40 11,40 11,40 39,-11 79,-22 79,-22z"/>
 </g>
</svg>
