<svg width="200" height="54" viewBox="0 0 200 54" fill="none" xmlns="http://www.w3.org/2000/svg">
<g clip-path="url(#clip0_175_14)">
<mask id="mask0_175_14" style="mask-type:luminance" maskUnits="userSpaceOnUse" x="0" y="0" width="200" height="54">
<path d="M0 0H200V53.25H0V0Z" fill="white"/>
</mask>
<g mask="url(#mask0_175_14)">
<path d="M27.2061 0H121.695V9.572H27.2061V0Z" fill="#DA1737"/>
<path d="M27.2061 19.356V28.221H44.0311L44.0361 26.333C44.0361 26.162 43.9261 26.094 43.7911 26.091C43.6591 26.086 32.7691 26.091 32.7691 26.091L32.7731 22.919H42.3251V21.059C42.3251 20.899 42.2371 20.81 42.0781 20.81H32.7731V17.57H44.0301V15.682C44.0301 15.512 43.9201 15.461 43.7851 15.461H31.0781C28.9311 15.461 27.2061 17.206 27.2061 19.356ZM50.1901 15.46H63.0401C63.1991 15.46 63.2901 15.522 63.2901 15.684V17.566H51.8651V25.891H61.0871V22.92H55.3841V21.057C55.3841 20.93 55.4751 20.817 55.6411 20.817L63.0381 20.813C63.1681 20.813 63.2901 20.925 63.2901 21.06V28.222H46.3101V19.357C46.3085 18.3261 46.7163 17.3367 47.4438 16.6063C48.1714 15.876 49.1592 15.4643 50.1901 15.462V15.46ZM69.7431 15.46H82.5931C82.7511 15.46 82.8431 15.522 82.8431 15.684V17.566H71.4201L71.4181 25.891H80.6411V22.92H74.9391L74.9431 21.06C74.9431 20.931 75.0291 20.816 75.1931 20.816L82.5921 20.813C82.7201 20.813 82.8421 20.925 82.8421 21.06V28.222H65.8641V19.356C65.8632 18.8455 65.9628 18.3399 66.1573 17.8679C66.3518 17.396 66.6373 16.967 66.9976 16.6054C67.3579 16.2438 67.7859 15.9567 68.2571 15.7605C68.7284 15.5643 69.2336 15.4629 69.7441 15.462L69.7431 15.46ZM85.4301 19.356V28.221H102.261V26.333C102.261 26.162 102.151 26.094 102.015 26.091C101.883 26.086 90.9911 26.091 90.9911 26.091L90.9951 22.919H100.548V21.059C100.548 20.899 100.462 20.81 100.303 20.81H90.9951V17.57H102.255V15.682C102.255 15.512 102.145 15.461 102.01 15.461H89.3021C87.1561 15.461 85.4301 17.206 85.4301 19.356Z" fill="white"/>
<path d="M0 15.46H18.532V17.841H8.69V20.626H18.532V23.083H8.734V25.851H18.532V28.221L0 28.219V15.461V15.46Z" fill="#DA1737"/>
<path fill-rule="evenodd" clip-rule="evenodd" d="M118.34 15.46C120.191 15.46 121.693 17.33 121.693 19.189C121.693 21.049 120.183 22.919 118.329 22.919H116.818L122.536 27.768C122.536 27.768 123.103 28.221 122.504 28.221H116.425C116.173 28.226 116.055 28.074 115.799 27.868C116 28.005 110.079 22.918 110.079 22.918V28.221H104.528V19.356C104.528 17.206 106.255 15.461 108.397 15.461H118.34V15.46ZM117.579 20.822C118.171 20.822 119.016 20.209 119.016 19.196C119.016 18.073 118.222 17.574 117.579 17.574H110.079V20.822L117.579 20.817V20.822Z" fill="white"/>
<path d="M120.262 50.675V48.63H116.953V46.678H119.362V44.731H116.953V43.123H119.901L120.079 41.103H114.476V50.673H120.262V50.675ZM131.649 50.675V45.187C131.649 44.715 131.689 43.815 131.731 43.249C131.537 43.8166 131.306 44.3711 131.04 44.909L128.178 50.675H126.53V41.105H128.121V46.651C128.121 47.191 128.066 48.007 128.025 48.477C128.261 47.785 128.48 47.302 128.758 46.734L131.525 41.104H133.241V50.674L131.649 50.675ZM137.991 46.345C138.502 46.345 139.136 46.357 139.578 46.757C139.95 47.102 140.004 47.544 140.004 47.875C140.004 48.247 139.938 48.742 139.551 49.115C139.163 49.485 138.681 49.555 138.199 49.555C137.421 49.5648 136.663 49.313 136.045 48.84L135.314 49.914C135.44 49.997 135.88 50.301 136.392 50.494C137.052 50.741 137.744 50.797 138.28 50.797C139.136 50.797 140.241 50.673 141.04 49.858C141.549 49.3403 141.832 48.6419 141.827 47.916C141.827 47.116 141.509 46.606 141.205 46.303C140.849 45.944 140.307 45.724 139.853 45.641C140.227 45.5312 140.569 45.333 140.849 45.063C141.314 44.608 141.452 44.098 141.452 43.518C141.452 42.623 141.08 41.989 140.474 41.548C139.798 41.064 139.04 40.981 138.363 40.981C137.854 40.981 137.343 41.024 136.764 41.217C136.345 41.3528 135.95 41.5521 135.591 41.808L136.336 42.857C136.558 42.677 136.818 42.527 137.04 42.429C137.383 42.279 137.744 42.224 138.101 42.224C138.39 42.224 138.944 42.25 139.329 42.635C139.522 42.815 139.73 43.145 139.73 43.655C139.73 44.138 139.551 44.539 139.302 44.759C139.095 44.938 138.737 45.129 138.087 45.129H137.123V46.345H137.991ZM153.455 49.779H149.354C149.62 49.179 150.079 48.078 150.344 47.143C150.763 45.638 150.902 43.768 150.93 43.294L151.013 41.998H153.455V49.779ZM154.601 49.779V41.105H150.051L149.982 42.555C149.925 43.825 149.801 45.219 149.423 46.683C149.313 47.116 148.977 48.33 148.279 49.779H147.679V53.25H148.796V50.67H154.46V53.25H155.577V49.779H154.601ZM163.476 50.675V49.699H159.248V46.171H162.541V45.195H159.248V42.084H163.184L163.336 41.104H158.105V50.674L163.476 50.675ZM170.019 45.416C169.782 45.682 169.447 45.934 168.527 45.934H166.921V42.069H168.136C168.846 42.069 169.489 42.139 169.95 42.544C170.298 42.85 170.508 43.31 170.508 44.022C170.508 44.718 170.312 45.096 170.019 45.416ZM170.55 41.553C169.936 41.147 169.336 41.105 168.457 41.105H165.777V50.675H166.921V46.867H168.598C169.183 46.867 170.117 46.84 170.912 46.115C171.638 45.459 171.777 44.552 171.777 43.841C171.777 43.267 171.638 42.251 170.55 41.553ZM179.242 50.675V49.699H175.013V46.171H178.308V45.195H175.013V42.084H178.949L179.103 41.104H173.87V50.674L179.242 50.675ZM186.108 49.336C185.703 49.699 185.116 49.742 184.684 49.742H182.648V46.17H184.336C184.879 46.17 185.52 46.17 185.982 46.518C186.289 46.755 186.61 47.23 186.61 48.04C186.61 48.696 186.358 49.114 186.108 49.336ZM182.648 42.042H184.001C184.489 42.042 185.075 41.999 185.577 42.403C185.913 42.683 186.134 43.129 186.134 43.658C186.134 44.175 185.927 44.607 185.646 44.86C185.201 45.25 184.615 45.237 184.308 45.237H182.648V42.042ZM186.944 46.1C186.61 45.85 186.134 45.668 185.689 45.6C185.829 45.557 186.329 45.403 186.749 45.014C187.28 44.524 187.404 43.939 187.404 43.506C187.404 42.725 186.988 42.042 186.4 41.634C185.618 41.104 184.656 41.104 183.791 41.104H181.544V50.674H184.015C185.256 50.674 186.289 50.648 187.055 49.922C187.461 49.547 187.81 48.905 187.81 48.054C187.81 47.258 187.517 46.532 186.944 46.1ZM191.659 46.798L193.166 42.111L194.63 46.798H191.659ZM193.961 41.105H192.468L189.273 50.675H190.432L191.353 47.731H194.925L195.831 50.675H197.129L193.961 41.105ZM200 49.84C200 49.327 199.581 48.927 199.047 48.927C198.53 48.927 198.12 49.327 198.12 49.84C198.12 50.367 198.541 50.797 199.077 50.797C199.581 50.797 200 50.367 200 49.84ZM96.7803 41.105H94.4583V50.675H104.444V41.105H102.123V48.755H100.614V41.105H98.2903V48.755H96.7803V41.105ZM106.73 50.675V41.105H112.335L112.156 43.124H109.207V44.732H111.616V46.679H109.207V48.631H112.515V50.675H106.73ZM71.5923 50.673V43.027H70.0943L70.0513 44.182C70.0393 44.482 69.9563 46.556 69.7643 47.985C69.6823 48.6 69.5453 49.381 69.0223 49.919C68.4593 50.494 67.6493 50.633 67.0993 50.714L66.3713 50.824L65.8643 49.109L66.2213 49.011C66.457 48.9447 66.6832 48.8482 66.8943 48.724C67.1823 48.533 67.3053 48.313 67.3883 48.08C67.5393 47.653 67.6483 46.87 67.6783 46.595C67.8133 45.43 67.8833 43.934 67.9103 42.85L67.9503 41.105H74.0503V50.673H71.5923ZM89.6003 50.675V47.052C89.0233 47.272 88.3363 47.325 88.0203 47.325C87.3053 47.325 86.5363 47.146 86.0973 46.762C85.4513 46.187 85.4113 45.293 85.4113 44.786V41.105H87.8693V44.223C87.8693 44.416 87.8823 44.909 88.0493 45.143C88.2283 45.403 88.5423 45.432 88.7493 45.432C89.0391 45.4253 89.3262 45.3737 89.6003 45.279V41.105H92.0603V50.675H89.6003ZM84.0383 41.105H81.4413L80.4673 44.074C80.2753 44.652 80.0543 45.711 79.9593 46.274H79.9053C79.8493 45.764 79.6433 45.021 79.5733 44.816L78.3793 41.105H75.6733L77.7053 46.37C78.0623 47.29 78.2003 47.728 78.3113 48.196L79.0663 48.115L79.0103 48.265C78.8053 48.842 78.5993 49.091 78.4353 49.225C78.1723 49.449 77.7483 49.613 77.4053 49.667L76.8553 49.763L77.6943 51.413L78.4623 51.289C79.0943 51.192 79.6973 51.001 80.1383 50.546C80.6053 50.078 80.8933 49.255 81.3743 48.019L84.0383 41.105Z" fill="#706D6E"/>
</g>
</g>
<defs>
<clipPath id="clip0_175_14">
<rect width="200" height="54" fill="white"/>
</clipPath>
</defs>
</svg>
