<svg width="162" height="92" viewBox="0 0 162 92" fill="none" xmlns="http://www.w3.org/2000/svg">
<path d="M73.709 1H63V29.6725H64.3818V18.0999H73.709V1Z" fill="white" stroke="white"/>
<path d="M100.999 1H84.7632V3.41817H93.7449V17.9272H100.999V1Z" fill="white" stroke="white"/>
<path d="M77.1633 31.3993V4.28125H80.6178V34.8538H63.3452L65.4179 31.3993H77.1633Z" fill="white" stroke="white"/>
<path d="M86.8364 13.7812H83.3818V34.8538H100.654L98.409 31.3993H86.8364V13.7812Z" fill="white" stroke="white"/>
<path d="M64.3818 36.5818H63V39H101V37.9636H64.3818V36.5818Z" fill="white" stroke="white"/>
<path d="M2.88 77V51.08H7.218V72.932H18.666V77H2.88ZM23.8753 77V51.08H28.2133V77H23.8753ZM46.3672 77.54C43.7752 77.54 41.5552 76.976 39.7072 75.848C37.8592 74.708 36.4372 73.124 35.4412 71.096C34.4572 69.068 33.9652 66.716 33.9652 64.04C33.9652 61.364 34.4572 59.012 35.4412 56.984C36.4372 54.956 37.8592 53.378 39.7072 52.25C41.5552 51.11 43.7752 50.54 46.3672 50.54C48.9592 50.54 51.1792 51.11 53.0272 52.25C54.8872 53.378 56.3092 54.956 57.2932 56.984C58.2892 59.012 58.7872 61.364 58.7872 64.04C58.7872 66.716 58.2892 69.068 57.2932 71.096C56.3092 73.124 54.8872 74.708 53.0272 75.848C51.1792 76.976 48.9592 77.54 46.3672 77.54ZM46.3672 73.454C48.1072 73.466 49.5532 73.082 50.7052 72.302C51.8692 71.522 52.7392 70.424 53.3152 69.008C53.9032 67.592 54.1972 65.936 54.1972 64.04C54.1972 62.144 53.9032 60.5 53.3152 59.108C52.7392 57.704 51.8692 56.612 50.7052 55.832C49.5532 55.052 48.1072 54.65 46.3672 54.626C44.6272 54.614 43.1812 54.998 42.0292 55.778C40.8772 56.558 40.0072 57.656 39.4192 59.072C38.8432 60.488 38.5552 62.144 38.5552 64.04C38.5552 65.936 38.8432 67.586 39.4192 68.99C39.9952 70.382 40.8592 71.468 42.0112 72.248C43.1752 73.028 44.6272 73.43 46.3672 73.454ZM64.17 77V51.08H68.562L80.586 69.35V51.08H84.978V77H80.586L68.562 58.73V77H64.17ZM92.1698 77V51.08H96.5078V72.932H107.956V77H92.1698ZM123.245 77.54C121.181 77.54 119.363 77.12 117.791 76.28C116.231 75.44 115.007 74.258 114.119 72.734C113.243 71.21 112.805 69.422 112.805 67.37V51.116L117.197 51.08V67.262C117.197 68.234 117.359 69.104 117.683 69.872C118.019 70.64 118.469 71.294 119.033 71.834C119.597 72.362 120.245 72.764 120.977 73.04C121.709 73.316 122.465 73.454 123.245 73.454C124.049 73.454 124.811 73.316 125.531 73.04C126.263 72.752 126.911 72.344 127.475 71.816C128.039 71.276 128.483 70.622 128.807 69.854C129.131 69.086 129.293 68.222 129.293 67.262V51.08H133.685V67.37C133.685 69.422 133.241 71.21 132.353 72.734C131.477 74.258 130.253 75.44 128.681 76.28C127.121 77.12 125.309 77.54 123.245 77.54ZM138.355 77L147.139 63.896L138.607 51.08H143.917L149.821 60.206L155.671 51.08H161.017L152.485 63.896L161.233 77H155.923L149.821 67.586L143.701 77H138.355Z" fill="white"/>
<path d="M37.4861 90L40.4621 81.36H41.6321L44.6081 90H43.6901L40.8641 81.852H41.2121L38.4041 90H37.4861ZM38.8121 87.906V87.078H43.2761V87.906H38.8121ZM47.4496 90V84.336H45.1516V83.52H50.6296V84.336H48.3316V90H47.4496ZM54.5156 90.18C53.8836 90.18 53.3356 90.04 52.8716 89.76C52.4116 89.48 52.0536 89.086 51.7976 88.578C51.5416 88.07 51.4136 87.474 51.4136 86.79C51.4136 86.082 51.5396 85.47 51.7916 84.954C52.0436 84.438 52.3976 84.04 52.8536 83.76C53.3136 83.48 53.8556 83.34 54.4796 83.34C55.1196 83.34 55.6656 83.488 56.1176 83.784C56.5696 84.076 56.9116 84.496 57.1436 85.044C57.3756 85.592 57.4816 86.246 57.4616 87.006H56.5616V86.694C56.5456 85.854 56.3636 85.22 56.0156 84.792C55.6716 84.364 55.1676 84.15 54.5036 84.15C53.8076 84.15 53.2736 84.376 52.9016 84.828C52.5336 85.28 52.3496 85.924 52.3496 86.76C52.3496 87.576 52.5336 88.21 52.9016 88.662C53.2736 89.11 53.7996 89.334 54.4796 89.334C54.9436 89.334 55.3476 89.228 55.6916 89.016C56.0396 88.8 56.3136 88.49 56.5136 88.086L57.3356 88.404C57.0796 88.968 56.7016 89.406 56.2016 89.718C55.7056 90.026 55.1436 90.18 54.5156 90.18ZM52.0376 87.006V86.268H56.9876V87.006H52.0376ZM58.1931 90V89.226C58.4331 89.27 58.6151 89.26 58.7391 89.196C58.8671 89.128 58.9611 89.016 59.0211 88.86C59.0811 88.7 59.1311 88.502 59.1711 88.266C59.2351 87.874 59.2931 87.442 59.3451 86.97C59.3971 86.498 59.4431 85.978 59.4831 85.41C59.5271 84.838 59.5711 84.208 59.6151 83.52H64.0191V90H63.1431V84.366H60.4311C60.4031 84.79 60.3711 85.212 60.3351 85.632C60.2991 86.052 60.2611 86.456 60.2211 86.844C60.1851 87.228 60.1451 87.582 60.1011 87.906C60.0571 88.23 60.0111 88.51 59.9631 88.746C59.8911 89.102 59.7951 89.386 59.6751 89.598C59.5591 89.81 59.3851 89.95 59.1531 90.018C58.9211 90.086 58.6011 90.08 58.1931 90ZM65.7015 90L65.6895 83.52H66.5775V85.962H68.0955C68.2835 85.962 68.4675 85.966 68.6475 85.974C68.8315 85.982 68.9935 85.998 69.1335 86.022C69.4535 86.082 69.7375 86.188 69.9855 86.34C70.2375 86.492 70.4335 86.702 70.5735 86.97C70.7175 87.238 70.7895 87.574 70.7895 87.978C70.7895 88.534 70.6455 88.972 70.3575 89.292C70.0735 89.612 69.7135 89.82 69.2775 89.916C69.1135 89.952 68.9355 89.976 68.7435 89.988C68.5515 89.996 68.3615 90 68.1735 90H65.7015ZM66.5775 89.244H68.1375C68.2735 89.244 68.4255 89.24 68.5935 89.232C68.7615 89.224 68.9095 89.202 69.0375 89.166C69.2495 89.106 69.4415 88.986 69.6135 88.806C69.7895 88.622 69.8775 88.346 69.8775 87.978C69.8775 87.614 69.7935 87.34 69.6255 87.156C69.4575 86.968 69.2335 86.844 68.9535 86.784C68.8295 86.756 68.6955 86.738 68.5515 86.73C68.4075 86.722 68.2695 86.718 68.1375 86.718H66.5775V89.244ZM74.8476 90.18C74.2156 90.18 73.6676 90.04 73.2036 89.76C72.7436 89.48 72.3856 89.086 72.1296 88.578C71.8736 88.07 71.7456 87.474 71.7456 86.79C71.7456 86.082 71.8716 85.47 72.1236 84.954C72.3756 84.438 72.7296 84.04 73.1856 83.76C73.6456 83.48 74.1876 83.34 74.8116 83.34C75.4516 83.34 75.9976 83.488 76.4496 83.784C76.9016 84.076 77.2436 84.496 77.4756 85.044C77.7076 85.592 77.8136 86.246 77.7936 87.006H76.8936V86.694C76.8776 85.854 76.6956 85.22 76.3476 84.792C76.0036 84.364 75.4996 84.15 74.8356 84.15C74.1396 84.15 73.6056 84.376 73.2336 84.828C72.8656 85.28 72.6816 85.924 72.6816 86.76C72.6816 87.576 72.8656 88.21 73.2336 88.662C73.6056 89.11 74.1316 89.334 74.8116 89.334C75.2756 89.334 75.6796 89.228 76.0236 89.016C76.3716 88.8 76.6456 88.49 76.8456 88.086L77.6676 88.404C77.4116 88.968 77.0336 89.406 76.5336 89.718C76.0376 90.026 75.4756 90.18 74.8476 90.18ZM72.3696 87.006V86.268H77.3196V87.006H72.3696ZM81.5215 90V83.52H82.3075L84.8335 88.824L87.3655 83.52H88.1455V90H87.2935V85.404L85.1155 90H84.5575L82.3795 85.404V90H81.5215ZM92.5664 90.18C91.9344 90.18 91.3864 90.04 90.9224 89.76C90.4624 89.48 90.1044 89.086 89.8484 88.578C89.5924 88.07 89.4644 87.474 89.4644 86.79C89.4644 86.082 89.5904 85.47 89.8424 84.954C90.0944 84.438 90.4484 84.04 90.9044 83.76C91.3644 83.48 91.9064 83.34 92.5304 83.34C93.1704 83.34 93.7164 83.488 94.1684 83.784C94.6204 84.076 94.9624 84.496 95.1944 85.044C95.4264 85.592 95.5324 86.246 95.5124 87.006H94.6124V86.694C94.5964 85.854 94.4144 85.22 94.0664 84.792C93.7224 84.364 93.2184 84.15 92.5544 84.15C91.8584 84.15 91.3244 84.376 90.9524 84.828C90.5844 85.28 90.4004 85.924 90.4004 86.76C90.4004 87.576 90.5844 88.21 90.9524 88.662C91.3244 89.11 91.8504 89.334 92.5304 89.334C92.9944 89.334 93.3984 89.228 93.7424 89.016C94.0904 88.8 94.3644 88.49 94.5644 88.086L95.3864 88.404C95.1304 88.968 94.7524 89.406 94.2524 89.718C93.7564 90.026 93.1944 90.18 92.5664 90.18ZM90.0884 87.006V86.268H95.0384V87.006H90.0884ZM99.4419 90.186C98.8379 90.182 98.3199 90.05 97.8879 89.79C97.4559 89.53 97.1199 89.142 96.8799 88.626C96.6439 88.11 96.5159 87.466 96.4959 86.694C96.4839 86.354 96.4919 85.984 96.5199 85.584C96.5479 85.18 96.5919 84.796 96.6519 84.432C96.7119 84.068 96.7839 83.772 96.8679 83.544C96.9719 83.248 97.1199 82.972 97.3119 82.716C97.5079 82.456 97.7339 82.244 97.9899 82.08C98.2379 81.912 98.5179 81.782 98.8299 81.69C99.1459 81.594 99.4739 81.52 99.8139 81.468C100.158 81.416 100.498 81.37 100.834 81.33C101.174 81.29 101.488 81.24 101.776 81.18L101.872 81.978C101.652 82.022 101.392 82.062 101.092 82.098C100.792 82.134 100.478 82.178 100.15 82.23C99.8219 82.278 99.5079 82.344 99.2079 82.428C98.9079 82.512 98.6519 82.622 98.4399 82.758C98.1159 82.954 97.8659 83.25 97.6899 83.646C97.5179 84.042 97.4119 84.496 97.3719 85.008C97.6199 84.62 97.9479 84.328 98.3559 84.132C98.7679 83.936 99.2139 83.838 99.6939 83.838C100.278 83.838 100.78 83.972 101.2 84.24C101.624 84.508 101.95 84.88 102.178 85.356C102.406 85.832 102.52 86.378 102.52 86.994C102.52 87.638 102.394 88.2 102.142 88.68C101.894 89.16 101.54 89.532 101.08 89.796C100.62 90.056 100.074 90.186 99.4419 90.186ZM99.5079 89.34C100.188 89.34 100.704 89.128 101.056 88.704C101.412 88.28 101.59 87.716 101.59 87.012C101.59 86.292 101.406 85.724 101.038 85.308C100.674 84.892 100.16 84.684 99.4959 84.684C98.8319 84.684 98.3219 84.892 97.9659 85.308C97.6099 85.724 97.4319 86.292 97.4319 87.012C97.4319 87.732 97.6099 88.3 97.9659 88.716C98.3219 89.132 98.8359 89.34 99.5079 89.34ZM106.582 90.18C105.95 90.18 105.402 90.04 104.938 89.76C104.478 89.48 104.12 89.086 103.864 88.578C103.608 88.07 103.48 87.474 103.48 86.79C103.48 86.082 103.606 85.47 103.858 84.954C104.11 84.438 104.464 84.04 104.92 83.76C105.38 83.48 105.922 83.34 106.546 83.34C107.186 83.34 107.732 83.488 108.184 83.784C108.636 84.076 108.978 84.496 109.21 85.044C109.442 85.592 109.548 86.246 109.528 87.006H108.628V86.694C108.612 85.854 108.43 85.22 108.082 84.792C107.738 84.364 107.234 84.15 106.57 84.15C105.874 84.15 105.34 84.376 104.968 84.828C104.6 85.28 104.416 85.924 104.416 86.76C104.416 87.576 104.6 88.21 104.968 88.662C105.34 89.11 105.866 89.334 106.546 89.334C107.01 89.334 107.414 89.228 107.758 89.016C108.106 88.8 108.38 88.49 108.58 88.086L109.402 88.404C109.146 88.968 108.768 89.406 108.268 89.718C107.772 90.026 107.21 90.18 106.582 90.18ZM104.104 87.006V86.268H109.054V87.006H104.104ZM110.26 90V89.226C110.5 89.27 110.682 89.26 110.806 89.196C110.934 89.128 111.028 89.016 111.088 88.86C111.148 88.7 111.198 88.502 111.238 88.266C111.302 87.874 111.36 87.442 111.412 86.97C111.464 86.498 111.51 85.978 111.55 85.41C111.594 84.838 111.638 84.208 111.682 83.52H116.086V90H115.21V84.366H112.498C112.47 84.79 112.438 85.212 112.402 85.632C112.366 86.052 112.328 86.456 112.288 86.844C112.252 87.228 112.212 87.582 112.168 87.906C112.124 88.23 112.078 88.51 112.03 88.746C111.958 89.102 111.862 89.386 111.742 89.598C111.626 89.81 111.452 89.95 111.22 90.018C110.988 90.086 110.668 90.08 110.26 90ZM122.91 83.52V90H122.052V84.954L118.5 90H117.756V83.52H118.614V88.524L122.172 83.52H122.91Z" fill="white" fill-opacity="0.5"/>
</svg>
