<svg width="203" height="63" viewBox="0 0 203 63" fill="none" xmlns="http://www.w3.org/2000/svg">
<path d="M11.709 1H1V29.6725H2.38181V18.0999H11.709V1Z" fill="white" stroke="white"/>
<path d="M38.9996 1H22.7633V3.41817H31.7451V17.9272H38.9996V1Z" fill="white" stroke="white"/>
<path d="M15.1636 31.3993V4.28125H18.6181V34.8538H1.34546L3.41817 31.3993H15.1636Z" fill="white" stroke="white"/>
<path d="M24.8362 13.7812H21.3817V34.8538H38.6543L36.4089 31.3993H24.8362V13.7812Z" fill="white" stroke="white"/>
<path d="M2.38181 36.582H1V39.0002H38.9997V37.9638H2.38181V36.582Z" fill="white" stroke="white"/>
<path d="M51.88 39V13.08H56.218V34.932H67.666V39H51.88ZM71.0753 39V13.08H75.4133V39H71.0753ZM91.7672 39.54C89.1752 39.54 86.9552 38.976 85.1072 37.848C83.2592 36.708 81.8372 35.124 80.8412 33.096C79.8572 31.068 79.3652 28.716 79.3652 26.04C79.3652 23.364 79.8572 21.012 80.8412 18.984C81.8372 16.956 83.2592 15.378 85.1072 14.25C86.9552 13.11 89.1752 12.54 91.7672 12.54C94.3592 12.54 96.5792 13.11 98.4272 14.25C100.287 15.378 101.709 16.956 102.693 18.984C103.689 21.012 104.187 23.364 104.187 26.04C104.187 28.716 103.689 31.068 102.693 33.096C101.709 35.124 100.287 36.708 98.4272 37.848C96.5792 38.976 94.3592 39.54 91.7672 39.54ZM91.7672 35.454C93.5072 35.466 94.9532 35.082 96.1052 34.302C97.2692 33.522 98.1392 32.424 98.7152 31.008C99.3032 29.592 99.5972 27.936 99.5972 26.04C99.5972 24.144 99.3032 22.5 98.7152 21.108C98.1392 19.704 97.2692 18.612 96.1052 17.832C94.9532 17.052 93.5072 16.65 91.7672 16.626C90.0272 16.614 88.5812 16.998 87.4292 17.778C86.2772 18.558 85.4072 19.656 84.8192 21.072C84.2432 22.488 83.9552 24.144 83.9552 26.04C83.9552 27.936 84.2432 29.586 84.8192 30.99C85.3952 32.382 86.2592 33.468 87.4112 34.248C88.5752 35.028 90.0272 35.43 91.7672 35.454ZM107.77 39V13.08H112.162L124.186 31.35V13.08H128.578V39H124.186L112.162 20.73V39H107.77ZM133.97 39V13.08H138.308V34.932H149.756V39H133.97ZM163.245 39.54C161.181 39.54 159.363 39.12 157.791 38.28C156.231 37.44 155.007 36.258 154.119 34.734C153.243 33.21 152.805 31.422 152.805 29.37V13.116L157.197 13.08V29.262C157.197 30.234 157.359 31.104 157.683 31.872C158.019 32.64 158.469 33.294 159.033 33.834C159.597 34.362 160.245 34.764 160.977 35.04C161.709 35.316 162.465 35.454 163.245 35.454C164.049 35.454 164.811 35.316 165.531 35.04C166.263 34.752 166.911 34.344 167.475 33.816C168.039 33.276 168.483 32.622 168.807 31.854C169.131 31.086 169.293 30.222 169.293 29.262V13.08H173.685V29.37C173.685 31.422 173.241 33.21 172.353 34.734C171.477 36.258 170.253 37.44 168.681 38.28C167.121 39.12 165.309 39.54 163.245 39.54ZM176.555 39L185.339 25.896L176.807 13.08H182.117L188.021 22.206L193.871 13.08H199.217L190.685 25.896L199.433 39H194.123L188.021 29.586L181.901 39H176.555Z" fill="white"/>
<path d="M1.28 62L4.752 51.92H6.117L9.589 62H8.518L5.221 52.494H5.627L2.351 62H1.28ZM2.827 59.557V58.591H8.035V59.557H2.827ZM12.904 62V55.392H10.223V54.44H16.614V55.392H13.933V62H12.904ZM21.1478 62.21C20.4104 62.21 19.7711 62.0467 19.2298 61.72C18.6931 61.3933 18.2754 60.9337 17.9768 60.341C17.6781 59.7483 17.5288 59.053 17.5288 58.255C17.5288 57.429 17.6758 56.715 17.9698 56.113C18.2638 55.511 18.6768 55.0467 19.2088 54.72C19.7454 54.3933 20.3778 54.23 21.1058 54.23C21.8524 54.23 22.4894 54.4027 23.0168 54.748C23.5441 55.0887 23.9431 55.5787 24.2138 56.218C24.4844 56.8573 24.6081 57.6203 24.5848 58.507H23.5348V58.143C23.5161 57.163 23.3038 56.4233 22.8978 55.924C22.4964 55.4247 21.9084 55.175 21.1338 55.175C20.3218 55.175 19.6988 55.4387 19.2648 55.966C18.8354 56.4933 18.6208 57.2447 18.6208 58.22C18.6208 59.172 18.8354 59.9117 19.2648 60.439C19.6988 60.9617 20.3124 61.223 21.1058 61.223C21.6471 61.223 22.1184 61.0993 22.5198 60.852C22.9258 60.6 23.2454 60.2383 23.4788 59.767L24.4378 60.138C24.1391 60.796 23.6981 61.307 23.1148 61.671C22.5361 62.0303 21.8804 62.21 21.1478 62.21ZM18.2568 58.507V57.646H24.0318V58.507H18.2568ZM25.4382 62V61.097C25.7182 61.1483 25.9305 61.1367 26.0752 61.062C26.2245 60.9827 26.3342 60.852 26.4042 60.67C26.4742 60.4833 26.5325 60.2523 26.5792 59.977C26.6539 59.5197 26.7215 59.0157 26.7822 58.465C26.8429 57.9143 26.8965 57.3077 26.9432 56.645C26.9945 55.9777 27.0459 55.2427 27.0972 54.44H32.2352V62H31.2132V55.427H28.0492C28.0165 55.9217 27.9792 56.414 27.9372 56.904C27.8952 57.394 27.8509 57.8653 27.8042 58.318C27.7622 58.766 27.7155 59.179 27.6642 59.557C27.6129 59.935 27.5592 60.2617 27.5032 60.537C27.4192 60.9523 27.3072 61.2837 27.1672 61.531C27.0319 61.7783 26.8289 61.9417 26.5582 62.021C26.2875 62.1003 25.9142 62.0933 25.4382 62ZM34.1979 62L34.1839 54.44H35.2199V57.289H36.9909C37.2103 57.289 37.4249 57.2937 37.6349 57.303C37.8496 57.3123 38.0386 57.331 38.2019 57.359C38.5753 57.429 38.9066 57.5527 39.1959 57.73C39.4899 57.9073 39.7186 58.1523 39.8819 58.465C40.0499 58.7777 40.1339 59.1697 40.1339 59.641C40.1339 60.2897 39.9659 60.8007 39.6299 61.174C39.2986 61.5473 38.8786 61.79 38.3699 61.902C38.1786 61.944 37.9709 61.972 37.7469 61.986C37.5229 61.9953 37.3013 62 37.0819 62H34.1979ZM35.2199 61.118H37.0399C37.1986 61.118 37.3759 61.1133 37.5719 61.104C37.7679 61.0947 37.9406 61.069 38.0899 61.027C38.3373 60.957 38.5613 60.817 38.7619 60.607C38.9673 60.3923 39.0699 60.0703 39.0699 59.641C39.0699 59.2163 38.9719 58.8967 38.7759 58.682C38.5799 58.4627 38.3186 58.318 37.9919 58.248C37.8473 58.2153 37.6909 58.1943 37.5229 58.185C37.3549 58.1757 37.1939 58.171 37.0399 58.171H35.2199V61.118ZM44.8685 62.21C44.1311 62.21 43.4918 62.0467 42.9505 61.72C42.4138 61.3933 41.9961 60.9337 41.6975 60.341C41.3988 59.7483 41.2495 59.053 41.2495 58.255C41.2495 57.429 41.3965 56.715 41.6905 56.113C41.9845 55.511 42.3975 55.0467 42.9295 54.72C43.4661 54.3933 44.0985 54.23 44.8265 54.23C45.5731 54.23 46.2101 54.4027 46.7375 54.748C47.2648 55.0887 47.6638 55.5787 47.9345 56.218C48.2051 56.8573 48.3288 57.6203 48.3055 58.507H47.2555V58.143C47.2368 57.163 47.0245 56.4233 46.6185 55.924C46.2171 55.4247 45.6291 55.175 44.8545 55.175C44.0425 55.175 43.4195 55.4387 42.9855 55.966C42.5561 56.4933 42.3415 57.2447 42.3415 58.22C42.3415 59.172 42.5561 59.9117 42.9855 60.439C43.4195 60.9617 44.0331 61.223 44.8265 61.223C45.3678 61.223 45.8391 61.0993 46.2405 60.852C46.6465 60.6 46.9661 60.2383 47.1995 59.767L48.1585 60.138C47.8598 60.796 47.4188 61.307 46.8355 61.671C46.2568 62.0303 45.6011 62.21 44.8685 62.21ZM41.9775 58.507V57.646H47.7525V58.507H41.9775ZM52.6546 62V54.44H53.5716L56.5186 60.628L59.4726 54.44H60.3826V62H59.3886V56.638L56.8476 62H56.1966L53.6556 56.638V62H52.6546ZM65.5403 62.21C64.803 62.21 64.1637 62.0467 63.6223 61.72C63.0857 61.3933 62.668 60.9337 62.3693 60.341C62.0707 59.7483 61.9213 59.053 61.9213 58.255C61.9213 57.429 62.0683 56.715 62.3623 56.113C62.6563 55.511 63.0693 55.0467 63.6013 54.72C64.138 54.3933 64.7703 54.23 65.4983 54.23C66.245 54.23 66.882 54.4027 67.4093 54.748C67.9367 55.0887 68.3357 55.5787 68.6063 56.218C68.877 56.8573 69.0007 57.6203 68.9773 58.507H67.9273V58.143C67.9087 57.163 67.6963 56.4233 67.2903 55.924C66.889 55.4247 66.301 55.175 65.5263 55.175C64.7143 55.175 64.0913 55.4387 63.6573 55.966C63.228 56.4933 63.0133 57.2447 63.0133 58.22C63.0133 59.172 63.228 59.9117 63.6573 60.439C64.0913 60.9617 64.705 61.223 65.4983 61.223C66.0397 61.223 66.511 61.0993 66.9123 60.852C67.3183 60.6 67.638 60.2383 67.8713 59.767L68.8303 60.138C68.5317 60.796 68.0907 61.307 67.5073 61.671C66.9287 62.0303 66.273 62.21 65.5403 62.21ZM62.6493 58.507V57.646H68.4243V58.507H62.6493ZM73.5618 62.217C72.8571 62.2123 72.2528 62.0583 71.7488 61.755C71.2448 61.4517 70.8528 60.999 70.5728 60.397C70.2974 59.795 70.1481 59.0437 70.1248 58.143C70.1108 57.7463 70.1201 57.3147 70.1528 56.848C70.1854 56.3767 70.2368 55.9287 70.3068 55.504C70.3768 55.0793 70.4608 54.734 70.5588 54.468C70.6801 54.1227 70.8528 53.8007 71.0768 53.502C71.3054 53.1987 71.5691 52.9513 71.8678 52.76C72.1571 52.564 72.4838 52.4123 72.8478 52.305C73.2164 52.193 73.5991 52.1067 73.9958 52.046C74.3971 51.9853 74.7938 51.9317 75.1858 51.885C75.5824 51.8383 75.9488 51.78 76.2848 51.71L76.3968 52.641C76.1401 52.6923 75.8368 52.739 75.4868 52.781C75.1368 52.823 74.7704 52.8743 74.3878 52.935C74.0051 52.991 73.6388 53.068 73.2888 53.166C72.9388 53.264 72.6401 53.3923 72.3928 53.551C72.0148 53.7797 71.7231 54.125 71.5178 54.587C71.3171 55.049 71.1934 55.5787 71.1468 56.176C71.4361 55.7233 71.8188 55.3827 72.2948 55.154C72.7754 54.9253 73.2958 54.811 73.8558 54.811C74.5371 54.811 75.1228 54.9673 75.6128 55.28C76.1074 55.5927 76.4878 56.0267 76.7538 56.582C77.0198 57.1373 77.1528 57.7743 77.1528 58.493C77.1528 59.2443 77.0058 59.9 76.7118 60.46C76.4224 61.02 76.0094 61.454 75.4728 61.762C74.9361 62.0653 74.2991 62.217 73.5618 62.217ZM73.6388 61.23C74.4321 61.23 75.0341 60.9827 75.4448 60.488C75.8601 59.9933 76.0678 59.3353 76.0678 58.514C76.0678 57.674 75.8531 57.0113 75.4238 56.526C74.9991 56.0407 74.3994 55.798 73.6248 55.798C72.8501 55.798 72.2551 56.0407 71.8398 56.526C71.4244 57.0113 71.2168 57.674 71.2168 58.514C71.2168 59.354 71.4244 60.0167 71.8398 60.502C72.2551 60.9873 72.8548 61.23 73.6388 61.23ZM81.8919 62.21C81.1546 62.21 80.5152 62.0467 79.9739 61.72C79.4372 61.3933 79.0196 60.9337 78.7209 60.341C78.4222 59.7483 78.2729 59.053 78.2729 58.255C78.2729 57.429 78.4199 56.715 78.7139 56.113C79.0079 55.511 79.4209 55.0467 79.9529 54.72C80.4896 54.3933 81.1219 54.23 81.8499 54.23C82.5966 54.23 83.2336 54.4027 83.7609 54.748C84.2882 55.0887 84.6872 55.5787 84.9579 56.218C85.2286 56.8573 85.3522 57.6203 85.3289 58.507H84.2789V58.143C84.2602 57.163 84.0479 56.4233 83.6419 55.924C83.2406 55.4247 82.6526 55.175 81.8779 55.175C81.0659 55.175 80.4429 55.4387 80.0089 55.966C79.5796 56.4933 79.3649 57.2447 79.3649 58.22C79.3649 59.172 79.5796 59.9117 80.0089 60.439C80.4429 60.9617 81.0566 61.223 81.8499 61.223C82.3912 61.223 82.8626 61.0993 83.2639 60.852C83.6699 60.6 83.9896 60.2383 84.2229 59.767L85.1819 60.138C84.8832 60.796 84.4422 61.307 83.8589 61.671C83.2802 62.0303 82.6246 62.21 81.8919 62.21ZM79.0009 58.507V57.646H84.7759V58.507H79.0009ZM86.1823 62V61.097C86.4623 61.1483 86.6747 61.1367 86.8193 61.062C86.9687 60.9827 87.0783 60.852 87.1483 60.67C87.2183 60.4833 87.2767 60.2523 87.3233 59.977C87.398 59.5197 87.4657 59.0157 87.5263 58.465C87.587 57.9143 87.6407 57.3077 87.6873 56.645C87.7387 55.9777 87.79 55.2427 87.8413 54.44H92.9793V62H91.9573V55.427H88.7933C88.7607 55.9217 88.7233 56.414 88.6813 56.904C88.6393 57.394 88.595 57.8653 88.5483 58.318C88.5063 58.766 88.4597 59.179 88.4083 59.557C88.357 59.935 88.3033 60.2617 88.2473 60.537C88.1633 60.9523 88.0513 61.2837 87.9113 61.531C87.776 61.7783 87.573 61.9417 87.3023 62.021C87.0317 62.1003 86.6583 62.0933 86.1823 62ZM100.941 54.44V62H99.9401V56.113L95.7961 62H94.9281V54.44H95.9291V60.278L100.08 54.44H100.941Z" fill="white"/>
</svg>
