<svg width="32" height="32" viewBox="0 0 32 32" fill="none" xmlns="http://www.w3.org/2000/svg">
<path d="M17.1356 3.83849L23.7679 10.4747L26.3471 7.89748C26.7552 7.48729 26.9842 6.93225 26.9842 6.35369C26.9842 5.77512 26.7552 5.22009 26.3471 4.80989L22.8004 1.2632C22.3899 0.855065 21.8346 0.625977 21.2557 0.625977C20.6768 0.625977 20.1214 0.855065 19.7109 1.2632L17.1356 3.83849ZM1.51834 26.626C1.58395 26.6259 1.64937 26.6186 1.7134 26.6043L8.45015 25.0871C9.01049 24.9341 9.52909 24.6566 9.96734 24.2753L17.2755 16.9672L22.2251 12.0195L18.8557 8.65017L6.59996 20.9079L8.92698 23.2369C8.68743 23.4233 8.41652 23.5654 8.127 23.6566L5.15566 24.3246L3.2838 22.4527L3.95373 19.4814C4.04448 19.1923 4.18666 18.9219 4.37342 18.6834L5.05321 19.3631L17.3129 7.10736L15.5908 5.38327L10.6392 10.3329L7.1891 13.785L3.33306 17.643C2.95192 18.0813 2.67444 18.5999 2.52126 19.1602L1.00407 25.8969C0.905546 26.3304 1.13411 26.626 1.51834 26.626Z" fill="white"/>
<path d="M1 31H24" stroke="#A4814E" stroke-width="2" stroke-linecap="round"/>
</svg>
