<svg width="29" height="32" viewBox="0 0 29 32" fill="none" xmlns="http://www.w3.org/2000/svg">
<path d="M28.0408 24V30.225C28.0408 30.7312 27.9258 31.1125 27.5917 31.4937C27.2522 31.8813 26.929 32 26.4854 32C19.9079 31.8687 12.2405 29.4813 7.22927 23.7625C2.21807 18.0438 0.115011 9.28125 0 1.775C0 1.26875 0.109535 0.893751 0.443615 0.512501C0.777695 0.131251 1.1063 0 1.55539 0H7.0102L8.41224 9.6L5.79437 13.4812C6.57207 16 8.13293 18.675 9.90739 20.7062C11.6873 22.7375 14.0204 24.5 16.222 25.3875L19.6231 22.4L28.0408 24Z" fill="#03081A"/>
<path d="M15.7029 9.23242V14.5811H21.0516" stroke="#A4814E" stroke-width="2" stroke-linecap="round" stroke-linejoin="round"/>
<path d="M25.7975 4.48633L16.9081 13.3757" stroke="#A4814E" stroke-width="2" stroke-linecap="round" stroke-linejoin="round"/>
</svg>
