<svg width="45" height="33" viewBox="0 0 45 33" fill="none" xmlns="http://www.w3.org/2000/svg">
<path d="M0 22.7568H3.69731V28.3027H40.6699V22.7568H44.3672V32H0V22.7568ZM14.3251 12.5665L14.9464 16.4188C14.4683 16.6477 13.8197 16.8356 13.0009 16.9828C12.1819 17.1299 11.266 17.2059 10.253 17.2109C7.54418 17.1808 5.42564 16.406 3.89754 14.8866C2.36956 13.3673 1.59208 11.2844 1.56546 8.63787C1.57083 6.1407 2.36606 4.09047 3.95113 2.48706C5.53621 0.883774 7.87833 0.0546898 10.9777 0.000164816L13.0828 0.16409L14.9808 0.637769L14.1525 4.26502C13.5544 3.95772 12.5766 3.78691 11.2193 3.75281C9.82103 3.7771 8.71827 4.2154 7.91125 5.06795C7.10412 5.9205 6.69991 7.04217 6.6984 8.43285C6.73155 9.95803 7.18305 11.1181 8.053 11.9131C8.92294 12.7081 10.0129 13.1081 11.3227 13.1131C12.5479 13.1017 13.5487 12.9195 14.3251 12.5665ZM17.7968 16.8659V5.616L17.6588 0.34518H22.1106L22.3176 2.5988H22.4212C22.7752 2.02413 23.3709 1.45775 24.2083 0.899652C25.0455 0.341677 26.1938 0.0417299 27.6528 0.000164816C28.7728 0.0105561 29.7329 0.264617 30.533 0.76223C31.3332 1.25996 31.9189 1.93878 32.2904 2.79868H32.3594C33.0084 1.93247 33.7268 1.26615 34.5146 0.799825C35.3918 0.283415 36.4181 0.0168609 37.5933 0.000164816C39.2385 -0.0111605 40.1241 0.561178 41.1742 1.71694C42.2243 2.87271 42.7668 4.67962 42.8017 7.1378V16.8659H37.6942V7.88095C37.6963 6.67404 37.5018 5.74373 37.1107 5.09013C36.7195 4.43642 36.5816 4.10565 35.7726 4.09794C35.1761 4.11125 34.6808 4.2872 34.2871 4.62568C33.8933 4.96404 33.605 5.38482 33.4222 5.88792L33.2567 7.20528V16.8659H28.1492V7.57692C28.1529 6.53043 27.9505 5.69306 27.5422 5.0648C27.1339 4.43642 26.4975 4.11406 25.6329 4.09794C24.9435 4.12328 24.3912 4.32585 23.9763 4.70589C23.5614 5.08581 23.2749 5.49107 23.1169 5.92179C22.9575 6.34398 22.8866 6.78309 22.9043 7.23914V16.8659H17.7968Z" fill="black"/>
<path d="M3.69731 22H0V32.24H44.3672V22H40.6699V28.144H3.69731V22Z" fill="#A4814E"/>
</svg>
