<svg id="Шар_1" data-name="Шар 1" xmlns="http://www.w3.org/2000/svg" xmlns:xlink="http://www.w3.org/1999/xlink" viewBox="0 0 222.57 25.56"><defs><style>.cls-1{fill:none;}.cls-2{clip-path:url(#clip-path);}.cls-3{fill:#fff;}</style><clipPath id="clip-path"><polygon class="cls-1" points="-56.1 -9 223.34 -9 223.34 37.33 -56.1 37 -56.1 -9"/></clipPath></defs><title>grandex_v2</title><g class="cls-2"><path class="cls-3" d="M16.49,14.29h5.83V15s-1.72-.19-1.72.82v5.59s-2.49,4.07-8.85,4.07A11.22,11.22,0,0,1,.18,14C.18,7,4.87,2.48,11.51,2.48s7.7,2.39,7.7,2.39l.53,4.4-.86,0S17.78,4,11.51,4,3.05,9.41,3.05,14.1,6.06,24,11.66,24s6.4-2.49,6.4-2.49V15.53A1.9,1.9,0,0,0,16.49,15Z"/><path class="cls-3" d="M34.32,25.19v-.91h1.53a2,2,0,0,0,.81-1.77V5.63A2.32,2.32,0,0,0,34.23,4V3.24H44.46a6,6,0,0,1,4.59,6.17,6,6,0,0,1-4.64,6.12s5.64,8.8,9.47,8.8v.81H50.29a11.79,11.79,0,0,1-5.16-4.64c-2.35-3.63-3-5.88-6.22-5.88v7.84s0,1.77,1.1,1.77H41.4v.86Zm8-11.24c1.63,0,3.88-1.19,3.88-4.83a4.44,4.44,0,0,0-2.78-4.49h-4.4V14S40.73,14,42.35,14Z"/><path class="cls-3" d="M84.62,24.28Zm-3.1-2.2L73.72,3.19h-.57S65.93,21,65.4,22.56a2.42,2.42,0,0,1-1.72,1.77H62.2v.81l6.5.05v-1h-.81c-1.44,0-.67-1.49-.67-1.49l1.91-4.83,8.08.1c.77,2,1.39,3.63,1.58,4.16.67,1.72-.48,2.15-.48,2.15H77.4v.86h7.22v-.86a5.49,5.49,0,0,1-.86,0C82.66,24.33,81.52,22.08,81.52,22.08ZM69.75,16.25l3.3-8.42.34.15s1.67,4.39,3.15,8.32Z"/><path class="cls-3" d="M94.71,25.19v-.81h1.34s1.15.14,1.15-1.87V3.29h.53L113.46,20V6s-.29-1.39-1.1-1.39h-1.29V3.72h6.55v.76h-1.48s-1,0-1,1.58v19h-.43L99.11,8.84V22.56s0,1.67,1.2,1.67h1v1Z"/><path class="cls-3" d="M130.62,25.19v-1h1s1.53.19,1.53-1.92v-17A1.82,1.82,0,0,0,131.25,4h-.53V3.19h13.05s9,1.39,9,11a10.45,10.45,0,0,1-9.85,11C141.48,25.09,130.62,25.19,130.62,25.19Zm11.72-1.29c1.82,0,7.65-2.15,7.65-10a9.5,9.5,0,0,0-6.74-9.57h-7.61V23.8S140.52,23.9,142.34,23.9Z"/><path class="cls-3" d="M164.43,4.15V3.43l11.67-.24,1.53-.48v4.4H177s.19-2.39-1.87-2.39H169.4v9h5.36s.76-.24.76-1.77h.72v5h-.67V15.72a1.33,1.33,0,0,0-1.19-.72h-5v8.9h5.45s3.21-1.34,3.88-4h.76l-1.86,5.31h-13.2v-.72a2.09,2.09,0,0,0,2.44-2.25V5.11S166.68,4.15,164.43,4.15Z"/><path class="cls-3" d="M191.69,4.15V3.24h7.79V4h-.91s-1.72.28-.43,2,3.68,5.65,3.68,5.65h.48l3.88-6.22s.62-1.58-1.58-1.58V3.29H212V4h-1.53A4.06,4.06,0,0,0,208,6c-1.1,1.82-4.88,7.18-4.88,7.18l.05.33L209,22.75a3.79,3.79,0,0,0,3.3,1.53V25h-7.56v-.71h.86s1.06-.39,0-2.25-4-6.36-4-6.36l-.28,0-4,6.6s-1.19,1.91.53,1.91h.67v.86h-7.37v-1h1.39a2.83,2.83,0,0,0,2.2-1.49c.81-1.43,5.4-8,5.4-8l.1-1-4.83-7.75S194.6,4.15,191.69,4.15Z"/><path class="cls-3" d="M222.52,4.25a4.27,4.27,0,0,1-8.54,0A4.26,4.26,0,0,1,218.36.1,4.21,4.21,0,0,1,222.52,4.25Zm-7.51,0a3.24,3.24,0,1,0,6.47,0,3.24,3.24,0,1,0-6.47,0Zm2.54,2.19h-.92V2.29c.35,0,.92-.12,1.62-.12s1.15.12,1.38.35a1.19,1.19,0,0,1,.46.92c0,.46-.34.81-.92,1,.46.12.58.46.69,1a2.53,2.53,0,0,0,.35,1h-1a2.53,2.53,0,0,1-.35-1,.76.76,0,0,0-.81-.69h-.46Zm0-2.42H218c.58,0,.93-.23.93-.58s-.23-.69-.93-.69h-.57V4Z"/></g></svg>