<svg width="98" height="37" viewBox="0 0 98 37" fill="none" xmlns="http://www.w3.org/2000/svg">
<path d="M16.616 36.72C14.376 36.72 12.272 36.328 10.304 35.544C8.352 34.744 6.632 33.576 5.144 32.04C3.672 30.504 2.52 28.624 1.688 26.4C0.856 24.16 0.44 21.6 0.44 18.72C0.44 14.944 1.144 11.72 2.552 9.048C3.96 6.36 5.888 4.304 8.336 2.88C10.784 1.44 13.544 0.719999 16.616 0.719999C20.872 0.719999 24.24 1.712 26.72 3.696C29.216 5.664 30.904 8.432 31.784 12L25.88 12.936C25.224 10.888 24.152 9.256 22.664 8.04C21.176 6.808 19.28 6.192 16.976 6.192C14.656 6.16 12.728 6.664 11.192 7.704C9.656 8.744 8.496 10.208 7.712 12.096C6.944 13.984 6.56 16.192 6.56 18.72C6.56 21.248 6.944 23.448 7.712 25.32C8.48 27.176 9.632 28.624 11.168 29.664C12.72 30.704 14.656 31.24 16.976 31.272C18.72 31.288 20.248 30.976 21.56 30.336C22.872 29.68 23.944 28.696 24.776 27.384C25.608 26.056 26.168 24.4 26.456 22.416H20.36V17.88H32.6C32.632 18.136 32.656 18.512 32.672 19.008C32.688 19.504 32.696 19.8 32.696 19.896C32.696 23.16 32.048 26.064 30.752 28.608C29.472 31.136 27.632 33.12 25.232 34.56C22.832 36 19.96 36.72 16.616 36.72ZM47.2828 36V6.864H36.0988V1.44H64.2508V6.864H53.0668V36H47.2828ZM78.2641 36L67.3681 1.44H73.3201L82.4401 30.384L91.6801 1.44H97.6321L86.7361 36H78.2641Z" fill="#017EEC"/>
</svg>
