<svg width="183" height="40" viewBox="0 0 183 40" fill="none" xmlns="http://www.w3.org/2000/svg">
<g clip-path="url(#clip0_228_60)">
<path d="M48.9016 24.1663V0.435427H53.1357V20.6103H63.0638V24.1663H48.9016ZM67.2231 24.1663V0.435427H71.4572V24.1663H67.2231ZM86.7955 24.6017C84.7272 24.6017 82.9022 24.1057 81.3204 23.114C79.7388 22.098 78.4978 20.6708 77.5974 18.8323C76.7214 16.9696 76.2834 14.7562 76.2834 12.192C76.2834 9.62776 76.7214 7.43856 77.5974 5.62428C78.4978 3.80999 79.7388 2.41908 81.3204 1.45143C82.9022 0.483777 84.7272 0 86.7955 0C88.8883 0 90.7254 0.483777 92.3071 1.45143C93.8888 2.41908 95.1176 3.80999 95.9937 5.62428C96.894 7.43856 97.3442 9.62776 97.3442 12.192C97.3442 14.7562 96.894 16.9696 95.9937 18.8323C95.1176 20.6708 93.8888 22.098 92.3071 23.114C90.7254 24.1057 88.8883 24.6017 86.7955 24.6017ZM86.7955 20.9368C88.6693 20.9368 90.1658 20.1506 91.285 18.5783C92.4044 16.9817 92.9641 14.8529 92.9641 12.192C92.9641 9.53107 92.4044 7.45062 91.285 5.95085C90.1658 4.42685 88.6693 3.66485 86.7955 3.66485C84.9218 3.66485 83.4253 4.42685 82.306 5.95085C81.1867 7.45062 80.6269 9.53107 80.6269 12.192C80.6269 14.8529 81.1867 16.9817 82.306 18.5783C83.4253 20.1506 84.9218 20.9368 86.7955 20.9368ZM102.119 24.1663V0.435427H106.463L113.909 13.7886L116.354 18.8323H116.5C116.404 17.6228 116.281 16.3043 116.135 14.8771C116.014 13.4499 115.953 12.0711 115.953 10.7406V0.435427H120.004V24.1663H115.661L108.215 10.8131L105.769 5.76942H105.623C105.721 7.02736 105.83 8.3457 105.952 9.72456C106.098 11.1034 106.171 12.458 106.171 13.7886V24.1663H102.119ZM126.073 24.1663V0.435427H130.307V20.6103H140.235V24.1663H126.073ZM152.125 24.6017C150.3 24.6017 148.706 24.2388 147.343 23.5131C145.981 22.7874 144.922 21.6263 144.168 20.0297C143.438 18.4331 143.073 16.3406 143.073 13.7523V0.435427H147.307V14.0788C147.307 15.7963 147.502 17.1631 147.891 18.1791C148.305 19.1709 148.876 19.8845 149.606 20.32C150.336 20.7312 151.176 20.9368 152.125 20.9368C153.098 20.9368 153.95 20.7312 154.68 20.32C155.434 19.8845 156.018 19.1709 156.432 18.1791C156.87 17.1631 157.089 15.7963 157.089 14.0788V0.435427H161.14V13.7523C161.14 16.3406 160.775 18.4331 160.045 20.0297C159.315 21.6263 158.27 22.7874 156.906 23.5131C155.569 24.2388 153.974 24.6017 152.125 24.6017ZM164.189 24.1663L170.978 11.938L164.627 0.435427H169.335L171.963 5.69685C172.255 6.22907 172.535 6.79748 172.803 7.40228C173.095 7.98285 173.423 8.62393 173.788 9.32542H173.934C174.226 8.62393 174.493 7.98285 174.737 7.40228C175.004 6.79748 175.273 6.22907 175.54 5.69685L178.059 0.435427H182.548L176.197 12.1194L182.986 24.1663H178.278L175.358 18.5783C175.041 17.9493 174.725 17.3325 174.409 16.7277C174.117 16.0988 173.788 15.4214 173.423 14.6957H173.277C172.96 15.4214 172.657 16.0988 172.365 16.7277C172.097 17.3325 171.817 17.9493 171.525 18.5783L168.678 24.1663H164.189Z" fill="white"/>
<path d="M58.4092 33.0623L57.6799 35.1853H61.7427L61.0135 33.0623C60.782 32.3833 60.5621 31.7332 60.3537 31.1119C60.1454 30.4905 59.9429 29.8288 59.7461 29.127H59.6766C59.4798 29.8288 59.2773 30.4905 59.0689 31.1119C58.8606 31.7332 58.6407 32.3833 58.4092 33.0623ZM55.2839 39.7592L59.312 28.3848H60.1107L64.1387 39.7592H63.3053L61.9684 35.8584H57.4369L56.0826 39.7592H55.2839ZM68.3651 39.7592V29.0752H64.719V28.3848H72.8098V29.0752H69.1637V39.7592H68.3651ZM75.6992 39.7592V28.3848H81.967V29.0752H76.4978V33.373H81.0815V34.0634H76.4978V39.0688H82.1406V39.7592H75.6992ZM84.5131 39.9664C84.3974 39.9664 84.2759 39.9549 84.1485 39.9318C84.0213 39.9088 83.8881 39.8743 83.7492 39.8283L83.9575 39.0688C84.0502 39.0919 84.1312 39.1148 84.2006 39.1379C84.2817 39.1494 84.3627 39.1551 84.4437 39.1551C84.652 39.1551 84.843 39.0861 85.0166 38.948C85.2019 38.7985 85.3812 38.4935 85.5549 38.0332C85.7285 37.573 85.9079 36.871 86.0931 35.9275C86.3246 34.6617 86.5503 33.4247 86.7702 32.2165C86.9902 31.0083 87.2159 29.7311 87.4474 28.3848H92.6213V39.7592H91.8227V29.0752H88.0898C87.8699 30.2489 87.6615 31.4111 87.4647 32.5617C87.2796 33.7009 87.077 34.8516 86.857 36.0138C86.6603 37.107 86.452 37.9411 86.232 38.5165C86.0121 39.0803 85.7632 39.4658 85.4854 39.6729C85.2076 39.8686 84.8836 39.9664 84.5131 39.9664ZM96.6887 39.7592V28.3848H97.4873V33.3384H99.9527C101.192 33.3384 102.181 33.5801 102.922 34.0634C103.663 34.5467 104.033 35.3234 104.033 36.3935C104.033 37.5096 103.68 38.3497 102.973 38.9135C102.279 39.4773 101.289 39.7592 100.005 39.7592H96.6887ZM97.4873 39.0861H99.8136C100.948 39.0861 101.799 38.8732 102.366 38.4475C102.945 38.0217 103.234 37.3486 103.234 36.428C103.234 35.5765 102.939 34.9609 102.349 34.5812C101.77 34.2015 100.902 34.0116 99.7445 34.0116H97.4873V39.0861ZM107.251 39.7592V28.3848H113.519V29.0752H108.05V33.373H112.633V34.0634H108.05V39.0688H113.693V39.7592H107.251ZM121.052 39.7592V28.3848H122.18L124.576 35.0645C124.727 35.4787 124.878 35.8987 125.027 36.3245C125.178 36.7387 125.328 37.1587 125.479 37.5845H125.548C125.699 37.1587 125.843 36.7387 125.982 36.3245C126.121 35.8987 126.266 35.4787 126.416 35.0645L128.795 28.3848H129.941V39.7592H129.16V32.2856C129.16 31.8138 129.172 31.3017 129.194 30.7494C129.218 30.1971 129.241 29.6851 129.263 29.2133H129.194L128.309 31.7505L125.843 38.5165H125.149L122.666 31.7505L121.763 29.2133H121.694C121.717 29.6851 121.74 30.1971 121.763 30.7494C121.787 31.3017 121.798 31.8138 121.798 32.2856V39.7592H121.052ZM134.005 39.7592V28.3848H140.273V29.0752H134.804V33.373H139.387V34.0634H134.804V39.0688H140.446V39.7592H134.005ZM143.635 39.7592V28.3848H150.285V29.0752H144.434V33.373H146.968C148.207 33.373 149.197 33.6146 149.937 34.0979C150.678 34.5697 151.048 35.3406 151.048 36.4108C151.048 37.5269 150.701 38.367 150.007 38.9308C149.324 39.4831 148.334 39.7592 147.038 39.7592H143.635ZM144.434 39.1034H146.829C147.963 39.1034 148.815 38.8904 149.382 38.4647C149.96 38.0274 150.25 37.3543 150.25 36.4453C150.25 35.5937 149.954 34.9782 149.364 34.5984C148.785 34.2187 147.917 34.0289 146.76 34.0289H144.434V39.1034ZM154.197 39.7592V28.3848H160.465V29.0752H154.996V33.373H159.579V34.0634H154.996V39.0688H160.639V39.7592H154.197ZM163.012 39.9664C162.895 39.9664 162.774 39.9549 162.647 39.9318C162.519 39.9088 162.386 39.8743 162.247 39.8283L162.456 39.0688C162.548 39.0919 162.63 39.1148 162.699 39.1379C162.78 39.1494 162.861 39.1551 162.941 39.1551C163.151 39.1551 163.341 39.0861 163.515 38.948C163.7 38.7985 163.88 38.4935 164.053 38.0332C164.227 37.573 164.406 36.871 164.591 35.9275C164.823 34.6617 165.049 33.4247 165.269 32.2165C165.489 31.0083 165.714 29.7311 165.945 28.3848H171.12V39.7592H170.32V29.0752H166.588C166.368 30.2489 166.159 31.4111 165.963 32.5617C165.778 33.7009 165.575 34.8516 165.355 36.0138C165.158 37.107 164.95 37.9411 164.73 38.5165C164.51 39.0803 164.261 39.4658 163.983 39.6729C163.706 39.8686 163.381 39.9664 163.012 39.9664ZM175.187 39.7592V28.3848H175.985V35.3579C175.985 35.9102 175.974 36.4625 175.95 37.0149C175.928 37.5672 175.904 38.1195 175.881 38.6718H175.95L177.253 36.428L182.149 28.3848H183V39.7592H182.201V32.6998C182.201 32.1475 182.213 31.6066 182.235 31.0774C182.271 30.5481 182.294 30.013 182.305 29.4722H182.235L180.951 31.716L176.037 39.7592H175.187Z" fill="#A4814E"/>
<g clip-path="url(#clip1_228_60)">
<path d="M11.1017 0.800293H0V30.3785H1.43248V18.4403H11.1017V0.800293Z" fill="white" stroke="white"/>
<path d="M39.3929 0.800293H22.5613V3.29484H31.8724V18.2621H39.3929V0.800293Z" fill="white" stroke="white"/>
<path d="M14.6829 32.1606V4.18604H18.2641V35.7242H0.358154L2.50687 32.1606H14.6829Z" fill="white" stroke="white"/>
<path d="M24.7103 13.9858H21.1292V35.724H39.0351L36.7074 32.1604H24.7103V13.9858Z" fill="white" stroke="white"/>
<path d="M1.43248 37.5059H0V40.0004H39.3932V38.9313H1.43248V37.5059Z" fill="white" stroke="white"/>
</g>
</g>
<defs>
<clipPath id="clip0_228_60">
<rect width="183" height="40" fill="white"/>
</clipPath>
<clipPath id="clip1_228_60">
<rect width="39.5941" height="39.4" fill="white" transform="translate(0 0.600098)"/>
</clipPath>
</defs>
</svg>
