<?xml version="1.0" encoding="utf-8"?>
<!-- Generator: Adobe Illustrator 16.0.4, SVG Export Plug-In . SVG Version: 6.00 Build 0)  -->
<!DOCTYPE svg PUBLIC "-//W3C//DTD SVG 1.1//EN" "http://www.w3.org/Graphics/SVG/1.1/DTD/svg11.dtd">
<svg version="1.1" id="Livello_1" xmlns="http://www.w3.org/2000/svg" xmlns:xlink="http://www.w3.org/1999/xlink" x="0px" y="0px"
	 width="164px" height="34px" viewBox="0 0 164 34" enable-background="new 0 0 164 34" xml:space="preserve">
<g>
	<path fill="#FFFFFF" d="M0.438,1.263C2,1.388,2.191,1.83,2.191,2.392v29.215c0,0.562-0.192,0.998-1.754,1.123v0.76h12.886v-0.76
		c-1.564-0.125-1.748-0.561-1.748-1.123V2.392c0-0.562,0.184-1.004,1.748-1.129V0.51H0.438V1.263z M43.129,1.263
		c0.811,0.065,1.311,0.376,1.311,1.129v16.737C40.065,14.3,29.25,2.771,29.25,2.076c0-0.37,0.311-0.748,1.748-0.813V0.51h-15.07
		v0.753c1.564,0.125,1.749,0.567,1.749,1.129v29.215c0,0.562-0.185,0.998-1.749,1.123v0.76h11.885v-0.76
		c-1.568-0.125-1.754-0.561-1.754-1.123V11.92C42.564,30.418,44.131,31.23,44.131,32.045c0,0.438-0.316,0.686-1.443,0.686v0.76
		h11.883v-0.76c-1.563-0.125-1.747-0.561-1.747-1.123V2.392c0-0.562,0.184-1.004,1.747-1.129V0.51H43.129V1.263z M94.067,17
		c0-10.973-8.875-16.862-19.508-16.862C63.927,0.138,55.054,6.027,55.054,17c0,10.968,8.873,16.861,19.505,16.861
		C85.192,33.861,94.067,27.969,94.067,17 M74.559,26.213c-5.433,0-10.256-3.318-10.256-9.212c0-5.894,4.823-9.216,10.256-9.216
		c5.442,0,10.254,3.323,10.254,9.216C84.813,22.895,80.001,26.213,74.559,26.213 M161.81,30.855
		c-3.877-9.529-11.565-28.277-11.565-28.779c0-0.621,0.439-0.748,1.13-0.813V0.51h-16.33v0.753c0.567,0.065,1.253,0.192,1.253,0.627
		c0,0.35-9.041,23.983-10.833,28.649l-11.218-14.233l11.507-14.29c0.312-0.377,0.876-0.688,1.562-0.753V0.51h-14.317v0.753
		c0.502,0,1.313,0.125,1.313,0.813c0,0.567-4.818,5.898-5.753,7.149c-0.627-0.873-5.755-6.712-5.755-7.149
		c0-0.621,0.502-0.748,1.503-0.813V0.51H89.676v0.753c0.37,0,0.869,0.125,1.431,0.813l11.632,14.673L90.234,31.668
		c-0.628,0.748-1,1.062-1.436,1.062v0.76h14.439v-0.76c-0.5,0-1.498,0-1.498-0.686c0-0.873,5.816-6.957,6.687-8.213
		c2.629,3.449,6.194,7.9,6.194,8.584c0,0.314-0.566,0.314-1.186,0.314v0.76h21.173v-0.76c-0.875,0-1.126-0.248-1.126-0.621
		c0-0.377,0.381-1.189,2.002-5.773h14.817c0.251,0.818,2.129,5.396,2.129,5.645c0,0.381-0.311,0.686-1.187,0.75v0.76h12.318v-0.76
		C162.812,32.73,162.438,32.361,161.81,30.855 M137.048,21.326l5.565-14.923l6.067,14.923H137.048z"/>
</g>
</svg>
