<svg width="911" height="200" viewBox="0 0 911 200" fill="none" xmlns="http://www.w3.org/2000/svg">
<g clip-path="url(#clip0_133_73)">
<path d="M243.309 120.831V2.17714H264.376V103.051H313.773V120.831H243.309ZM334.468 120.831V2.17714H355.534V120.831H334.468ZM431.85 123.008C421.559 123.008 412.479 120.529 404.609 115.57C396.739 110.49 390.565 103.354 386.085 94.1613C381.726 84.8481 379.547 73.781 379.547 60.9599C379.547 48.1388 381.726 37.1928 386.085 28.1214C390.565 19.05 396.739 12.0954 404.609 7.25713C412.479 2.41888 421.559 0 431.85 0C442.262 0 451.403 2.41888 459.272 7.25713C467.142 12.0954 473.256 19.05 477.615 28.1214C482.095 37.1928 484.335 48.1388 484.335 60.9599C484.335 73.781 482.095 84.8481 477.615 94.1613C473.256 103.354 467.142 110.49 459.272 115.57C451.403 120.529 442.262 123.008 431.85 123.008ZM431.85 104.684C441.173 104.684 448.618 100.753 454.187 92.8913C459.757 84.9085 462.541 74.2645 462.541 60.9599C462.541 47.6553 459.757 37.2531 454.187 29.7542C448.618 22.1343 441.173 18.3243 431.85 18.3243C422.527 18.3243 415.082 22.1343 409.512 29.7542C403.943 37.2531 401.158 47.6553 401.158 60.9599C401.158 74.2645 403.943 84.9085 409.512 92.8913C415.082 100.753 422.527 104.684 431.85 104.684ZM508.092 120.831V2.17714H529.704L566.751 68.9428L578.919 94.1613H579.645C579.164 88.1138 578.556 81.5216 577.829 74.3856C577.226 67.2496 576.921 60.3553 576.921 53.7028V2.17714H597.08V120.831H575.468L538.421 54.0656L526.253 28.8471H525.527C526.012 35.1368 526.557 41.7285 527.161 48.6228C527.887 55.5171 528.251 62.2902 528.251 68.9428V120.831H508.092ZM627.276 120.831V2.17714H648.342V103.051H697.739V120.831H627.276ZM756.894 123.008C747.813 123.008 739.887 121.194 733.103 117.566C726.325 113.937 721.058 108.131 717.304 100.148C713.671 92.1656 711.855 81.7031 711.855 68.7613V2.17714H732.922V70.3942C732.922 78.9816 733.894 85.8156 735.827 90.8956C737.889 95.8545 740.731 99.4227 744.363 101.6C747.995 103.656 752.172 104.684 756.894 104.684C761.738 104.684 765.974 103.656 769.606 101.6C773.361 99.4227 776.267 95.8545 778.323 90.8956C780.503 85.8156 781.592 78.9816 781.592 70.3942V2.17714H801.751V68.7613C801.751 81.7031 799.935 92.1656 796.303 100.148C792.67 108.131 787.468 113.937 780.684 117.566C774.029 121.194 766.097 123.008 756.894 123.008ZM816.917 120.831L850.696 59.6899L819.097 2.17714H842.524L855.6 28.4842C857.053 31.1454 858.447 33.9874 859.777 37.0114C861.23 39.9142 862.864 43.1196 864.68 46.6271H865.406C866.859 43.1196 868.19 39.9142 869.402 37.0114C870.732 33.9874 872.067 31.1454 873.397 28.4842L885.928 2.17714H908.266L876.666 60.5971L910.445 120.831H887.018L872.489 92.8913C870.914 89.7467 869.343 86.6624 867.767 83.6385C866.315 80.4939 864.68 77.107 862.864 73.4785H862.138C860.562 77.107 859.05 80.4939 857.597 83.6385C856.267 86.6624 854.873 89.7467 853.42 92.8913L839.255 120.831H816.917Z" fill="white"/>
<path d="M290.614 165.312L286.986 175.927H307.201L303.572 165.312C302.42 161.917 301.326 158.666 300.29 155.56C299.253 152.453 298.245 149.144 297.266 145.635H296.921C295.941 149.144 294.934 152.453 293.897 155.56C292.86 158.666 291.766 161.917 290.614 165.312ZM275.065 198.796L295.106 141.924H299.08L319.122 198.796H314.975L308.324 179.292H285.777L279.039 198.796H275.065ZM340.15 198.796V145.376H322.009V141.924H362.265V145.376H344.124V198.796H340.15ZM376.641 198.796V141.924H407.826V145.376H380.614V166.865H403.42V170.317H380.614V195.344H408.69V198.796H376.641ZM420.494 199.832C419.919 199.832 419.314 199.775 418.68 199.659C418.047 199.544 417.384 199.372 416.693 199.142L417.73 195.344C418.191 195.46 418.594 195.574 418.939 195.69C419.343 195.747 419.746 195.776 420.149 195.776C421.185 195.776 422.136 195.431 423 194.74C423.921 193.993 424.814 192.468 425.677 190.166C426.541 187.865 427.434 184.355 428.355 179.638C429.507 173.309 430.63 167.124 431.725 161.083C432.819 155.042 433.942 148.656 435.094 141.924H460.837V198.796H456.863V145.376H438.29C437.196 151.245 436.159 157.056 435.18 162.809C434.259 168.505 433.251 174.258 432.156 180.069C431.178 185.535 430.141 189.706 429.047 192.583C427.952 195.402 426.714 197.329 425.332 198.365C423.95 199.343 422.337 199.832 420.494 199.832ZM481.073 198.796V141.924H485.047V166.692H497.314C503.478 166.692 508.401 167.901 512.088 170.317C515.774 172.734 517.614 176.617 517.614 181.968C517.614 187.548 515.857 191.749 512.343 194.568C508.887 197.387 503.964 198.796 497.574 198.796H481.073ZM485.047 195.431H496.622C502.266 195.431 506.502 194.366 509.319 192.238C512.2 190.109 513.639 186.743 513.639 182.14C513.639 177.883 512.171 174.805 509.236 172.906C506.355 171.008 502.035 170.058 496.278 170.058H485.047V195.431ZM533.625 198.796V141.924H564.812V145.376H537.601V166.865H560.405V170.317H537.601V195.344H565.676V198.796H533.625ZM602.292 198.796V141.924H607.907L619.825 175.323C620.576 177.394 621.327 179.494 622.073 181.623C622.824 183.694 623.57 185.794 624.321 187.923H624.664C625.415 185.794 626.132 183.694 626.824 181.623C627.516 179.494 628.237 177.394 628.984 175.323L640.817 141.924H646.521V198.796H642.634V161.428C642.634 159.069 642.692 156.509 642.805 153.747C642.923 150.986 643.036 148.426 643.149 146.066H642.805L638.398 158.753L626.132 192.583H622.676L610.322 158.753L605.831 146.066H605.488C605.6 148.426 605.718 150.986 605.831 153.747C605.949 156.509 606.003 159.069 606.003 161.428V198.796H602.292ZM666.738 198.796V141.924H697.926V145.376H670.714V166.865H693.518V170.317H670.714V195.344H698.789V198.796H666.738ZM714.653 198.796V141.924H747.74V145.376H718.629V166.865H731.238C737.403 166.865 742.326 168.073 746.012 170.49C749.698 172.849 751.539 176.703 751.539 182.054C751.539 187.635 749.811 191.835 746.356 194.654C742.959 197.416 738.036 198.796 731.587 198.796H714.653ZM718.629 195.517H730.546C736.191 195.517 740.426 194.452 743.249 192.324C746.125 190.137 747.568 186.772 747.568 182.227C747.568 177.969 746.095 174.891 743.16 172.992C740.279 171.094 735.96 170.144 730.202 170.144H718.629V195.517ZM767.206 198.796V141.924H798.393V145.376H771.182V166.865H793.986V170.317H771.182V195.344H799.257V198.796H767.206ZM811.062 199.832C810.483 199.832 809.879 199.775 809.246 199.659C808.612 199.544 807.95 199.372 807.258 199.142L808.298 195.344C808.755 195.46 809.162 195.574 809.506 195.69C809.908 195.747 810.311 195.776 810.713 195.776C811.754 195.776 812.701 195.431 813.565 194.74C814.488 193.993 815.381 192.468 816.245 190.166C817.109 187.865 818.002 184.355 818.92 179.638C820.073 173.309 821.197 167.124 822.292 161.083C823.386 155.042 824.505 148.656 825.659 141.924H851.403V198.796H847.427V145.376H828.854C827.76 151.245 826.724 157.056 825.747 162.809C824.825 168.505 823.818 174.258 822.724 180.069C821.742 185.535 820.706 189.706 819.612 192.583C818.517 195.402 817.281 197.329 815.896 198.365C814.517 199.343 812.902 199.832 811.062 199.832ZM871.64 198.796V141.924H875.611V176.79C875.611 179.551 875.557 182.313 875.439 185.075C875.326 187.836 875.208 190.598 875.095 193.359H875.439L881.918 182.14L906.278 141.924H910.514V198.796H906.538V163.499C906.538 160.738 906.597 158.033 906.71 155.387C906.886 152.741 906.999 150.065 907.058 147.361H906.71L900.319 158.58L875.871 198.796H871.64Z" fill="white"/>
<g clip-path="url(#clip1_133_73)">
<path d="M55.2364 4H0V151.891H7.12727V92.2H55.2364V4Z" fill="white" stroke="white"/>
<path d="M195.999 4H112.254V16.4727H158.581V91.3091H195.999V4Z" fill="white" stroke="white"/>
<path d="M73.0542 160.8V20.9275H90.8724V178.618H1.78149L12.4724 160.8H73.0542Z" fill="white" stroke="white"/>
<path d="M122.946 69.9275H105.127V178.618H194.218L182.637 160.8H122.946V69.9275Z" fill="white" stroke="white"/>
<path d="M7.12727 187.527H0V200H196V194.655H7.12727V187.527Z" fill="white" stroke="white"/>
</g>
</g>
<defs>
<clipPath id="clip0_133_73">
<rect width="910.514" height="200" fill="white"/>
</clipPath>
<clipPath id="clip1_133_73">
<rect width="197" height="197" fill="white" transform="translate(0 3)"/>
</clipPath>
</defs>
</svg>
