<svg width="561" height="436" viewBox="0 0 561 436" fill="none" xmlns="http://www.w3.org/2000/svg">
<g clip-path="url(#clip0_234_3)">
<mask id="mask0_234_3" style="mask-type:luminance" maskUnits="userSpaceOnUse" x="-57" y="0" width="618" height="464">
<path d="M560.388 0H-57V464H560.388V0Z" fill="white"/>
</mask>
<g mask="url(#mask0_234_3)">
<mask id="mask1_234_3" style="mask-type:alpha" maskUnits="userSpaceOnUse" x="-58" y="65" width="613" height="374">
<path d="M122.888 71C-2.2439 41.8158 -42.568 150.049 -47.1043 207.906C-47.1094 207.97 -47.1212 208.034 -47.1384 208.096C-94.2341 377.918 38.7475 421.783 111.262 422.499C111.348 422.5 111.426 422.51 111.509 422.533C205.569 448.176 416.428 459.532 508.388 300C600.328 140.504 533.143 83.907 487.977 75.5163C487.917 75.5052 487.862 75.5 487.801 75.5C418.744 75.5209 248.035 100.188 122.888 71Z" fill="#D9D9D9" stroke="black"/>
</mask>
<g mask="url(#mask1_234_3)">
<path d="M114.888 411.003V46.9973" stroke="white" stroke-opacity="0.01"/>
<path d="M-4.61169 74.5H551.388" stroke="white" stroke-opacity="0.01"/>
<path d="M180.888 411.003V46.9973" stroke="white" stroke-opacity="0.01"/>
<path d="M-6.61169 140.5H548.388" stroke="white" stroke-opacity="0.01"/>
<path d="M246.888 408.003V43.9973" stroke="white" stroke-opacity="0.01"/>
<path d="M-5.61169 206.5H550.388" stroke="white" stroke-opacity="0.01"/>
<path d="M312.888 411.003V46.9973" stroke="white" stroke-opacity="0.01"/>
<path d="M-12.6117 272.5H543.388" stroke="white" stroke-opacity="0.01"/>
<path d="M378.888 408.003V43.9973" stroke="white" stroke-opacity="0.01"/>
<path d="M-11.6117 338.5H544.388" stroke="white" stroke-opacity="0.01"/>
<path d="M48.888 408.003V43.9973" stroke="white" stroke-opacity="0.01"/>
<path d="M444.888 406.003V41.9973" stroke="white" stroke-opacity="0.01"/>
<path d="M-11.6117 404.5H544.388" stroke="white" stroke-opacity="0.01"/>
<path d="M136.888 411.003V46.9973" stroke="white" stroke-opacity="0.01"/>
<path d="M-4.61169 96.5H551.388" stroke="white" stroke-opacity="0.01"/>
<path d="M202.888 411.003V46.9973" stroke="white" stroke-opacity="0.01"/>
<path d="M-7.61169 162.5H547.388" stroke="white" stroke-opacity="0.01"/>
<path d="M268.888 408.003V43.9973" stroke="white" stroke-opacity="0.01"/>
<path d="M-6.61169 228.5H548.388" stroke="white" stroke-opacity="0.01"/>
<path d="M334.888 411.003V46.9973" stroke="white" stroke-opacity="0.01"/>
<path d="M-13.6117 294.5H541.388" stroke="white" stroke-opacity="0.01"/>
<path d="M400.888 408.003V43.9973" stroke="white" stroke-opacity="0.01"/>
<path d="M-12.6117 360.5H543.388" stroke="white" stroke-opacity="0.01"/>
<path d="M70.888 408.003V43.9973" stroke="white" stroke-opacity="0.01"/>
<path d="M466.888 406.003V41.9973" stroke="white" stroke-opacity="0.01"/>
<path d="M-12.6117 426.5H543.388" stroke="white" stroke-opacity="0.01"/>
<path d="M158.888 414.003V49.9973" stroke="white" stroke-opacity="0.01"/>
<path d="M-10.6117 118.5H545.388" stroke="white" stroke-opacity="0.01"/>
<path d="M224.888 414.003V49.9973" stroke="white" stroke-opacity="0.01"/>
<path d="M-13.6117 184.5H541.388" stroke="white" stroke-opacity="0.01"/>
<path d="M290.888 411.003V46.9973" stroke="white" stroke-opacity="0.01"/>
<path d="M-11.6117 250.5H544.388" stroke="white" stroke-opacity="0.01"/>
<path d="M356.888 414.003V49.9973" stroke="white" stroke-opacity="0.01"/>
<path d="M-19.6117 316.5H536.388" stroke="white" stroke-opacity="0.01"/>
<path d="M422.888 411.003V46.9973" stroke="white" stroke-opacity="0.01"/>
<path d="M-18.6117 382.5H537.388" stroke="white" stroke-opacity="0.01"/>
<path d="M92.888 411.003V46.9973" stroke="white" stroke-opacity="0.01"/>
<path d="M488.888 409.003V44.9973" stroke="white" stroke-opacity="0.01"/>
<path d="M1.88831 136.5L33.8883 150C34.555 150.333 36.4883 151.1 38.8883 151.5C39.6845 151.633 40.2825 151.806 40.7263 151.99C41.6528 152.374 42.3899 153.329 43.202 153.918C46.167 156.066 51.288 160.217 55.388 165C59.425 169.71 62.331 171.921 63.747 172.703C64.155 172.928 64.56 173.171 64.889 173.501L67.301 175.912C67.685 176.297 67.958 176.779 68.09 177.306L69.544 183.124C69.762 183.995 70.359 184.723 71.17 185.107L78.895 188.766C79.221 188.921 79.517 189.133 79.768 189.392L93.004 203.085C93.569 203.67 94.348 204 95.161 204H96.271C97.281 204 98.222 204.508 98.777 205.351L109.583 221.775C110.085 222.54 110.939 223 111.854 223C112.52 223 113.163 223.244 113.661 223.687L116.958 226.617C117.242 226.87 117.572 227.067 117.93 227.196L139.992 235.176C140.575 235.387 141.079 235.773 141.433 236.282L151.952 251.374C152.238 251.785 152.623 252.117 153.071 252.341L155.755 253.683C156.171 253.892 156.631 254 157.097 254H165.068C165.605 254 166.132 254.144 166.594 254.417L175.624 259.753C176.422 260.224 177.392 260.301 178.254 259.96L197.738 252.257C198.166 252.088 198.627 252.019 199.085 252.057L222.557 253.973C222.777 253.991 222.995 254.033 223.206 254.099L290.606 275.1C291.422 275.355 292.082 275.946 292.489 276.698C295.643 282.522 304.024 292.704 305.888 295.5C308.301 299.119 315.369 297.461 317.658 297.041C317.812 297.012 317.962 296.975 318.112 296.929C319.685 296.448 322.626 295.975 323.388 297.5C324.188 299.1 336.722 321.5 342.888 332.5" stroke="#0081DF" stroke-opacity="0.07"/>
<path d="M16.8883 202.5L51.388 163C56.555 156.5 68.388 146.5 79.888 147.5C91.488 147.9 108.055 152.667 114.888 155C143.888 161.5 202.888 174.3 206.888 173.5C211.888 172.5 258.888 168.5 260.888 169.5C262.888 170.5 442.388 207.5 480.388 207.5C510.788 207.5 526.388 207.5 530.388 207.5" stroke="black" stroke-opacity="0.32" stroke-width="2" stroke-dasharray="4 4"/>
<path d="M23.3883 454L173.388 363.5L286.388 301L425.388 226H529.888" stroke="#1B1B1B" stroke-width="5"/>
<path d="M424.888 224.5L155.888 233L142.388 235.786M142.388 235.786L124.388 239.5L100.888 252.5M142.388 235.786L106.888 262.5M100.888 252.5L106.888 262.5M100.888 252.5L68.888 198.5V188L23.3883 122L52.888 106.5L229.888 109.5L415.888 114.5V168.981C415.888 169.856 416.524 170.601 417.388 170.738M106.888 262.5L170.888 364.5M417.388 170.738L475.888 180V186.5L470.999 198.056C470.641 198.904 469.749 199.397 468.84 199.251L442.388 195M417.388 170.738V189.295C417.388 190.277 418.102 191.114 419.072 191.269L442.388 195M442.388 195L438.388 219M438.388 219L435.388 224.5M438.388 219L442.388 225.5" stroke="#1B1B1B" stroke-width="2"/>
<path d="M415.388 227.5L364.888 229L371.388 251.5L415.388 227.5Z" fill="#FFB931" fill-opacity="0.02"/>
<path d="M78.388 142L75.888 146C76.688 144.8 83.222 144.833 86.388 145L122.888 155L128.888 151.5L127.388 149L103.388 143L78.388 142Z" fill="#FFB931" fill-opacity="0.02"/>
<path d="M150.695 156.447L152.551 153.106C152.754 152.742 153.162 152.541 153.574 152.603L199.137 159.462C199.302 159.487 199.47 159.47 199.627 159.413L210.153 155.586C210.307 155.529 210.473 155.512 210.636 155.535L227.446 157.937C227.727 157.977 227.979 158.135 228.136 158.372L230.348 161.69C230.649 162.141 230.536 162.749 230.093 163.062L222.721 168.265C222.508 168.416 222.244 168.477 221.986 168.435L195.081 164.111C194.665 164.044 194.252 164.245 194.048 164.613L192.245 167.859C192.033 168.24 191.597 168.44 191.17 168.353L153.273 160.579C153.026 160.528 152.807 160.386 152.66 160.181L150.756 157.514C150.531 157.2 150.508 156.785 150.695 156.447Z" fill="#FFB931" fill-opacity="0.02"/>
<path d="M266.088 165.618L263.41 162.209C262.763 161.386 261.448 161.983 261.64 163.011L262.262 166.328C262.338 166.733 262.655 167.05 263.06 167.126L343.704 182.277C344.319 182.393 344.888 181.921 344.888 181.295V178.841C344.888 178.355 344.539 177.939 344.06 177.856L275.973 166.015C275.917 166.005 275.859 166 275.802 166H266.874C266.567 166 266.278 165.859 266.088 165.618Z" fill="#FFB931" fill-opacity="0.02"/>
<path d="M223.888 186.5C220.102 185.743 221.393 178.655 222.672 174.648C222.798 174.255 223.16 173.991 223.573 173.976L265.77 172.504C265.849 172.501 265.927 172.508 266.005 172.524L287.727 176.957C288.456 177.106 288.517 178.124 287.811 178.359C287.552 178.446 287.363 178.67 287.322 178.941L286.022 187.606C285.946 188.114 285.498 188.481 284.985 188.456L255.489 187.029C255.119 187.011 254.79 186.791 254.632 186.456L251.159 179.074C250.994 178.724 250.641 178.5 250.254 178.5H247.081C246.664 178.5 246.291 178.759 246.145 179.149L245.021 182.146C244.935 182.374 244.77 182.563 244.555 182.678L237.555 186.411C237.445 186.47 237.327 186.507 237.203 186.521C234.274 186.853 227.804 187.283 223.888 186.5Z" fill="#FFB931" fill-opacity="0.02"/>
<path d="M367.494 261.447L358.283 266.053C357.789 266.3 357.589 266.9 357.836 267.394L359.223 270.169C359.33 270.383 359.356 270.627 359.299 270.859L359.199 271.257C359.041 271.889 359.519 272.5 360.169 272.5H360.196C360.323 272.5 360.449 272.524 360.567 272.572L362.483 273.338C362.741 273.441 363.031 273.432 363.283 273.313L371.465 269.437C371.972 269.197 372.182 268.588 371.931 268.086L368.836 261.894C368.589 261.4 367.988 261.2 367.494 261.447Z" fill="#FFB931" fill-opacity="0.02"/>
<path d="M70.113 152.724L63.249 158.301C62.789 158.675 62.753 159.365 63.172 159.784L104.451 201.063C104.719 201.331 105.115 201.424 105.475 201.305L109.988 199.8C110.492 199.632 111.041 199.888 111.235 200.384L120.725 224.584C120.829 224.849 121.041 225.057 121.307 225.156L142.081 232.885C142.28 232.96 142.499 232.968 142.704 232.91L156.268 229.034C156.348 229.012 156.43 228.999 156.513 228.996L221.841 227.032C222.411 227.014 222.852 226.524 222.808 225.955L219.452 182.328C219.415 181.848 219.041 181.462 218.562 181.411L201.102 179.523C200.961 179.508 200.825 179.463 200.703 179.391L192.498 174.565C192.425 174.522 192.349 174.489 192.267 174.467C190.641 174.046 180.425 171.941 150.888 166.5C137.126 163.965 129.744 162.632 126.173 162.01C125.094 161.822 122.094 159.804 121.182 159.196L121.057 159.112C120.946 159.038 120.821 158.987 120.69 158.962L86.981 152.518C86.919 152.506 86.857 152.5 86.794 152.5H70.743C70.514 152.5 70.291 152.579 70.113 152.724Z" fill="#D9D9D9" fill-opacity="0.02"/>
<path d="M50.355 155.23L29.0395 124.441C28.6949 123.943 28.8681 123.255 29.4075 122.98L53.674 110.609C53.815 110.537 53.971 110.5 54.128 110.5H109.598C110.062 110.5 110.464 110.818 110.571 111.268L112.827 120.744C112.867 120.912 112.95 121.066 113.067 121.193L125.741 134.841C125.838 134.946 125.912 135.07 125.957 135.205L129.339 145.353C129.583 146.084 128.943 146.804 128.188 146.648L115.388 144L83.783 136.593C83.53 136.533 83.264 136.575 83.041 136.709L51.692 155.518C51.24 155.789 50.655 155.663 50.355 155.23Z" fill="#D9D9D9" fill-opacity="0.02"/>
<path d="M214.415 112.474L141.915 110.528C141.353 110.512 140.888 110.964 140.888 111.527V147.159C140.888 147.645 141.238 148.061 141.717 148.144L197.217 157.796C197.829 157.903 198.388 157.432 198.388 156.811V155.363C198.388 154.867 198.751 154.446 199.242 154.374L211.035 152.626C211.525 152.554 211.888 152.133 211.888 151.637V118.515C211.888 118.192 212.044 117.889 212.307 117.701L214.97 115.799C215.232 115.611 215.388 115.308 215.388 114.985V113.474C215.388 112.932 214.957 112.488 214.415 112.474Z" fill="#D9D9D9" fill-opacity="0.02"/>
<path d="M321.888 115L244.414 113.026C243.852 113.012 243.388 113.464 243.388 114.026V151C243.388 151.552 243.836 152 244.388 152H258.859C259.19 152 259.5 152.164 259.686 152.438L267.591 164.062C267.777 164.336 268.086 164.5 268.418 164.5H276.802C276.859 164.5 276.917 164.505 276.973 164.515L344.941 176.335C345.47 176.427 345.977 176.085 346.09 175.56L348.719 163.29C348.818 162.829 349.225 162.5 349.697 162.5H380.794C380.857 162.5 380.919 162.506 380.981 162.518L391.296 164.482C391.357 164.494 391.42 164.5 391.483 164.5H411.888C412.441 164.5 412.888 164.052 412.888 163.5V119.462C412.888 118.925 412.464 118.484 411.927 118.463L321.888 115Z" fill="#D9D9D9" fill-opacity="0.02"/>
<path d="M135.998 246.641L112.657 263.447C112.226 263.757 112.112 264.35 112.399 264.797L171.882 357.709C172.166 358.154 172.748 358.3 173.21 358.044L234.514 323.986C234.997 323.717 235.171 323.109 234.903 322.626L225.529 305.753C225.437 305.588 225.394 305.4 225.404 305.211L229.329 235.056C229.361 234.483 228.905 234 228.331 234H220.741C220.513 234 220.291 234.078 220.114 234.221L157.19 284.855C156.751 285.208 156.107 285.129 155.766 284.68L145.523 271.178C145.434 271.061 145.372 270.925 145.342 270.781L141.922 254.659C141.9 254.554 141.86 254.453 141.806 254.36L137.444 246.945C137.146 246.438 136.476 246.297 135.998 246.641Z" fill="#D9D9D9" fill-opacity="0.02"/>
<path d="M282.982 310.501L194.295 359.499C193.8 359.773 193.63 360.403 193.921 360.889L210.894 389.175C211.17 389.636 211.761 389.796 212.232 389.538L299.038 341.966C299.512 341.706 299.694 341.117 299.449 340.636L284.357 310.923C284.101 310.419 283.477 310.227 282.982 310.501Z" fill="#D9D9D9" fill-opacity="0.02"/>
<path d="M427.656 230.5H449.48C449.995 230.5 450.426 230.891 450.475 231.404L455.31 281.682C455.355 282.158 455.059 282.599 454.602 282.736L421.264 292.737C420.768 292.886 420.241 292.632 420.049 292.151L401.71 246.305C401.525 245.843 401.708 245.315 402.139 245.067L427.156 230.634C427.308 230.546 427.481 230.5 427.656 230.5Z" fill="#D9D9D9" fill-opacity="0.02"/>
<path d="M257.029 241.023L245.808 245.339C245.541 245.441 245.331 245.653 245.23 245.921L241.274 256.473C241.067 257.024 241.379 257.634 241.947 257.789L256.307 261.705C256.883 261.862 257.468 261.483 257.559 260.892L258.377 255.576C258.384 255.525 258.388 255.474 258.388 255.424V241.956C258.388 241.254 257.684 240.771 257.029 241.023Z" fill="#D9D9D9" fill-opacity="0.02"/>
<path d="M306.348 187V178.36H307.602V185.818H311.514V187H306.348ZM312.653 179.458V178.24H313.907V179.458H312.653ZM312.653 187V180.52H313.907V187H312.653ZM318.523 187.18C317.875 187.18 317.313 187.034 316.837 186.742C316.361 186.45 315.993 186.048 315.733 185.536C315.477 185.02 315.349 184.426 315.349 183.754C315.349 183.078 315.481 182.484 315.745 181.972C316.009 181.456 316.379 181.056 316.855 180.772C317.331 180.484 317.887 180.34 318.523 180.34C319.171 180.34 319.733 180.486 320.209 180.778C320.685 181.07 321.053 181.472 321.313 181.984C321.573 182.496 321.703 183.086 321.703 183.754C321.703 184.43 321.571 185.026 321.307 185.542C321.047 186.054 320.679 186.456 320.203 186.748C319.727 187.036 319.167 187.18 318.523 187.18ZM318.523 185.998C319.143 185.998 319.605 185.79 319.909 185.374C320.217 184.954 320.371 184.414 320.371 183.754C320.371 183.078 320.215 182.538 319.903 182.134C319.595 181.726 319.135 181.522 318.523 181.522C318.103 181.522 317.757 181.618 317.485 181.81C317.213 181.998 317.011 182.26 316.879 182.596C316.747 182.928 316.681 183.314 316.681 183.754C316.681 184.434 316.837 184.978 317.149 185.386C317.461 185.794 317.919 185.998 318.523 185.998ZM327.569 187V183.814C327.569 183.562 327.547 183.304 327.503 183.04C327.463 182.772 327.383 182.524 327.263 182.296C327.147 182.068 326.981 181.884 326.765 181.744C326.553 181.604 326.275 181.534 325.931 181.534C325.707 181.534 325.495 181.572 325.295 181.648C325.095 181.72 324.919 181.838 324.767 182.002C324.619 182.166 324.501 182.382 324.413 182.65C324.329 182.918 324.287 183.244 324.287 183.628L323.507 183.334C323.507 182.746 323.617 182.228 323.837 181.78C324.057 181.328 324.373 180.976 324.785 180.724C325.197 180.472 325.695 180.346 326.279 180.346C326.727 180.346 327.103 180.418 327.407 180.562C327.711 180.706 327.957 180.896 328.145 181.132C328.337 181.364 328.483 181.618 328.583 181.894C328.683 182.17 328.751 182.44 328.787 182.704C328.823 182.968 328.841 183.2 328.841 183.4V187H327.569ZM323.015 187V180.52H324.137V182.392H324.287V187H323.015ZM330.524 187V178.36H331.778V185.818H335.69V187H330.524ZM339.151 187.174C338.703 187.174 338.327 187.102 338.023 186.958C337.719 186.814 337.471 186.626 337.279 186.394C337.091 186.158 336.947 185.902 336.847 185.626C336.747 185.35 336.679 185.08 336.643 184.816C336.607 184.552 336.589 184.32 336.589 184.12V180.52H337.861V183.706C337.861 183.958 337.881 184.218 337.921 184.486C337.965 184.75 338.045 184.996 338.161 185.224C338.281 185.452 338.447 185.636 338.659 185.776C338.875 185.916 339.155 185.986 339.499 185.986C339.723 185.986 339.935 185.95 340.135 185.878C340.335 185.802 340.509 185.682 340.657 185.518C340.809 185.354 340.927 185.138 341.011 184.87C341.099 184.602 341.143 184.276 341.143 183.892L341.923 184.186C341.923 184.774 341.813 185.294 341.593 185.746C341.373 186.194 341.057 186.544 340.645 186.796C340.233 187.048 339.735 187.174 339.151 187.174ZM341.293 187V185.128H341.143V180.52H342.409V187H341.293ZM343.372 187L345.796 183.724L343.426 180.52H344.914L346.528 182.746L348.124 180.52H349.612L347.242 183.724L349.672 187H348.178L346.528 184.702L344.866 187H343.372ZM352.913 183.718V182.71H356.513V183.718H352.913ZM362.304 187.18C361.824 187.18 361.422 187.092 361.098 186.916C360.774 186.736 360.528 186.5 360.36 186.208C360.196 185.912 360.114 185.588 360.114 185.236C360.114 184.908 360.172 184.62 360.288 184.372C360.404 184.124 360.576 183.914 360.804 183.742C361.032 183.566 361.312 183.424 361.644 183.316C361.932 183.232 362.258 183.158 362.622 183.094C362.986 183.03 363.368 182.97 363.768 182.914C364.172 182.858 364.572 182.802 364.968 182.746L364.512 182.998C364.52 182.49 364.412 182.114 364.188 181.87C363.968 181.622 363.588 181.498 363.048 181.498C362.708 181.498 362.396 181.578 362.112 181.738C361.828 181.894 361.63 182.154 361.518 182.518L360.348 182.158C360.508 181.602 360.812 181.16 361.26 180.832C361.712 180.504 362.312 180.34 363.06 180.34C363.64 180.34 364.144 180.44 364.572 180.64C365.004 180.836 365.32 181.148 365.52 181.576C365.624 181.788 365.688 182.012 365.712 182.248C365.736 182.484 365.748 182.738 365.748 183.01V187H364.638V185.518L364.854 185.71C364.586 186.206 364.244 186.576 363.828 186.82C363.416 187.06 362.908 187.18 362.304 187.18ZM362.526 186.154C362.882 186.154 363.188 186.092 363.444 185.968C363.7 185.84 363.906 185.678 364.062 185.482C364.218 185.286 364.32 185.082 364.368 184.87C364.436 184.678 364.474 184.462 364.482 184.222C364.494 183.982 364.5 183.79 364.5 183.646L364.908 183.796C364.512 183.856 364.152 183.91 363.828 183.958C363.504 184.006 363.21 184.054 362.946 184.102C362.686 184.146 362.454 184.2 362.25 184.264C362.078 184.324 361.924 184.396 361.788 184.48C361.656 184.564 361.55 184.666 361.47 184.786C361.394 184.906 361.356 185.052 361.356 185.224C361.356 185.392 361.398 185.548 361.482 185.692C361.566 185.832 361.694 185.944 361.866 186.028C362.038 186.112 362.258 186.154 362.526 186.154ZM368.98 187V181.648H366.766V180.52H372.448V181.648H370.234V187H368.98ZM376.462 187.18C375.818 187.18 375.252 187.04 374.764 186.76C374.28 186.476 373.902 186.082 373.63 185.578C373.362 185.07 373.228 184.482 373.228 183.814C373.228 183.106 373.36 182.492 373.624 181.972C373.892 181.452 374.264 181.05 374.74 180.766C375.216 180.482 375.77 180.34 376.402 180.34C377.062 180.34 377.624 180.494 378.088 180.802C378.552 181.106 378.898 181.54 379.126 182.104C379.358 182.668 379.45 183.338 379.402 184.114H378.148V183.658C378.14 182.906 377.996 182.35 377.716 181.99C377.44 181.63 377.018 181.45 376.45 181.45C375.822 181.45 375.35 181.648 375.034 182.044C374.718 182.44 374.56 183.012 374.56 183.76C374.56 184.472 374.718 185.024 375.034 185.416C375.35 185.804 375.806 185.998 376.402 185.998C376.794 185.998 377.132 185.91 377.416 185.734C377.704 185.554 377.928 185.298 378.088 184.966L379.318 185.356C379.066 185.936 378.684 186.386 378.172 186.706C377.66 187.022 377.09 187.18 376.462 187.18ZM374.152 184.114V183.136H378.778V184.114H374.152ZM380.148 187V185.938C380.388 185.982 380.57 185.976 380.694 185.92C380.822 185.86 380.916 185.752 380.976 185.596C381.04 185.44 381.094 185.238 381.138 184.99C381.206 184.626 381.264 184.212 381.312 183.748C381.364 183.28 381.41 182.774 381.45 182.23C381.49 181.686 381.526 181.116 381.558 180.52H386.214V187H384.954V181.702H382.686C382.662 182.018 382.634 182.354 382.602 182.71C382.574 183.062 382.542 183.412 382.506 183.76C382.47 184.108 382.432 184.434 382.392 184.738C382.352 185.042 382.31 185.302 382.266 185.518C382.186 185.95 382.068 186.294 381.912 186.55C381.76 186.802 381.544 186.964 381.264 187.036C380.984 187.112 380.612 187.1 380.148 187ZM387.89 187V180.52H389.15V182.77H390.428C390.612 182.77 390.808 182.774 391.016 182.782C391.228 182.79 391.41 182.81 391.562 182.842C391.91 182.914 392.21 183.034 392.462 183.202C392.718 183.37 392.916 183.594 393.056 183.874C393.196 184.15 393.266 184.49 393.266 184.894C393.266 185.458 393.118 185.908 392.822 186.244C392.53 186.576 392.134 186.8 391.634 186.916C391.474 186.952 391.284 186.976 391.064 186.988C390.848 186.996 390.65 187 390.47 187H387.89ZM389.15 185.992H390.542C390.642 185.992 390.756 185.988 390.884 185.98C391.012 185.972 391.13 185.954 391.238 185.926C391.43 185.87 391.602 185.756 391.754 185.584C391.906 185.412 391.982 185.182 391.982 184.894C391.982 184.598 391.906 184.362 391.754 184.186C391.606 184.01 391.418 183.896 391.19 183.844C391.082 183.816 390.972 183.798 390.86 183.79C390.748 183.782 390.642 183.778 390.542 183.778H389.15V185.992ZM397.462 187.18C396.818 187.18 396.252 187.04 395.764 186.76C395.28 186.476 394.902 186.082 394.63 185.578C394.362 185.07 394.228 184.482 394.228 183.814C394.228 183.106 394.36 182.492 394.624 181.972C394.892 181.452 395.264 181.05 395.74 180.766C396.216 180.482 396.77 180.34 397.402 180.34C398.062 180.34 398.624 180.494 399.088 180.802C399.552 181.106 399.898 181.54 400.126 182.104C400.358 182.668 400.45 183.338 400.402 184.114H399.148V183.658C399.14 182.906 398.996 182.35 398.716 181.99C398.44 181.63 398.018 181.45 397.45 181.45C396.822 181.45 396.35 181.648 396.034 182.044C395.718 182.44 395.56 183.012 395.56 183.76C395.56 184.472 395.718 185.024 396.034 185.416C396.35 185.804 396.806 185.998 397.402 185.998C397.794 185.998 398.132 185.91 398.416 185.734C398.704 185.554 398.928 185.298 399.088 184.966L400.318 185.356C400.066 185.936 399.684 186.386 399.172 186.706C398.66 187.022 398.09 187.18 397.462 187.18ZM395.152 184.114V183.136H399.778V184.114H395.152ZM404.144 187V180.52H405.194L407.588 185.272L409.976 180.52H411.032V187H409.82V183.088L407.87 187H407.3L405.35 183.088V187H404.144ZM415.591 187.18C414.947 187.18 414.381 187.04 413.893 186.76C413.409 186.476 413.031 186.082 412.759 185.578C412.491 185.07 412.357 184.482 412.357 183.814C412.357 183.106 412.489 182.492 412.753 181.972C413.021 181.452 413.393 181.05 413.869 180.766C414.345 180.482 414.899 180.34 415.531 180.34C416.191 180.34 416.753 180.494 417.217 180.802C417.681 181.106 418.027 181.54 418.255 182.104C418.487 182.668 418.579 183.338 418.531 184.114H417.277V183.658C417.269 182.906 417.125 182.35 416.845 181.99C416.569 181.63 416.147 181.45 415.579 181.45C414.951 181.45 414.479 181.648 414.163 182.044C413.847 182.44 413.689 183.012 413.689 183.76C413.689 184.472 413.847 185.024 414.163 185.416C414.479 185.804 414.935 185.998 415.531 185.998C415.923 185.998 416.261 185.91 416.545 185.734C416.833 185.554 417.057 185.298 417.217 184.966L418.447 185.356C418.195 185.936 417.813 186.386 417.301 186.706C416.789 187.022 416.219 187.18 415.591 187.18ZM413.281 184.114V183.136H417.907V184.114H413.281ZM422.541 187.186C421.925 187.182 421.401 187.048 420.969 186.784C420.537 186.52 420.199 186.14 419.955 185.644C419.715 185.144 419.575 184.542 419.535 183.838C419.515 183.498 419.517 183.122 419.541 182.71C419.565 182.294 419.609 181.892 419.673 181.504C419.741 181.116 419.827 180.792 419.931 180.532C420.047 180.244 420.205 179.98 420.405 179.74C420.605 179.496 420.825 179.292 421.065 179.128C421.321 178.952 421.605 178.816 421.917 178.72C422.229 178.62 422.555 178.542 422.895 178.486C423.239 178.43 423.585 178.382 423.933 178.342C424.285 178.298 424.627 178.244 424.959 178.18L425.079 179.302C424.859 179.354 424.599 179.396 424.299 179.428C424.003 179.46 423.695 179.496 423.375 179.536C423.059 179.576 422.757 179.632 422.469 179.704C422.181 179.776 421.931 179.878 421.719 180.01C421.419 180.194 421.189 180.462 421.029 180.814C420.873 181.166 420.779 181.548 420.747 181.96C420.995 181.584 421.311 181.314 421.695 181.15C422.079 180.982 422.477 180.898 422.889 180.898C423.465 180.898 423.961 181.034 424.377 181.306C424.797 181.578 425.119 181.948 425.343 182.416C425.567 182.884 425.679 183.414 425.679 184.006C425.679 184.646 425.547 185.206 425.283 185.686C425.023 186.162 424.657 186.534 424.185 186.802C423.713 187.066 423.165 187.194 422.541 187.186ZM422.607 186.004C423.183 186.004 423.617 185.826 423.909 185.47C424.205 185.114 424.353 184.64 424.353 184.048C424.353 183.44 424.201 182.962 423.897 182.614C423.593 182.266 423.163 182.092 422.607 182.092C422.043 182.092 421.611 182.266 421.311 182.614C421.015 182.962 420.867 183.44 420.867 184.048C420.867 184.664 421.017 185.144 421.317 185.488C421.617 185.832 422.047 186.004 422.607 186.004ZM429.876 187.18C429.232 187.18 428.666 187.04 428.178 186.76C427.694 186.476 427.316 186.082 427.044 185.578C426.776 185.07 426.642 184.482 426.642 183.814C426.642 183.106 426.774 182.492 427.038 181.972C427.306 181.452 427.678 181.05 428.154 180.766C428.63 180.482 429.184 180.34 429.816 180.34C430.476 180.34 431.038 180.494 431.502 180.802C431.966 181.106 432.312 181.54 432.54 182.104C432.772 182.668 432.864 183.338 432.816 184.114H431.562V183.658C431.554 182.906 431.41 182.35 431.13 181.99C430.854 181.63 430.432 181.45 429.864 181.45C429.236 181.45 428.764 181.648 428.448 182.044C428.132 182.44 427.974 183.012 427.974 183.76C427.974 184.472 428.132 185.024 428.448 185.416C428.764 185.804 429.22 185.998 429.816 185.998C430.208 185.998 430.546 185.91 430.83 185.734C431.118 185.554 431.342 185.298 431.502 184.966L432.732 185.356C432.48 185.936 432.098 186.386 431.586 186.706C431.074 187.022 430.504 187.18 429.876 187.18ZM427.566 184.114V183.136H432.192V184.114H427.566ZM433.562 187V185.938C433.802 185.982 433.984 185.976 434.108 185.92C434.236 185.86 434.33 185.752 434.39 185.596C434.454 185.44 434.508 185.238 434.552 184.99C434.62 184.626 434.678 184.212 434.726 183.748C434.778 183.28 434.824 182.774 434.864 182.23C434.904 181.686 434.94 181.116 434.972 180.52H439.628V187H438.368V181.702H436.1C436.076 182.018 436.048 182.354 436.016 182.71C435.988 183.062 435.956 183.412 435.92 183.76C435.884 184.108 435.846 184.434 435.806 184.738C435.766 185.042 435.724 185.302 435.68 185.518C435.6 185.95 435.482 186.294 435.326 186.55C435.174 186.802 434.958 186.964 434.678 187.036C434.398 187.112 434.026 187.1 433.562 187ZM446.77 180.52V187H445.564V182.494L442.324 187H441.304V180.52H442.51V184.936L445.756 180.52H446.77Z" fill="#A4814E"/>
<path d="M323.948 199V194.68H326.908V195.244H324.536V199H323.948ZM327.138 199V198.316H327.822V199H327.138ZM330.659 199V193.24H334.259V193.804H331.247V195.796H333.779V196.36H331.247V198.436H334.259V199H330.659ZM337.014 199.12C336.579 199.12 336.211 199.023 335.91 198.828C335.608 198.633 335.379 198.365 335.222 198.024C335.067 197.68 334.987 197.285 334.982 196.84C334.987 196.387 335.07 195.989 335.23 195.648C335.39 195.304 335.62 195.037 335.922 194.848C336.223 194.656 336.588 194.56 337.018 194.56C337.455 194.56 337.835 194.667 338.158 194.88C338.483 195.093 338.706 195.385 338.826 195.756L338.25 195.94C338.148 195.681 337.987 195.481 337.766 195.34C337.547 195.196 337.296 195.124 337.014 195.124C336.696 195.124 336.434 195.197 336.226 195.344C336.018 195.488 335.863 195.689 335.762 195.948C335.66 196.207 335.608 196.504 335.606 196.84C335.611 197.357 335.731 197.773 335.966 198.088C336.2 198.4 336.55 198.556 337.014 198.556C337.307 198.556 337.556 198.489 337.762 198.356C337.97 198.22 338.127 198.023 338.234 197.764L338.826 197.94C338.666 198.324 338.431 198.617 338.122 198.82C337.812 199.02 337.443 199.12 337.014 199.12ZM341.326 199.12C340.892 199.12 340.524 199.023 340.222 198.828C339.921 198.633 339.692 198.365 339.534 198.024C339.38 197.68 339.3 197.285 339.294 196.84C339.3 196.387 339.382 195.989 339.542 195.648C339.702 195.304 339.933 195.037 340.234 194.848C340.536 194.656 340.901 194.56 341.33 194.56C341.768 194.56 342.148 194.667 342.47 194.88C342.796 195.093 343.018 195.385 343.138 195.756L342.562 195.94C342.461 195.681 342.3 195.481 342.078 195.34C341.86 195.196 341.609 195.124 341.326 195.124C341.009 195.124 340.746 195.197 340.538 195.344C340.33 195.488 340.176 195.689 340.074 195.948C339.973 196.207 339.921 196.504 339.918 196.84C339.924 197.357 340.044 197.773 340.278 198.088C340.513 198.4 340.862 198.556 341.326 198.556C341.62 198.556 341.869 198.489 342.074 198.356C342.282 198.22 342.44 198.023 342.546 197.764L343.138 197.94C342.978 198.324 342.744 198.617 342.434 198.82C342.125 199.02 341.756 199.12 341.326 199.12ZM345.792 199.12C345.371 199.12 345.005 199.027 344.696 198.84C344.389 198.653 344.151 198.391 343.98 198.052C343.809 197.713 343.724 197.316 343.724 196.86C343.724 196.388 343.808 195.98 343.976 195.636C344.144 195.292 344.38 195.027 344.684 194.84C344.991 194.653 345.352 194.56 345.768 194.56C346.195 194.56 346.559 194.659 346.86 194.856C347.161 195.051 347.389 195.331 347.544 195.696C347.699 196.061 347.769 196.497 347.756 197.004H347.156V196.796C347.145 196.236 347.024 195.813 346.792 195.528C346.563 195.243 346.227 195.1 345.784 195.1C345.32 195.1 344.964 195.251 344.716 195.552C344.471 195.853 344.348 196.283 344.348 196.84C344.348 197.384 344.471 197.807 344.716 198.108C344.964 198.407 345.315 198.556 345.768 198.556C346.077 198.556 346.347 198.485 346.576 198.344C346.808 198.2 346.991 197.993 347.124 197.724L347.672 197.936C347.501 198.312 347.249 198.604 346.916 198.812C346.585 199.017 346.211 199.12 345.792 199.12ZM344.14 197.004V196.512H347.44V197.004H344.14ZM348.64 199V194.68H349.228V196.556H351.664V194.68H352.252V199H351.664V197.12H349.228V199H348.64ZM354.542 199V195.224H353.01V194.68H356.662V195.224H355.13V199H354.542ZM357.986 200.92L358.822 198.652L358.834 199.324L356.942 194.68H357.566L359.118 198.564H358.862L360.294 194.68H360.894L358.574 200.92H357.986ZM361.585 199L361.589 194.68H362.181V196.76L364.109 194.68H364.893L362.869 196.84L365.157 199H364.301L362.181 196.92V199H361.585ZM368.99 194.68V199H368.418V195.636L366.05 199H365.554V194.68H366.126V198.016L368.498 194.68H368.99ZM372.33 200.92L373.166 198.652L373.178 199.324L371.286 194.68H371.91L373.462 198.564H373.206L374.638 194.68H375.238L372.918 200.92H372.33ZM375.376 199V198.484C375.536 198.513 375.658 198.507 375.74 198.464C375.826 198.419 375.888 198.344 375.928 198.24C375.968 198.133 376.002 198.001 376.028 197.844C376.071 197.583 376.11 197.295 376.144 196.98C376.179 196.665 376.21 196.319 376.236 195.94C376.266 195.559 376.295 195.139 376.324 194.68H379.26V199H378.676V195.244H376.868C376.85 195.527 376.828 195.808 376.804 196.088C376.78 196.368 376.755 196.637 376.728 196.896C376.704 197.152 376.678 197.388 376.648 197.604C376.619 197.82 376.588 198.007 376.556 198.164C376.508 198.401 376.444 198.591 376.364 198.732C376.287 198.873 376.171 198.967 376.016 199.012C375.862 199.057 375.648 199.053 375.376 199ZM380.49 199V198.316H381.174V199H380.49ZM384.011 199V193.24H388.423V199H387.835V193.804H384.599V199H384.011ZM392.25 199V197.372H391.242C391.125 197.372 391.003 197.368 390.878 197.36C390.755 197.349 390.641 197.335 390.534 197.316C390.23 197.257 389.971 197.124 389.758 196.916C389.547 196.705 389.442 196.415 389.442 196.044C389.442 195.681 389.541 195.391 389.738 195.172C389.935 194.951 390.174 194.807 390.454 194.74C390.582 194.711 390.711 194.693 390.842 194.688C390.975 194.683 391.09 194.68 391.186 194.68H392.838L392.842 199H392.25ZM389.302 199L390.506 197.188H391.158L389.946 199H389.302ZM391.21 196.868H392.25V195.184H391.21C391.146 195.184 391.057 195.187 390.942 195.192C390.827 195.197 390.719 195.215 390.618 195.244C390.53 195.271 390.442 195.317 390.354 195.384C390.269 195.448 390.197 195.535 390.138 195.644C390.079 195.751 390.05 195.881 390.05 196.036C390.05 196.252 390.109 196.425 390.226 196.556C390.346 196.684 390.495 196.772 390.674 196.82C390.77 196.841 390.866 196.855 390.962 196.86C391.058 196.865 391.141 196.868 391.21 196.868ZM395.136 199V195.224H393.604V194.68H397.256V195.224H395.724V199H395.136ZM401.451 194.68V199H400.879V195.636L398.511 199H398.015V194.68H398.587V198.016L400.959 194.68H401.451ZM402.573 199V194.68H405.533V195.244H403.161V199H402.573ZM408.018 199.12C407.589 199.12 407.222 199.023 406.918 198.828C406.614 198.633 406.381 198.364 406.218 198.02C406.055 197.676 405.974 197.281 405.974 196.836C405.974 196.383 406.057 195.985 406.222 195.644C406.387 195.303 406.622 195.037 406.926 194.848C407.233 194.656 407.597 194.56 408.018 194.56C408.45 194.56 408.818 194.657 409.122 194.852C409.429 195.044 409.662 195.312 409.822 195.656C409.985 195.997 410.066 196.391 410.066 196.836C410.066 197.289 409.985 197.688 409.822 198.032C409.659 198.373 409.425 198.64 409.118 198.832C408.811 199.024 408.445 199.12 408.018 199.12ZM408.018 198.556C408.498 198.556 408.855 198.397 409.09 198.08C409.325 197.76 409.442 197.345 409.442 196.836C409.442 196.313 409.323 195.897 409.086 195.588C408.851 195.279 408.495 195.124 408.018 195.124C407.695 195.124 407.429 195.197 407.218 195.344C407.01 195.488 406.854 195.689 406.75 195.948C406.649 196.204 406.598 196.5 406.598 196.836C406.598 197.356 406.718 197.773 406.958 198.088C407.198 198.4 407.551 198.556 408.018 198.556ZM412.888 199.12C412.491 199.12 412.155 199.02 411.88 198.82C411.606 198.617 411.398 198.344 411.256 198C411.115 197.653 411.044 197.265 411.044 196.836C411.044 196.399 411.115 196.009 411.256 195.668C411.4 195.324 411.611 195.053 411.888 194.856C412.166 194.659 412.507 194.56 412.912 194.56C413.307 194.56 413.646 194.66 413.928 194.86C414.211 195.06 414.427 195.332 414.576 195.676C414.728 196.02 414.804 196.407 414.804 196.836C414.804 197.268 414.728 197.656 414.576 198C414.424 198.344 414.206 198.617 413.92 198.82C413.635 199.02 413.291 199.12 412.888 199.12ZM410.944 200.92V194.68H411.472V197.932H411.536V200.92H410.944ZM412.828 198.572C413.13 198.572 413.38 198.496 413.58 198.344C413.78 198.192 413.93 197.985 414.028 197.724C414.13 197.46 414.18 197.164 414.18 196.836C414.18 196.511 414.131 196.217 414.032 195.956C413.934 195.695 413.783 195.488 413.58 195.336C413.38 195.184 413.126 195.108 412.816 195.108C412.515 195.108 412.264 195.181 412.064 195.328C411.867 195.475 411.719 195.679 411.62 195.94C411.522 196.199 411.472 196.497 411.472 196.836C411.472 197.169 411.522 197.468 411.62 197.732C411.719 197.993 411.868 198.199 412.068 198.348C412.268 198.497 412.522 198.572 412.828 198.572ZM417.475 199.12C417.04 199.12 416.672 199.023 416.371 198.828C416.069 198.633 415.84 198.365 415.683 198.024C415.528 197.68 415.448 197.285 415.443 196.84C415.448 196.387 415.531 195.989 415.691 195.648C415.851 195.304 416.081 195.037 416.383 194.848C416.684 194.656 417.049 194.56 417.479 194.56C417.916 194.56 418.296 194.667 418.619 194.88C418.944 195.093 419.167 195.385 419.287 195.756L418.711 195.94C418.609 195.681 418.448 195.481 418.227 195.34C418.008 195.196 417.757 195.124 417.475 195.124C417.157 195.124 416.895 195.197 416.687 195.344C416.479 195.488 416.324 195.689 416.223 195.948C416.121 196.207 416.069 196.504 416.067 196.84C416.072 197.357 416.192 197.773 416.427 198.088C416.661 198.4 417.011 198.556 417.475 198.556C417.768 198.556 418.017 198.489 418.223 198.356C418.431 198.22 418.588 198.023 418.695 197.764L419.287 197.94C419.127 198.324 418.892 198.617 418.583 198.82C418.273 199.02 417.904 199.12 417.475 199.12ZM420.108 199L420.112 194.68H420.704V196.76L422.632 194.68H423.416L421.392 196.84L423.68 199H422.824L420.704 196.92V199H420.108ZM425.317 199.12C424.992 199.12 424.718 199.061 424.497 198.944C424.278 198.827 424.114 198.671 424.005 198.476C423.896 198.281 423.841 198.069 423.841 197.84C423.841 197.605 423.888 197.405 423.981 197.24C424.077 197.072 424.206 196.935 424.369 196.828C424.534 196.721 424.725 196.64 424.941 196.584C425.16 196.531 425.401 196.484 425.665 196.444C425.932 196.401 426.192 196.365 426.445 196.336C426.701 196.304 426.925 196.273 427.117 196.244L426.909 196.372C426.917 195.945 426.834 195.629 426.661 195.424C426.488 195.219 426.186 195.116 425.757 195.116C425.461 195.116 425.21 195.183 425.005 195.316C424.802 195.449 424.66 195.66 424.577 195.948L424.005 195.78C424.104 195.393 424.302 195.093 424.601 194.88C424.9 194.667 425.288 194.56 425.765 194.56C426.16 194.56 426.494 194.635 426.769 194.784C427.046 194.931 427.242 195.144 427.357 195.424C427.41 195.549 427.445 195.689 427.461 195.844C427.477 195.999 427.485 196.156 427.485 196.316V199H426.961V197.916L427.113 197.98C426.966 198.351 426.738 198.633 426.429 198.828C426.12 199.023 425.749 199.12 425.317 199.12ZM425.385 198.612C425.66 198.612 425.9 198.563 426.105 198.464C426.31 198.365 426.476 198.231 426.601 198.06C426.726 197.887 426.808 197.692 426.845 197.476C426.877 197.337 426.894 197.185 426.897 197.02C426.9 196.852 426.901 196.727 426.901 196.644L427.125 196.76C426.925 196.787 426.708 196.813 426.473 196.84C426.241 196.867 426.012 196.897 425.785 196.932C425.561 196.967 425.358 197.008 425.177 197.056C425.054 197.091 424.936 197.14 424.821 197.204C424.706 197.265 424.612 197.348 424.537 197.452C424.465 197.556 424.429 197.685 424.429 197.84C424.429 197.965 424.46 198.087 424.521 198.204C424.585 198.321 424.686 198.419 424.825 198.496C424.966 198.573 425.153 198.612 425.385 198.612ZM431.234 199V197.372H430.226C430.109 197.372 429.988 197.368 429.862 197.36C429.74 197.349 429.625 197.335 429.518 197.316C429.214 197.257 428.956 197.124 428.742 196.916C428.532 196.705 428.426 196.415 428.426 196.044C428.426 195.681 428.525 195.391 428.722 195.172C428.92 194.951 429.158 194.807 429.438 194.74C429.566 194.711 429.696 194.693 429.826 194.688C429.96 194.683 430.074 194.68 430.17 194.68H431.822L431.826 199H431.234ZM428.286 199L429.49 197.188H430.142L428.93 199H428.286ZM430.194 196.868H431.234V195.184H430.194C430.13 195.184 430.041 195.187 429.926 195.192C429.812 195.197 429.704 195.215 429.602 195.244C429.514 195.271 429.426 195.317 429.338 195.384C429.253 195.448 429.181 195.535 429.122 195.644C429.064 195.751 429.034 195.881 429.034 196.036C429.034 196.252 429.093 196.425 429.21 196.556C429.33 196.684 429.48 196.772 429.658 196.82C429.754 196.841 429.85 196.855 429.946 196.86C430.042 196.865 430.125 196.868 430.194 196.868ZM435.554 199V193.896L434.47 194.548V193.888L435.554 193.24H436.15V199H435.554ZM437.507 198.996L437.511 198.46L440.115 196.108C440.339 195.905 440.487 195.713 440.559 195.532C440.634 195.348 440.671 195.156 440.671 194.956C440.671 194.719 440.615 194.504 440.503 194.312C440.391 194.12 440.24 193.968 440.051 193.856C439.862 193.741 439.65 193.684 439.415 193.684C439.17 193.684 438.951 193.743 438.759 193.86C438.567 193.977 438.415 194.132 438.303 194.324C438.194 194.516 438.14 194.725 438.143 194.952H437.543C437.543 194.603 437.626 194.289 437.791 194.012C437.956 193.735 438.18 193.517 438.463 193.36C438.746 193.2 439.066 193.12 439.423 193.12C439.772 193.12 440.086 193.203 440.363 193.368C440.643 193.531 440.863 193.752 441.023 194.032C441.186 194.309 441.267 194.619 441.267 194.96C441.267 195.2 441.238 195.412 441.179 195.596C441.123 195.777 441.034 195.947 440.911 196.104C440.791 196.259 440.638 196.419 440.451 196.584L438.139 198.672L438.047 198.432H441.267V198.996H437.507ZM444.126 193.124C444.488 193.124 444.816 193.212 445.11 193.388C445.406 193.561 445.64 193.799 445.814 194.1C445.987 194.399 446.074 194.735 446.074 195.108V197.108C446.074 197.492 445.987 197.836 445.814 198.14C445.64 198.444 445.403 198.684 445.102 198.86C444.803 199.033 444.463 199.12 444.082 199.12C443.754 199.12 443.45 199.048 443.17 198.904C442.892 198.757 442.663 198.556 442.482 198.3L442.93 197.928C443.052 198.117 443.215 198.269 443.418 198.384C443.623 198.499 443.844 198.556 444.082 198.556C444.354 198.556 444.594 198.492 444.802 198.364C445.012 198.233 445.178 198.063 445.298 197.852C445.42 197.639 445.482 197.408 445.482 197.16V195.904L445.626 196.072C445.46 196.336 445.24 196.549 444.966 196.712C444.694 196.875 444.395 196.956 444.07 196.956C443.715 196.956 443.394 196.871 443.106 196.7C442.82 196.529 442.594 196.3 442.426 196.012C442.26 195.724 442.178 195.403 442.178 195.048C442.178 194.693 442.266 194.371 442.442 194.08C442.618 193.787 442.854 193.555 443.15 193.384C443.446 193.211 443.771 193.124 444.126 193.124ZM444.126 193.692C443.875 193.692 443.647 193.753 443.442 193.876C443.236 193.996 443.072 194.159 442.95 194.364C442.83 194.569 442.77 194.797 442.77 195.048C442.77 195.299 442.83 195.527 442.95 195.732C443.07 195.937 443.232 196.101 443.438 196.224C443.643 196.344 443.871 196.404 444.122 196.404C444.372 196.404 444.6 196.344 444.806 196.224C445.014 196.101 445.178 195.937 445.298 195.732C445.42 195.527 445.482 195.299 445.482 195.048C445.482 194.8 445.42 194.573 445.298 194.368C445.178 194.163 445.015 193.999 444.81 193.876C444.604 193.753 444.376 193.692 444.126 193.692Z" fill="white"/>
<path d="M241.221 232.677L241.721 231.252L241.735 231.672L240.507 228.788L240.897 228.782L241.905 231.194L241.745 231.196L242.602 228.755L242.977 228.749L241.589 232.671L241.221 232.677ZM243.106 231.447L243.101 231.125C243.201 231.142 243.277 231.136 243.328 231.109C243.381 231.08 243.419 231.032 243.443 230.967C243.467 230.9 243.487 230.817 243.502 230.718C243.526 230.555 243.547 230.374 243.566 230.177C243.585 229.98 243.6 229.763 243.613 229.527C243.628 229.288 243.642 229.025 243.656 228.738L245.491 228.709L245.533 231.409L245.168 231.415L245.131 229.068L244.001 229.085C243.992 229.262 243.982 229.438 243.97 229.613C243.957 229.789 243.944 229.957 243.93 230.119C243.918 230.279 243.903 230.427 243.887 230.562C243.871 230.698 243.854 230.815 243.835 230.913C243.808 231.062 243.769 231.181 243.721 231.27C243.674 231.359 243.602 231.419 243.506 231.449C243.41 231.478 243.277 231.478 243.106 231.447ZM246.302 231.397L246.295 230.969L246.722 230.963L246.729 231.39L246.302 231.397ZM248.502 231.362L248.445 227.763L251.202 227.719L251.259 231.319L250.892 231.324L250.84 228.077L248.818 228.109L248.869 231.356L248.502 231.362ZM253.651 231.281L253.635 230.263L253.005 230.273C252.931 230.274 252.856 230.273 252.777 230.269C252.7 230.264 252.629 230.256 252.562 230.245C252.371 230.212 252.208 230.131 252.073 230.003C251.939 229.873 251.87 229.693 251.867 229.461C251.863 229.235 251.922 229.052 252.043 228.913C252.164 228.773 252.312 228.681 252.486 228.636C252.566 228.617 252.647 228.605 252.728 228.6C252.812 228.595 252.883 228.593 252.943 228.592L253.976 228.575L254.021 231.275L253.651 231.281ZM251.808 231.31L252.543 230.166L252.95 230.159L252.211 231.304L251.808 231.31ZM252.98 229.959L253.63 229.948L253.613 228.896L252.963 228.906C252.923 228.907 252.867 228.91 252.796 228.914C252.724 228.918 252.657 228.93 252.594 228.95C252.539 228.967 252.485 228.997 252.43 229.04C252.377 229.081 252.333 229.135 252.298 229.204C252.262 229.272 252.245 229.354 252.247 229.45C252.249 229.585 252.287 229.693 252.362 229.773C252.438 229.852 252.532 229.906 252.644 229.934C252.705 229.946 252.765 229.954 252.825 229.956C252.885 229.959 252.936 229.959 252.98 229.959ZM255.454 231.252L255.417 228.893L254.46 228.908L254.454 228.568L256.736 228.532L256.742 228.872L255.784 228.887L255.822 231.246L255.454 231.252ZM259.358 228.49L259.4 231.19L259.043 231.196L259.01 229.093L257.563 231.219L257.253 231.224L257.21 228.524L257.568 228.519L257.601 230.603L259.05 228.495L259.358 228.49ZM260.102 231.179L260.059 228.479L261.909 228.45L261.915 228.802L260.432 228.826L260.469 231.173L260.102 231.179ZM263.506 231.2C263.237 231.204 263.007 231.147 262.815 231.028C262.623 230.91 262.475 230.744 262.37 230.53C262.265 230.317 262.21 230.071 262.206 229.793C262.201 229.51 262.249 229.261 262.349 229.046C262.449 228.831 262.593 228.663 262.781 228.541C262.971 228.418 263.197 228.355 263.461 228.35C263.731 228.346 263.961 228.403 264.153 228.522C264.347 228.639 264.495 228.804 264.599 229.018C264.704 229.229 264.758 229.474 264.763 229.753C264.767 230.036 264.72 230.286 264.622 230.502C264.524 230.717 264.38 230.886 264.19 231.009C264 231.132 263.772 231.196 263.506 231.2ZM263.5 230.848C263.8 230.843 264.022 230.74 264.165 230.54C264.309 230.337 264.378 230.077 264.373 229.759C264.368 229.432 264.29 229.173 264.138 228.982C263.988 228.791 263.764 228.698 263.466 228.703C263.265 228.706 263.099 228.755 262.968 228.848C262.84 228.94 262.744 229.068 262.682 229.23C262.621 229.391 262.592 229.577 262.596 229.787C262.601 230.112 262.68 230.371 262.833 230.566C262.986 230.758 263.208 230.852 263.5 230.848ZM266.549 231.152C266.301 231.156 266.09 231.097 265.916 230.974C265.743 230.851 265.61 230.682 265.518 230.468C265.427 230.253 265.379 230.011 265.374 229.743C265.37 229.47 265.41 229.226 265.495 229.011C265.582 228.794 265.711 228.623 265.882 228.497C266.054 228.371 266.266 228.306 266.519 228.302C266.766 228.298 266.978 228.357 267.157 228.48C267.336 228.602 267.473 228.77 267.57 228.983C267.668 229.197 267.72 229.437 267.724 229.706C267.728 229.976 267.685 230.219 267.593 230.435C267.501 230.652 267.367 230.825 267.191 230.954C267.015 231.082 266.801 231.148 266.549 231.152ZM265.352 232.296L265.291 228.397L265.62 228.391L265.653 230.424L265.693 230.423L265.722 232.29L265.352 232.296ZM266.506 230.81C266.695 230.807 266.85 230.757 266.974 230.66C267.097 230.563 267.189 230.433 267.248 230.268C267.309 230.102 267.337 229.917 267.334 229.712C267.331 229.509 267.297 229.326 267.233 229.163C267.169 229.001 267.072 228.873 266.944 228.78C266.818 228.687 266.658 228.642 266.465 228.646C266.276 228.649 266.12 228.697 265.997 228.79C265.875 228.884 265.784 229.013 265.725 229.177C265.666 229.34 265.638 229.527 265.642 229.739C265.645 229.947 265.679 230.133 265.743 230.297C265.807 230.459 265.903 230.586 266.029 230.678C266.156 230.769 266.315 230.813 266.506 230.81ZM269.415 231.107C269.144 231.111 268.913 231.054 268.723 230.935C268.532 230.816 268.386 230.651 268.285 230.44C268.185 230.226 268.131 229.98 268.123 229.702C268.122 229.419 268.17 229.17 268.266 228.955C268.363 228.738 268.504 228.569 268.691 228.448C268.877 228.325 269.105 228.261 269.373 228.257C269.646 228.253 269.885 228.316 270.088 228.446C270.294 228.576 270.436 228.756 270.514 228.987L270.156 229.107C270.09 228.947 269.988 228.823 269.848 228.737C269.71 228.649 269.553 228.607 269.376 228.61C269.178 228.613 269.014 228.661 268.886 228.755C268.757 228.847 268.662 228.974 268.602 229.137C268.541 229.299 268.511 229.486 268.513 229.696C268.521 230.019 268.6 230.278 268.75 230.472C268.9 230.665 269.12 230.759 269.41 230.754C269.593 230.751 269.748 230.707 269.875 230.622C270.004 230.535 270.1 230.41 270.164 230.247L270.536 230.351C270.44 230.593 270.296 230.779 270.105 230.908C269.913 231.036 269.684 231.102 269.415 231.107ZM271.06 231.006L271.02 228.306L271.39 228.3L271.41 229.6L272.595 228.281L273.085 228.273L271.841 229.643L273.292 230.97L272.757 230.979L271.412 229.7L271.432 231L271.06 231.006ZM274.316 231.029C274.113 231.033 273.942 230.999 273.802 230.927C273.664 230.856 273.56 230.76 273.49 230.64C273.42 230.519 273.383 230.387 273.381 230.244C273.379 230.097 273.406 229.972 273.463 229.868C273.521 229.762 273.601 229.675 273.701 229.606C273.803 229.538 273.922 229.485 274.056 229.448C274.192 229.413 274.343 229.381 274.507 229.354C274.674 229.324 274.836 229.299 274.994 229.278C275.153 229.256 275.293 229.234 275.413 229.214L275.284 229.296C275.285 229.03 275.23 228.833 275.12 228.706C275.009 228.58 274.82 228.519 274.552 228.523C274.367 228.526 274.211 228.57 274.084 228.655C273.958 228.741 273.871 228.874 273.822 229.054L273.463 228.955C273.521 228.712 273.642 228.523 273.827 228.387C274.011 228.25 274.253 228.18 274.551 228.175C274.798 228.171 275.008 228.215 275.181 228.305C275.356 228.394 275.48 228.526 275.555 228.699C275.589 228.777 275.612 228.864 275.624 228.961C275.635 229.057 275.642 229.156 275.643 229.256L275.67 230.933L275.342 230.938L275.332 230.261L275.427 230.299C275.339 230.532 275.2 230.711 275.008 230.836C274.817 230.961 274.586 231.025 274.316 231.029ZM274.354 230.711C274.525 230.708 274.675 230.675 274.802 230.612C274.93 230.548 275.032 230.462 275.108 230.354C275.185 230.245 275.234 230.122 275.255 229.987C275.274 229.9 275.283 229.805 275.283 229.701C275.283 229.596 275.282 229.518 275.282 229.466L275.423 229.537C275.298 229.555 275.163 229.574 275.016 229.593C274.871 229.612 274.728 229.633 274.587 229.657C274.447 229.681 274.321 229.709 274.208 229.741C274.132 229.764 274.058 229.796 273.987 229.837C273.916 229.876 273.858 229.929 273.812 229.995C273.768 230.06 273.747 230.142 273.749 230.238C273.75 230.317 273.77 230.392 273.81 230.465C273.851 230.537 273.915 230.597 274.003 230.644C274.092 230.691 274.209 230.713 274.354 230.711ZM278.013 230.896L277.997 229.879L277.367 229.888C277.294 229.89 277.218 229.888 277.139 229.885C277.063 229.879 276.991 229.871 276.924 229.86C276.733 229.827 276.57 229.746 276.435 229.618C276.301 229.489 276.233 229.308 276.229 229.076C276.225 228.85 276.284 228.667 276.405 228.529C276.526 228.388 276.674 228.296 276.848 228.251C276.928 228.232 277.009 228.22 277.09 228.215C277.174 228.21 277.245 228.208 277.305 228.207L278.338 228.19L278.383 230.89L278.013 230.896ZM276.171 230.925L276.905 229.781L277.313 229.774L276.573 230.919L276.171 230.925ZM277.342 229.574L277.992 229.564L277.975 228.511L277.325 228.521C277.285 228.522 277.23 228.525 277.158 228.529C277.086 228.534 277.019 228.545 276.956 228.565C276.901 228.582 276.847 228.612 276.792 228.655C276.74 228.696 276.696 228.751 276.66 228.82C276.624 228.887 276.607 228.969 276.609 229.065C276.611 229.2 276.649 229.308 276.724 229.389C276.8 229.467 276.894 229.521 277.007 229.549C277.067 229.562 277.127 229.569 277.187 229.571C277.247 229.574 277.299 229.575 277.342 229.574Z" fill="white"/>
<path d="M270.137 313.558L269.877 312.07L270.095 312.43L267.615 310.513L267.952 310.318L270.01 311.93L269.871 312.01L269.426 309.461L269.751 309.273L270.455 313.374L270.137 313.558ZM271.181 311.565L271.019 311.286C271.115 311.251 271.178 311.21 271.21 311.161C271.242 311.109 271.252 311.049 271.241 310.981C271.229 310.91 271.206 310.829 271.171 310.735C271.112 310.581 271.042 310.413 270.962 310.232C270.882 310.051 270.79 309.854 270.686 309.641C270.582 309.426 270.466 309.189 270.338 308.932L271.925 308.011L273.28 310.346L272.965 310.529L271.786 308.499L270.809 309.066C270.887 309.225 270.964 309.384 271.039 309.543C271.114 309.701 271.185 309.855 271.252 310.003C271.319 310.149 271.379 310.285 271.431 310.411C271.483 310.537 271.525 310.647 271.557 310.742C271.605 310.886 271.63 311.008 271.631 311.11C271.634 311.21 271.6 311.297 271.531 311.37C271.461 311.443 271.345 311.508 271.181 311.565ZM273.945 309.96L273.73 309.59L274.1 309.376L274.315 309.745L273.945 309.96ZM277.146 308.188C276.836 308.368 276.535 308.451 276.242 308.438C275.948 308.424 275.676 308.327 275.425 308.147C275.174 307.967 274.956 307.717 274.771 307.399C274.586 307.08 274.478 306.767 274.446 306.46C274.414 306.153 274.465 305.869 274.599 305.608C274.732 305.346 274.953 305.125 275.263 304.945C275.575 304.764 275.876 304.682 276.168 304.697C276.461 304.71 276.733 304.806 276.984 304.986C277.237 305.166 277.455 305.414 277.64 305.733C277.825 306.051 277.933 306.365 277.963 306.673C277.995 306.98 277.945 307.265 277.812 307.527C277.679 307.787 277.457 308.007 277.146 308.188ZM276.969 307.883C277.213 307.742 277.384 307.568 277.482 307.363C277.581 307.157 277.613 306.932 277.579 306.688C277.546 306.441 277.454 306.188 277.303 305.929C277.152 305.669 276.979 305.465 276.782 305.315C276.586 305.164 276.375 305.081 276.148 305.064C275.92 305.048 275.685 305.11 275.44 305.25C275.197 305.391 275.026 305.564 274.929 305.769C274.832 305.974 274.8 306.199 274.834 306.446C274.868 306.69 274.959 306.943 275.109 307.203C275.258 307.463 275.43 307.669 275.625 307.819C275.821 307.968 276.033 308.051 276.262 308.068C276.489 308.085 276.725 308.023 276.969 307.883ZM278.975 307.039L277.621 304.703L277.941 304.517L278.594 305.642L278.983 303.912L279.407 303.666L278.991 305.469L280.906 305.918L280.443 306.187L278.644 305.728L279.297 306.852L278.975 307.039ZM281.756 305.425L280.571 303.384L279.743 303.865L279.572 303.571L281.546 302.425L281.716 302.719L280.888 303.199L282.073 305.24L281.756 305.425ZM284.689 303.722L284.178 302.842L283.633 303.158C283.57 303.195 283.503 303.231 283.432 303.266C283.363 303.299 283.296 303.327 283.233 303.35C283.05 303.414 282.868 303.423 282.688 303.378C282.508 303.33 282.36 303.206 282.243 303.005C282.129 302.809 282.092 302.621 282.13 302.441C282.167 302.26 282.251 302.107 282.381 301.983C282.441 301.927 282.505 301.877 282.574 301.833C282.645 301.788 282.706 301.751 282.758 301.721L283.651 301.202L285.009 303.536L284.689 303.722ZM283.095 304.647L283.177 303.29L283.53 303.085L283.443 304.445L283.095 304.647ZM283.457 302.896L284.02 302.57L283.491 301.659L282.929 301.986C282.894 302.006 282.847 302.035 282.787 302.074C282.726 302.113 282.673 302.156 282.628 302.204C282.589 302.246 282.556 302.299 282.529 302.362C282.503 302.424 282.491 302.493 282.494 302.571C282.496 302.647 282.521 302.727 282.569 302.81C282.637 302.927 282.723 303.002 282.828 303.036C282.933 303.068 283.041 303.068 283.153 303.038C283.211 303.02 283.267 302.997 283.321 302.969C283.374 302.942 283.42 302.918 283.457 302.896ZM286.59 302.707C286.372 302.832 286.157 302.893 285.947 302.89C285.737 302.887 285.535 302.817 285.341 302.681C285.148 302.545 284.967 302.34 284.798 302.066C284.722 301.946 284.648 301.811 284.574 301.661C284.5 301.509 284.435 301.362 284.381 301.218C284.326 301.074 284.29 300.952 284.273 300.853C284.248 300.724 284.244 300.594 284.26 300.461C284.276 300.327 284.313 300.203 284.371 300.09C284.425 299.978 284.499 299.873 284.592 299.774C284.686 299.673 284.789 299.578 284.9 299.488C285.013 299.398 285.126 299.31 285.239 299.225C285.353 299.14 285.456 299.056 285.547 298.974L285.748 299.241C285.678 299.303 285.593 299.372 285.492 299.448C285.392 299.524 285.288 299.605 285.181 299.693C285.072 299.778 284.973 299.868 284.883 299.961C284.792 300.054 284.723 300.147 284.675 300.241C284.599 300.379 284.571 300.538 284.59 300.717C284.611 300.896 284.668 301.082 284.761 301.275C284.769 301.083 284.826 300.909 284.932 300.753C285.04 300.596 285.18 300.468 285.353 300.367C285.563 300.245 285.772 300.188 285.98 300.197C286.188 300.205 286.384 300.271 286.565 300.395C286.747 300.518 286.902 300.691 287.031 300.913C287.166 301.145 287.238 301.374 287.248 301.6C287.259 301.825 287.209 302.033 287.099 302.224C286.987 302.414 286.818 302.575 286.59 302.707ZM286.437 302.389C286.682 302.247 286.823 302.062 286.862 301.836C286.901 301.609 286.847 301.368 286.7 301.114C286.549 300.855 286.364 300.689 286.145 300.616C285.926 300.542 285.698 300.575 285.458 300.714C285.219 300.853 285.079 301.034 285.038 301.259C284.996 301.483 285.051 301.725 285.202 301.984C285.352 302.244 285.535 302.411 285.751 302.487C285.966 302.562 286.195 302.529 286.437 302.389ZM289.222 301.176C289.007 301.301 288.794 301.352 288.583 301.331C288.371 301.307 288.173 301.225 287.989 301.083C287.803 300.94 287.643 300.753 287.509 300.521C287.371 300.284 287.287 300.052 287.257 299.823C287.227 299.592 287.256 299.379 287.343 299.185C287.431 298.992 287.585 298.831 287.804 298.704C288.017 298.58 288.232 298.528 288.447 298.547C288.663 298.567 288.865 298.646 289.054 298.785C289.244 298.923 289.406 299.109 289.541 299.341C289.677 299.574 289.757 299.808 289.783 300.041C289.809 300.275 289.776 300.491 289.686 300.69C289.594 300.888 289.44 301.05 289.222 301.176ZM288.736 302.759L286.778 299.387L287.063 299.221L288.084 300.979L288.119 300.959L289.056 302.574L288.736 302.759ZM289.018 300.899C289.181 300.804 289.292 300.685 289.353 300.54C289.413 300.395 289.429 300.236 289.4 300.064C289.372 299.89 289.307 299.714 289.204 299.536C289.102 299.361 288.983 299.217 288.848 299.107C288.712 298.997 288.566 298.932 288.409 298.914C288.253 298.895 288.091 298.933 287.924 299.03C287.761 299.125 287.649 299.243 287.587 299.385C287.526 299.527 287.51 299.683 287.539 299.855C287.567 300.026 287.634 300.203 287.74 300.386C287.845 300.566 287.965 300.712 288.101 300.824C288.237 300.934 288.382 300.998 288.537 301.016C288.692 301.034 288.852 300.995 289.018 300.899ZM290.697 300.233L289.337 297.901L289.657 297.715L290.168 298.595L290.715 298.277C290.783 298.238 290.85 298.201 290.916 298.166C290.984 298.131 291.046 298.102 291.101 298.082C291.229 298.037 291.354 298.015 291.475 298.018C291.598 298.02 291.712 298.055 291.819 298.122C291.927 298.189 292.023 298.295 292.107 298.44C292.224 298.641 292.263 298.828 292.227 299.004C292.191 299.179 292.105 299.329 291.968 299.455C291.916 299.502 291.857 299.548 291.791 299.593C291.723 299.636 291.655 299.677 291.588 299.716L290.697 300.233ZM290.854 299.778L291.417 299.451C291.466 299.423 291.52 299.39 291.578 299.351C291.637 299.313 291.686 299.275 291.725 299.235C291.788 299.169 291.832 299.085 291.857 298.985C291.882 298.881 291.856 298.764 291.779 298.631C291.703 298.5 291.615 298.419 291.516 298.388C291.416 298.355 291.309 298.357 291.196 298.394C291.145 298.41 291.093 298.431 291.04 298.459C290.986 298.486 290.936 298.513 290.888 298.541L290.326 298.867L290.854 299.778ZM294.011 298.396C293.776 298.532 293.546 298.595 293.323 298.585C293.099 298.574 292.89 298.501 292.698 298.366C292.507 298.229 292.34 298.04 292.197 297.801C292.058 297.555 291.978 297.314 291.957 297.079C291.936 296.843 291.977 296.626 292.08 296.43C292.183 296.231 292.35 296.065 292.582 295.93C292.818 295.793 293.057 295.731 293.299 295.745C293.541 295.758 293.753 295.846 293.935 296.009L293.681 296.289C293.545 296.181 293.395 296.124 293.231 296.117C293.068 296.108 292.91 296.147 292.757 296.236C292.585 296.336 292.466 296.458 292.4 296.602C292.333 296.745 292.312 296.903 292.339 297.074C292.365 297.246 292.43 297.423 292.534 297.605C292.7 297.883 292.895 298.071 293.121 298.167C293.345 298.262 293.583 298.237 293.834 298.091C293.992 297.999 294.106 297.885 294.175 297.748C294.245 297.609 294.268 297.453 294.245 297.28L294.62 297.189C294.654 297.447 294.619 297.679 294.516 297.886C294.411 298.091 294.243 298.261 294.011 298.396ZM295.397 297.505L294.043 295.168L294.363 294.983L295.016 296.107L295.405 294.377L295.829 294.131L295.413 295.934L297.327 296.384L296.865 296.652L295.066 296.193L295.719 297.317L295.397 297.505ZM298.25 295.935C298.074 296.037 297.908 296.091 297.751 296.097C297.596 296.102 297.459 296.069 297.338 295.998C297.218 295.927 297.122 295.83 297.05 295.706C296.977 295.579 296.939 295.457 296.938 295.338C296.937 295.217 296.964 295.102 297.018 294.993C297.074 294.884 297.151 294.78 297.251 294.682C297.352 294.585 297.468 294.484 297.598 294.379C297.729 294.272 297.858 294.171 297.986 294.076C298.114 293.978 298.225 293.891 298.32 293.815L298.248 293.95C298.118 293.717 297.974 293.572 297.816 293.515C297.658 293.459 297.463 293.498 297.231 293.633C297.071 293.725 296.956 293.84 296.887 293.977C296.82 294.112 296.809 294.271 296.854 294.453L296.492 294.541C296.424 294.301 296.438 294.077 296.532 293.868C296.627 293.659 296.803 293.479 297.061 293.329C297.274 293.206 297.478 293.141 297.674 293.135C297.87 293.128 298.043 293.181 298.192 293.297C298.261 293.348 298.323 293.413 298.38 293.491C298.438 293.57 298.491 293.652 298.542 293.739L299.384 295.19L299.101 295.354L298.76 294.768L298.863 294.755C298.9 295.001 298.865 295.226 298.759 295.428C298.653 295.63 298.483 295.799 298.25 295.935ZM298.127 295.639C298.275 295.553 298.39 295.451 298.47 295.333C298.55 295.215 298.597 295.09 298.611 294.959C298.624 294.826 298.607 294.695 298.56 294.567C298.533 294.482 298.495 294.394 298.445 294.304C298.393 294.212 298.355 294.144 298.329 294.099L298.486 294.092C298.387 294.169 298.277 294.252 298.159 294.34C298.042 294.427 297.928 294.515 297.816 294.605C297.706 294.694 297.609 294.78 297.526 294.863C297.471 294.92 297.422 294.984 297.38 295.055C297.338 295.124 297.312 295.198 297.305 295.278C297.298 295.357 297.319 295.438 297.368 295.522C297.407 295.589 297.462 295.645 297.532 295.689C297.603 295.733 297.689 295.754 297.788 295.752C297.889 295.749 298.002 295.712 298.127 295.639ZM301.41 294.013L300.899 293.133L300.355 293.449C300.291 293.486 300.224 293.522 300.154 293.557C300.084 293.59 300.018 293.618 299.954 293.641C299.772 293.705 299.59 293.714 299.409 293.669C299.229 293.621 299.081 293.497 298.965 293.296C298.851 293.1 298.813 292.912 298.851 292.732C298.888 292.551 298.972 292.398 299.103 292.274C299.163 292.218 299.227 292.168 299.296 292.124C299.366 292.079 299.428 292.042 299.479 292.012L300.372 291.493L301.73 293.827L301.41 294.013ZM299.817 294.938L299.899 293.581L300.251 293.376L300.165 294.736L299.817 294.938ZM300.179 293.187L300.741 292.861L300.213 291.95L299.651 292.277C299.616 292.297 299.569 292.326 299.508 292.365C299.448 292.404 299.395 292.447 299.349 292.495C299.31 292.537 299.277 292.59 299.251 292.653C299.225 292.715 299.213 292.784 299.216 292.862C299.217 292.938 299.242 293.018 299.291 293.101C299.359 293.218 299.445 293.293 299.549 293.327C299.654 293.359 299.763 293.359 299.874 293.329C299.933 293.311 299.989 293.288 300.043 293.26C300.096 293.233 300.142 293.209 300.179 293.187Z" fill="white"/>
</g>
<g filter="url(#filter0_d_234_3)">
<path d="M251.888 464C422.268 464 560.388 360.13 560.388 232C560.388 103.87 422.268 0 251.888 0C81.5081 0 -56.612 103.87 -56.612 232C-56.612 360.13 81.5081 464 251.888 464Z" fill="#15161D" fill-opacity="0.01"/>
</g>
</g>
</g>
<defs>
<filter id="filter0_d_234_3" x="-85.612" y="-25" width="675" height="522" filterUnits="userSpaceOnUse" color-interpolation-filters="sRGB">
<feFlood flood-opacity="0" result="BackgroundImageFix"/>
<feColorMatrix in="SourceAlpha" type="matrix" values="0 0 0 0 0 0 0 0 0 0 0 0 0 0 0 0 0 0 127 0" result="hardAlpha"/>
<feOffset dy="4"/>
<feGaussianBlur stdDeviation="14.5"/>
<feComposite in2="hardAlpha" operator="out"/>
<feColorMatrix type="matrix" values="0 0 0 0 0.0823529 0 0 0 0 0.0862745 0 0 0 0 0.113725 0 0 0 1 0"/>
<feBlend mode="normal" in2="BackgroundImageFix" result="effect1_dropShadow_234_3"/>
<feBlend mode="normal" in="SourceGraphic" in2="effect1_dropShadow_234_3" result="shape"/>
</filter>
<clipPath id="clip0_234_3">
<rect width="618" height="464" fill="white" transform="translate(-57)"/>
</clipPath>
</defs>
</svg>
