<svg width="15" height="16" viewBox="0 0 15 16" fill="none" xmlns="http://www.w3.org/2000/svg">
<path d="M14.4 12V15.1125C14.4 15.3656 14.3409 15.5563 14.1694 15.7469C13.995 15.9406 13.8291 16 13.6013 16C10.2234 15.9344 6.28594 14.7406 3.7125 11.8813C1.13906 9.02188 0.0590625 4.64062 0 0.8875C0 0.634375 0.0562502 0.446875 0.227813 0.25625C0.399375 0.0656254 0.568125 0 0.79875 0H3.6L4.32 4.8L2.97563 6.74062C3.375 8 4.17656 9.3375 5.08781 10.3531C6.00188 11.3687 7.2 12.25 8.33063 12.6937L10.0772 11.2L14.4 12Z" fill="#15161D"/>
</svg>
