<svg width="36" height="36" viewBox="0 0 36 36" fill="none" xmlns="http://www.w3.org/2000/svg">
<path d="M24.8872 11.2952C24.8939 11.2952 24.9029 11.2952 24.9119 11.2952C25.1471 11.2952 25.3653 11.3683 25.5442 11.4943L25.5408 11.4921C25.6713 11.6057 25.7591 11.7654 25.7804 11.9454V11.9488C25.8029 12.0861 25.8153 12.2436 25.8153 12.4044C25.8153 12.4776 25.8131 12.5496 25.8074 12.6216V12.6114C25.5543 15.2766 24.4563 21.7397 23.8983 24.7232C23.6621 25.9866 23.1974 26.4096 22.7474 26.4501C21.7698 26.5412 21.0273 25.8043 20.0801 25.1833C18.5973 24.2102 17.7592 23.6049 16.3203 22.6566C14.6564 21.5619 15.7353 20.9578 16.6826 19.9746C16.9312 19.7158 21.2411 15.7952 21.3254 15.4397C21.3299 15.4183 21.3322 15.3947 21.3322 15.3699C21.3322 15.2822 21.2996 15.2023 21.2467 15.1416C21.1882 15.1033 21.1151 15.0819 21.0386 15.0819C20.9879 15.0819 20.9396 15.0921 20.8946 15.1089L20.8968 15.1078C20.7483 15.1416 18.3798 16.7068 13.7913 19.8036C13.2907 20.1984 12.6584 20.4482 11.9699 20.4774H11.9632C10.9878 20.3593 10.1024 20.1422 9.26207 19.8328L9.34532 19.8598C8.29007 19.5156 7.45194 19.3344 7.52394 18.7517C7.56219 18.4487 7.97994 18.1386 8.77719 17.8213C13.6882 15.6816 16.9631 14.2712 18.6018 13.5902C20.4097 12.6306 22.5056 11.8408 24.7094 11.3289L24.8861 11.2941L24.8872 11.2952ZM17.9212 1.15332C8.58144 1.17582 1.01807 8.75269 1.01807 18.0958C1.01807 27.4524 8.60282 35.0383 17.9606 35.0383C27.3183 35.0383 34.9031 27.4536 34.9031 18.0958C34.9031 8.75269 27.3397 1.17582 18.0022 1.15332H17.9999C17.9737 1.15332 17.9474 1.15332 17.9212 1.15332Z" fill="#15161D"/>
</svg>
