<svg width="20" height="20" viewBox="0 0 20 20" fill="none" xmlns="http://www.w3.org/2000/svg">
<g clip-path="url(#clip0_25_21)">
<path fill-rule="evenodd" clip-rule="evenodd" d="M1.66663 10.0003C1.66663 5.39795 5.39758 1.66699 9.99996 1.66699C14.6023 1.66699 18.3333 5.39795 18.3333 10.0003C18.3333 14.6027 14.6023 18.3337 9.99996 18.3337C5.39758 18.3337 1.66663 14.6027 1.66663 10.0003ZM13.1934 12.1292C12.938 12.5122 12.4206 12.6157 12.0377 12.3604L9.87088 10.9158C9.43088 10.6225 9.16663 10.1287 9.16663 9.59999V9.58366V5.83366C9.16663 5.37343 9.53971 5.00033 9.99996 5.00033C10.4602 5.00033 10.8333 5.37343 10.8333 5.83366V9.55433L12.9622 10.9736C13.3451 11.2289 13.4486 11.7463 13.1934 12.1292Z" fill="#15161D"/>
</g>
<defs>
<clipPath id="clip0_25_21">
<rect width="20" height="20" fill="white"/>
</clipPath>
</defs>
</svg>
