<svg width="716" height="183" viewBox="0 0 716 183" fill="none" xmlns="http://www.w3.org/2000/svg">
<g clip-path="url(#clip0_280_7)">
<path d="M5.33366 28.8001C5.33366 48.6667 6.80033 54.9334 8.40033 41.7334C10.0003 28.2667 13.6003 15.6001 16.8003 12.4001C19.867 9.46674 28.0003 8.00008 28.0003 10.5334C28.0003 11.2001 22.267 35.2001 15.3337 63.8667C8.40033 92.6667 2.66699 116.8 2.66699 117.467C2.66699 118.133 11.067 118.667 22.5337 118.667H42.267L43.2003 106.4C44.4003 88.5334 44.267 74.6667 42.667 74.6667C42.0003 74.6667 41.3337 76.6667 41.3337 79.2001C41.3337 86.1334 37.6003 102.667 34.667 108.8C31.6003 115.067 27.467 117.733 21.7337 117.067L17.7337 116.667L29.867 66.0001C36.667 38.1334 42.5337 13.7334 43.067 11.6001L44.0003 8.00008H24.667H5.33366V28.8001Z" fill="white"/>
<path d="M58.8005 54.2667C51.7339 111.6 51.3339 113.467 47.8672 116.267C45.0672 118.667 45.2005 118.667 52.5339 118.667H60.1339L56.6672 115.733C53.4672 112.8 53.3339 112.133 54.1339 104.267L55.0672 96.0001H61.6005C68.9339 96.0001 68.9339 95.8667 69.7339 108.267C70.2672 115.733 70.0005 117.333 68.1339 117.733C66.9339 118.133 71.4672 118.4 78.0005 118.4C84.6672 118.4 89.0672 118.133 87.8672 117.733C85.3339 117.2 85.8672 120.133 77.4672 49.3334L72.6672 8.66674L68.5339 8.26674L64.5339 7.86674L58.8005 54.2667ZM65.2005 61.6001C66.0005 72.1334 67.2005 83.8667 67.6005 87.6001L68.4005 94.6667H62.1339C58.1339 94.6667 56.0005 94.1334 56.0005 92.9334C56.0005 88.2667 62.0005 42.6667 62.6672 42.6667C63.0672 42.6667 64.2672 51.2001 65.2005 61.6001Z" fill="white"/>
<path d="M94.4 8.93326L97.3334 9.4666V63.3333V117.2L94.4 117.733C92.6667 118 97.3334 118.267 104.667 118.267C112 118.267 116.667 118 115.067 117.733L112 117.2V63.3333V9.4666L115.067 8.93326C116.667 8.6666 112 8.39993 104.667 8.39993C97.3334 8.39993 92.6667 8.6666 94.4 8.93326Z" fill="white"/>
<path d="M123.067 8.93344C125.2 9.46677 125.333 13.2001 125.333 63.3334V117.2L122.4 117.733C120.667 118 125.333 118.267 132.667 118.267C140 118.4 144.933 118.133 143.733 117.733C141.6 117.2 141.333 114.667 141.333 89.8668C141.333 64.8001 141.467 62.6668 143.733 62.6668C149.6 62.8001 150 64.0001 150.667 90.6668C151.333 114 151.6 116.4 153.867 118.133C157.067 120.4 162.667 120.533 167.2 118.533C171.333 116.667 175.067 109.2 174.4 104.267C173.733 100.267 172.933 101.6 171.2 110C170.4 113.333 169.2 115.333 168 115.333C166.4 115.333 165.867 111.867 165.333 95.0668C164.533 72.2668 163.733 70.0001 153.867 64.4001C151.067 62.6668 149.467 61.3334 150.267 61.3334C154 61.3334 162.267 52.0001 164 46.0001C166.533 36.8001 165.2 24.0001 161.067 17.7334C155.867 9.73344 150.8 8.00011 134.4 8.13344C126.933 8.26677 121.733 8.53344 123.067 8.93344ZM149.067 10.9334C150.133 12.0001 150.667 19.3334 150.667 34.8001C150.667 58.5334 150 61.3334 143.867 61.3334C141.467 61.3334 141.333 60.1334 141.333 35.3334V9.33344H144.4C146.133 9.33344 148.133 10.0001 149.067 10.9334Z" fill="white"/>
<path d="M191.867 10C186.401 12.9333 181.467 23.6 179.867 36.1333C177.734 52 179.067 93.2 182.001 102.667C184.934 112.133 192.534 120 198.667 120C214.534 120 221.067 100.533 219.601 56.6667C219.067 38.8 218.267 32.1333 216.134 25.0667C211.467 10.6667 201.867 4.53334 191.867 10ZM202.667 13.3333C203.601 14.9333 203.867 32.8 203.734 65.4667C203.334 111.6 203.201 115.2 200.934 116.533C198.934 117.733 198.134 117.467 196.534 115.467C194.934 113.333 194.667 104.4 194.667 63.3333C194.667 13.2 194.934 10.6667 199.601 10.6667C200.534 10.6667 201.867 11.8667 202.667 13.3333Z" fill="white"/>
<path d="M224.667 8.93334C227.334 9.46668 227.734 12.2667 232.534 61.7333C235.334 90.5333 237.867 115.067 238.267 116.267C238.934 119.067 246.4 119.6 247.334 116.933C247.6 116.133 250.267 94.6667 253.334 69.3333C260.134 11.7333 259.867 13.4667 262.934 10.4C265.2 8.13334 265.2 8.00001 258.4 8.13334C252.8 8.13334 252 8.40001 254.4 9.33334C258.134 10.9333 258.134 10.4 253.334 51.7333C249.467 83.6 248 92.5333 248 83.2C248 81.0667 246.8 64.2667 245.334 46C243.867 27.6 242.667 12 242.667 11.0667C242.667 10.2667 244 9.20001 245.734 8.93334C247.334 8.66668 242.667 8.40001 235.334 8.40001C228 8.40001 223.2 8.66668 224.667 8.93334Z" fill="white"/>
<path d="M289.067 8.93327L292 9.46661V63.3333V117.2L289.067 117.733C287.334 118 292 118.267 299.334 118.267C306.667 118.267 311.334 118 309.734 117.733C306.667 117.2 306.667 117.067 306.667 90.5333C306.667 75.9999 307.2 63.9999 307.734 63.9999C308.4 63.9999 310.267 65.5999 312.134 67.4666C314.8 70.2666 315.334 72.5333 315.734 80.7999C316 86.1333 316.8 90.2666 317.467 89.8666C319.067 88.9333 319.067 37.7333 317.467 36.7999C316.8 36.3999 316 40.2666 315.734 45.3333C315.467 51.9999 314.534 55.5999 312.534 58.2666C306.934 65.5999 306.667 64.5333 306.667 36.1333C306.667 9.99994 306.667 9.33327 309.467 9.33327C313.867 9.33327 317.2 11.7333 319.2 16.5333C321.734 22.6666 325.334 38.9333 325.334 44.5333C325.334 47.1999 326 49.3333 326.667 49.3333C327.467 49.3333 328 41.5999 328 28.6666V7.99994L307.067 8.13327C295.467 8.26661 287.334 8.66661 289.067 8.93327Z" fill="white"/>
<path d="M334.4 8.93336L337.333 9.46669V58.1334C337.333 112.8 337.6 114.533 345.867 118C348.533 119.067 353.2 119.867 356.267 119.867C359.467 119.733 360.667 119.333 359.067 119.067C352.133 117.733 352 116.8 352 61.0667V9.46669L355.067 8.93336C356.667 8.66669 352 8.40003 344.667 8.40003C337.333 8.40003 332.667 8.66669 334.4 8.93336Z" fill="white"/>
<path d="M365.334 8.93342C370.534 10.8001 370.667 12.5334 370.667 59.2001C370.667 106.8 370 113.067 364.934 116.667C363.334 117.733 362.667 118.667 363.467 118.667C364.267 118.667 366.267 117.067 368.134 115.2L371.334 111.733L372 61.7334C372.667 14.2668 372.8 11.7334 375.2 9.86675C377.6 8.13342 377.2 8.00009 370.534 8.13342C366.534 8.13342 364.267 8.53342 365.334 8.93342Z" fill="white"/>
<path d="M383.067 8.93344C385.2 9.46677 385.333 13.2001 385.333 63.3334V117.2L382.4 117.733C380.667 118 385.333 118.267 392.667 118.267C400 118.4 404.933 118.133 403.733 117.733C401.6 117.2 401.333 114.667 401.333 89.8668C401.333 64.8001 401.467 62.6668 403.733 62.6668C409.6 62.8001 410 64.0001 410.667 90.6668C411.333 114 411.6 116.4 413.867 118.133C417.067 120.4 422.667 120.533 427.2 118.533C431.333 116.667 435.067 109.2 434.4 104.267C433.733 100.267 432.933 101.6 431.2 110C430.4 113.333 429.2 115.333 428 115.333C426.4 115.333 425.867 111.867 425.333 95.0668C424.533 72.2668 423.733 70.0001 413.867 64.4001C411.067 62.6668 409.467 61.3334 410.267 61.3334C414 61.3334 422.267 52.0001 424 46.0001C426.533 36.8001 425.2 24.0001 421.067 17.7334C415.867 9.73344 410.8 8.00011 394.4 8.13344C386.933 8.26677 381.733 8.53344 383.067 8.93344ZM409.067 10.9334C410.133 12.0001 410.667 19.3334 410.667 34.8001C410.667 58.5334 410 61.3334 403.867 61.3334C401.467 61.3334 401.333 60.1334 401.333 35.3334V9.33344H404.4C406.133 9.33344 408.133 10.0001 409.067 10.9334Z" fill="white"/>
<path d="M440.4 8.93338C442.533 9.46671 442.667 13.2 442.667 62V114.533L439.733 116.533C436.933 118.533 437.067 118.667 444.667 118.667C452 118.667 452.4 118.533 449.333 116.933L446 115.2L445.867 68.6667C445.733 42.9334 445.867 23.2 446.267 24.6667C446.533 26.1334 450.533 47.7334 455.067 72.6667L463.467 118L469.067 118.4L474.667 118.8V66.1334C474.667 15.0667 474.8 13.2 477.333 10.6667L480 8.00004L472.4 8.13338C465.6 8.13338 465.067 8.40004 468.4 9.60004L472 10.9334L471.867 45.7334C471.733 64.9334 471.333 79.4667 471.067 78C470.8 76.5334 467.733 60.2667 464.267 42L458 8.66671L448 8.40004C442.533 8.40004 439.067 8.53338 440.4 8.93338Z" fill="white"/>
<path d="M486.4 8.93326L489.333 9.4666V63.3333V117.2L486.4 117.733C484.667 118 489.333 118.267 496.667 118.267C504 118.267 508.667 118 507.067 117.733L504 117.2V63.3333V9.4666L507.067 8.93326C508.667 8.6666 504 8.39993 496.667 8.39993C489.333 8.39993 484.667 8.6666 486.4 8.93326Z" fill="white"/>
<path d="M512 31.3333C512 45.9999 512.533 54.6666 513.333 54.6666C514.133 54.6666 514.667 52.5333 514.667 49.8666C514.667 42.5333 519.867 18.5333 522.4 14.1333C527.867 4.79994 528 6.39994 528 63.1999V117.2L524.4 117.733C522.267 118 527.333 118.267 535.333 118.267C543.467 118.267 548.667 118 547.067 117.733L544 117.2V63.1999C544 13.1999 544.133 9.19994 546.267 9.59994C550 10.2666 557.333 36.5333 557.333 49.3333C557.333 52.2666 558 54.6666 558.667 54.6666C559.467 54.6666 560 45.9999 560 31.3333V7.99994H536H512V31.3333Z" fill="white"/>
<path d="M566.4 8.93336L569.333 9.46669V58.1334C569.333 112.8 569.6 114.533 577.867 118C580.533 119.067 585.2 119.867 588.267 119.867C591.467 119.733 592.667 119.333 591.067 119.067C584.133 117.733 584 116.8 584 61.0667V9.46669L587.067 8.93336C588.667 8.66669 584 8.40003 576.667 8.40003C569.333 8.40003 564.667 8.66669 566.4 8.93336Z" fill="white"/>
<path d="M597.334 8.93342C602.534 10.8001 602.667 12.5334 602.667 59.2001C602.667 106.8 602 113.067 596.934 116.667C595.334 117.733 594.667 118.667 595.467 118.667C596.267 118.667 598.267 117.067 600.134 115.2L603.334 111.733L604 61.7334C604.667 14.2668 604.8 11.7334 607.2 9.86675C609.6 8.13342 609.2 8.00009 602.534 8.13342C598.534 8.13342 596.267 8.53342 597.334 8.93342Z" fill="white"/>
<path d="M615.067 8.93344C617.2 9.46677 617.333 13.2001 617.333 63.3334V117.2L614.4 117.733C612.667 118 617.333 118.267 624.667 118.267C632 118.4 636.933 118.133 635.733 117.733C633.6 117.2 633.333 114.667 633.333 89.8668C633.333 64.8001 633.467 62.6668 635.733 62.6668C641.6 62.8001 642 64.0001 642.667 90.6668C643.333 114 643.6 116.4 645.867 118.133C649.067 120.4 654.667 120.533 659.2 118.533C663.333 116.667 667.067 109.2 666.4 104.267C665.733 100.267 664.933 101.6 663.2 110C662.4 113.333 661.2 115.333 660 115.333C658.4 115.333 657.867 111.867 657.333 95.0668C656.533 72.2668 655.733 70.0001 645.867 64.4001C643.067 62.6668 641.467 61.3334 642.267 61.3334C646 61.3334 654.267 52.0001 656 46.0001C658.533 36.8001 657.2 24.0001 653.067 17.7334C647.867 9.73344 642.8 8.00011 626.4 8.13344C618.933 8.26677 613.733 8.53344 615.067 8.93344ZM641.067 10.9334C642.133 12.0001 642.667 19.3334 642.667 34.8001C642.667 58.5334 642 61.3334 635.867 61.3334C633.467 61.3334 633.333 60.1334 633.333 35.3334V9.33344H636.4C638.133 9.33344 640.133 10.0001 641.067 10.9334Z" fill="white"/>
<path d="M671.733 8.93341L674.667 9.46674V63.3334V117.2L671.067 117.733C668.933 118 677.067 118.4 689.067 118.533L710.667 118.667L710.533 95.6001L710.4 72.6667L708.667 83.6001C705.333 104.8 699.2 117.333 692.133 117.333C689.333 117.333 689.333 116.8 689.333 90.6667C689.333 76.0001 689.733 64.0001 690.4 64.0001C694.667 64.1334 698.667 72.8001 698.667 81.8667C698.667 85.8667 699.333 89.6001 700 90.0001C700.933 90.5334 701.333 81.2001 701.333 63.2001C701.333 46.8001 700.8 36.0001 700.133 36.6667C699.467 37.4667 698.667 42.0001 698.4 46.9334C698 54.1334 697.2 56.5334 694.667 59.3334C692.933 61.2001 691.067 62.6667 690.4 62.6667C689.867 62.6667 689.333 50.6667 689.333 35.8667V9.20008L693.6 9.60008C701.067 10.2667 703.2 15.2001 709.067 44.0001C710.133 48.6667 710.4 45.4667 710.533 28.9334L710.667 8.00008L689.733 8.13341C678.133 8.26674 670 8.66674 671.733 8.93341Z" fill="white"/>
<line y1="136" x2="711.001" y2="136" stroke="white" stroke-width="2"/>
<path d="M12.1221 167.795L17.7584 154.545H20.6902L13.3834 172H10.8607L3.7016 154.545H6.59933L12.1221 167.795ZM5.65615 154.545V172H2.3266V154.545H5.65615ZM18.6789 172V154.545H21.9857V172H18.6789ZM46.5168 172.352C44.7971 172.352 43.3161 171.985 42.0736 171.25C40.8388 170.508 39.8843 169.466 39.21 168.125C38.5433 166.777 38.21 165.197 38.21 163.386C38.21 161.598 38.5433 160.023 39.21 158.659C39.8843 157.295 40.8236 156.231 42.0282 155.466C43.2403 154.701 44.657 154.318 46.2782 154.318C47.263 154.318 48.2176 154.481 49.1418 154.807C50.0661 155.133 50.8956 155.644 51.6305 156.341C52.3653 157.038 52.9449 157.943 53.3691 159.057C53.7933 160.163 54.0055 161.508 54.0055 163.091V164.295H40.1305V161.75H50.6759C50.6759 160.856 50.4941 160.064 50.1305 159.375C49.7668 158.678 49.2555 158.129 48.5964 157.727C47.9449 157.326 47.1797 157.125 46.3009 157.125C45.3464 157.125 44.513 157.36 43.8009 157.83C43.0964 158.292 42.5509 158.898 42.1646 159.648C41.7858 160.39 41.5964 161.197 41.5964 162.068V164.057C41.5964 165.223 41.8009 166.216 42.21 167.034C42.6267 167.852 43.2062 168.477 43.9486 168.909C44.6911 169.333 45.5585 169.545 46.5509 169.545C47.1949 169.545 47.782 169.455 48.3123 169.273C48.8426 169.083 49.3009 168.803 49.6873 168.432C50.0736 168.061 50.3691 167.602 50.5736 167.057L53.7896 167.636C53.532 168.583 53.0699 169.413 52.4032 170.125C51.7441 170.83 50.9146 171.379 49.9146 171.773C48.9221 172.159 47.7896 172.352 46.5168 172.352ZM83.7213 148.045L85.1304 150.193C84.6076 150.67 84.0129 151.011 83.3463 151.216C82.6872 151.413 81.9258 151.538 81.0622 151.591C80.1985 151.636 79.2099 151.678 78.0963 151.716C76.8387 151.754 75.8046 152.027 74.994 152.534C74.1834 153.034 73.5584 153.777 73.119 154.761C72.6872 155.739 72.4069 156.966 72.2781 158.443H72.494C73.0622 157.36 73.85 156.549 74.8576 156.011C75.8728 155.473 77.0129 155.205 78.2781 155.205C79.6872 155.205 80.941 155.527 82.0394 156.17C83.1379 156.814 84.0016 157.758 84.6304 159C85.2667 160.235 85.5849 161.746 85.5849 163.534C85.5849 165.345 85.2516 166.909 84.5849 168.227C83.9258 169.545 82.994 170.564 81.7894 171.284C80.5925 171.996 79.1796 172.352 77.5508 172.352C75.922 172.352 74.5016 171.985 73.2894 171.25C72.0849 170.508 71.1493 169.409 70.4826 167.955C69.8235 166.5 69.494 164.705 69.494 162.568V160.841C69.494 156.848 70.2061 153.845 71.6304 151.83C73.0546 149.814 75.1834 148.78 78.0167 148.727C78.9334 148.705 79.7516 148.701 80.4713 148.716C81.191 148.723 81.8197 148.689 82.3576 148.614C82.9031 148.53 83.3576 148.341 83.7213 148.045ZM77.5622 169.5C78.5091 169.5 79.3235 169.261 80.0054 168.784C80.6947 168.299 81.225 167.614 81.5963 166.727C81.9675 165.841 82.1531 164.795 82.1531 163.591C82.1531 162.409 81.9675 161.405 81.5963 160.58C81.225 159.754 80.6947 159.125 80.0054 158.693C79.316 158.254 78.4902 158.034 77.5281 158.034C76.816 158.034 76.1796 158.159 75.619 158.409C75.0584 158.652 74.5773 159.011 74.1758 159.489C73.7819 159.966 73.475 160.549 73.2554 161.239C73.0432 161.92 72.9296 162.705 72.9144 163.591C72.9144 165.394 73.3273 166.83 74.1531 167.898C74.9864 168.966 76.1228 169.5 77.5622 169.5ZM109.383 172.352C107.663 172.352 106.182 171.985 104.94 171.25C103.705 170.508 102.751 169.466 102.076 168.125C101.41 166.777 101.076 165.197 101.076 163.386C101.076 161.598 101.41 160.023 102.076 158.659C102.751 157.295 103.69 156.231 104.894 155.466C106.107 154.701 107.523 154.318 109.144 154.318C110.129 154.318 111.084 154.481 112.008 154.807C112.932 155.133 113.762 155.644 114.497 156.341C115.232 157.038 115.811 157.943 116.235 159.057C116.66 160.163 116.872 161.508 116.872 163.091V164.295H102.997V161.75H113.542C113.542 160.856 113.36 160.064 112.997 159.375C112.633 158.678 112.122 158.129 111.463 157.727C110.811 157.326 110.046 157.125 109.167 157.125C108.213 157.125 107.379 157.36 106.667 157.83C105.963 158.292 105.417 158.898 105.031 159.648C104.652 160.39 104.463 161.197 104.463 162.068V164.057C104.463 165.223 104.667 166.216 105.076 167.034C105.493 167.852 106.072 168.477 106.815 168.909C107.557 169.333 108.425 169.545 109.417 169.545C110.061 169.545 110.648 169.455 111.179 169.273C111.709 169.083 112.167 168.803 112.554 168.432C112.94 168.061 113.235 167.602 113.44 167.057L116.656 167.636C116.398 168.583 115.936 169.413 115.269 170.125C114.61 170.83 113.781 171.379 112.781 171.773C111.788 172.159 110.656 172.352 109.383 172.352ZM131.747 172L131.735 169.057H132.36C132.845 169.057 133.25 168.955 133.576 168.75C133.909 168.538 134.182 168.182 134.394 167.682C134.606 167.182 134.769 166.492 134.883 165.614C134.997 164.727 135.08 163.614 135.133 162.273L135.44 154.545H147.622V172H144.292V157.477H138.588L138.315 163.409C138.247 164.848 138.099 166.106 137.872 167.182C137.652 168.258 137.33 169.155 136.906 169.875C136.481 170.587 135.936 171.121 135.269 171.477C134.603 171.826 133.792 172 132.838 172H131.747ZM167.19 160.545H172.258C174.394 160.545 176.038 161.076 177.19 162.136C178.341 163.197 178.917 164.564 178.917 166.239C178.917 167.33 178.659 168.311 178.144 169.182C177.629 170.053 176.875 170.742 175.883 171.25C174.89 171.75 173.682 172 172.258 172H164.633V154.545H167.962V169.068H172.258C173.235 169.068 174.038 168.814 174.667 168.307C175.296 167.792 175.61 167.136 175.61 166.341C175.61 165.5 175.296 164.814 174.667 164.284C174.038 163.746 173.235 163.477 172.258 163.477H167.19V160.545ZM207.036 161.807V164.75H197.582V161.807H207.036ZM198.536 154.545V172H195.207V154.545H198.536ZM209.411 154.545V172H206.093V154.545H209.411ZM233.789 172.352C232.153 172.352 230.724 171.977 229.505 171.227C228.285 170.477 227.338 169.428 226.664 168.08C225.99 166.731 225.653 165.155 225.653 163.352C225.653 161.542 225.99 159.958 226.664 158.602C227.338 157.246 228.285 156.193 229.505 155.443C230.724 154.693 232.153 154.318 233.789 154.318C235.425 154.318 236.853 154.693 238.073 155.443C239.293 156.193 240.24 157.246 240.914 158.602C241.588 159.958 241.925 161.542 241.925 163.352C241.925 165.155 241.588 166.731 240.914 168.08C240.24 169.428 239.293 170.477 238.073 171.227C236.853 171.977 235.425 172.352 233.789 172.352ZM233.8 169.5C234.861 169.5 235.74 169.22 236.437 168.659C237.134 168.098 237.649 167.352 237.982 166.42C238.323 165.489 238.493 164.462 238.493 163.341C238.493 162.227 238.323 161.205 237.982 160.273C237.649 159.333 237.134 158.58 236.437 158.011C235.74 157.443 234.861 157.159 233.8 157.159C232.732 157.159 231.846 157.443 231.141 158.011C230.444 158.58 229.925 159.333 229.584 160.273C229.251 161.205 229.084 162.227 229.084 163.341C229.084 164.462 229.251 165.489 229.584 166.42C229.925 167.352 230.444 168.098 231.141 168.659C231.846 169.22 232.732 169.5 233.8 169.5ZM265.721 172.352C264.001 172.352 262.52 171.985 261.277 171.25C260.043 170.508 259.088 169.466 258.414 168.125C257.747 166.777 257.414 165.197 257.414 163.386C257.414 161.598 257.747 160.023 258.414 158.659C259.088 157.295 260.027 156.231 261.232 155.466C262.444 154.701 263.861 154.318 265.482 154.318C266.467 154.318 267.421 154.481 268.346 154.807C269.27 155.133 270.099 155.644 270.834 156.341C271.569 157.038 272.149 157.943 272.573 159.057C272.997 160.163 273.209 161.508 273.209 163.091V164.295H259.334V161.75H269.88C269.88 160.856 269.698 160.064 269.334 159.375C268.971 158.678 268.459 158.129 267.8 157.727C267.149 157.326 266.383 157.125 265.505 157.125C264.55 157.125 263.717 157.36 263.005 157.83C262.3 158.292 261.755 158.898 261.368 159.648C260.99 160.39 260.8 161.197 260.8 162.068V164.057C260.8 165.223 261.005 166.216 261.414 167.034C261.83 167.852 262.41 168.477 263.152 168.909C263.895 169.333 264.762 169.545 265.755 169.545C266.399 169.545 266.986 169.455 267.516 169.273C268.046 169.083 268.505 168.803 268.891 168.432C269.277 168.061 269.573 167.602 269.777 167.057L272.993 167.636C272.736 168.583 272.274 169.413 271.607 170.125C270.948 170.83 270.118 171.379 269.118 171.773C268.126 172.159 266.993 172.352 265.721 172.352ZM352.305 172V154.545H366.544V172H363.214V157.477H355.612V172H352.305ZM383.567 178.545V154.545H386.885V157.375H387.169C387.366 157.011 387.65 156.591 388.021 156.114C388.392 155.636 388.908 155.22 389.567 154.864C390.226 154.5 391.097 154.318 392.18 154.318C393.589 154.318 394.847 154.674 395.953 155.386C397.059 156.098 397.926 157.125 398.555 158.466C399.192 159.807 399.51 161.42 399.51 163.307C399.51 165.193 399.195 166.811 398.567 168.159C397.938 169.5 397.074 170.534 395.976 171.261C394.877 171.981 393.623 172.341 392.214 172.341C391.154 172.341 390.286 172.163 389.612 171.807C388.945 171.451 388.423 171.034 388.044 170.557C387.665 170.08 387.373 169.655 387.169 169.284H386.964V178.545H383.567ZM386.896 163.273C386.896 164.5 387.074 165.576 387.43 166.5C387.786 167.424 388.301 168.148 388.976 168.67C389.65 169.186 390.476 169.443 391.453 169.443C392.468 169.443 393.317 169.174 393.998 168.636C394.68 168.091 395.195 167.352 395.544 166.42C395.9 165.489 396.078 164.439 396.078 163.273C396.078 162.121 395.904 161.087 395.555 160.17C395.214 159.254 394.699 158.53 394.01 158C393.328 157.47 392.476 157.205 391.453 157.205C390.468 157.205 389.635 157.458 388.953 157.966C388.279 158.473 387.767 159.182 387.419 160.091C387.07 161 386.896 162.061 386.896 163.273ZM423.149 172.352C421.513 172.352 420.084 171.977 418.865 171.227C417.645 170.477 416.698 169.428 416.024 168.08C415.35 166.731 415.013 165.155 415.013 163.352C415.013 161.542 415.35 159.958 416.024 158.602C416.698 157.246 417.645 156.193 418.865 155.443C420.084 154.693 421.513 154.318 423.149 154.318C424.785 154.318 426.213 154.693 427.433 155.443C428.653 156.193 429.6 157.246 430.274 158.602C430.948 159.958 431.285 161.542 431.285 163.352C431.285 165.155 430.948 166.731 430.274 168.08C429.6 169.428 428.653 170.477 427.433 171.227C426.213 171.977 424.785 172.352 423.149 172.352ZM423.16 169.5C424.221 169.5 425.1 169.22 425.797 168.659C426.494 168.098 427.009 167.352 427.342 166.42C427.683 165.489 427.853 164.462 427.853 163.341C427.853 162.227 427.683 161.205 427.342 160.273C427.009 159.333 426.494 158.58 425.797 158.011C425.1 157.443 424.221 157.159 423.16 157.159C422.092 157.159 421.206 157.443 420.501 158.011C419.804 158.58 419.285 159.333 418.944 160.273C418.611 161.205 418.444 162.227 418.444 163.341C418.444 164.462 418.611 165.489 418.944 166.42C419.285 167.352 419.804 168.098 420.501 168.659C421.206 169.22 422.092 169.5 423.16 169.5ZM450.887 167.239L458.581 154.545H462.24V172H458.91V159.295L451.251 172H447.558V154.545H450.887V167.239ZM478.254 167.386H481.731C481.776 168.098 482.098 168.648 482.697 169.034C483.303 169.42 484.087 169.614 485.049 169.614C486.026 169.614 486.86 169.405 487.549 168.989C488.239 168.564 488.583 167.909 488.583 167.023C488.583 166.492 488.451 166.03 488.186 165.636C487.928 165.235 487.561 164.924 487.083 164.705C486.614 164.485 486.057 164.375 485.413 164.375H482.572V161.705H485.413C486.375 161.705 487.095 161.485 487.572 161.045C488.049 160.606 488.288 160.057 488.288 159.398C488.288 158.686 488.03 158.114 487.515 157.682C487.008 157.242 486.299 157.023 485.39 157.023C484.466 157.023 483.697 157.231 483.083 157.648C482.47 158.057 482.148 158.587 482.117 159.239H478.686C478.708 158.261 479.004 157.405 479.572 156.67C480.148 155.928 480.92 155.352 481.89 154.943C482.867 154.527 483.977 154.318 485.22 154.318C486.515 154.318 487.636 154.527 488.583 154.943C489.53 155.36 490.261 155.936 490.776 156.67C491.299 157.405 491.561 158.25 491.561 159.205C491.561 160.167 491.273 160.955 490.697 161.568C490.129 162.174 489.386 162.61 488.47 162.875V163.057C489.144 163.102 489.742 163.307 490.265 163.67C490.788 164.034 491.197 164.515 491.492 165.114C491.788 165.712 491.936 166.39 491.936 167.148C491.936 168.216 491.64 169.14 491.049 169.92C490.466 170.701 489.655 171.303 488.617 171.727C487.587 172.144 486.409 172.352 485.083 172.352C483.795 172.352 482.64 172.152 481.617 171.75C480.602 171.341 479.795 170.765 479.197 170.023C478.606 169.28 478.292 168.402 478.254 167.386ZM507.924 172V154.545H515.163C517.132 154.545 518.693 154.966 519.845 155.807C520.996 156.64 521.572 157.773 521.572 159.205C521.572 160.227 521.246 161.038 520.595 161.636C519.943 162.235 519.079 162.636 518.004 162.841C518.784 162.932 519.5 163.167 520.151 163.545C520.803 163.917 521.326 164.417 521.72 165.045C522.121 165.674 522.322 166.424 522.322 167.295C522.322 168.22 522.083 169.038 521.606 169.75C521.129 170.455 520.435 171.008 519.526 171.409C518.625 171.803 517.538 172 516.265 172H507.924ZM511.117 169.159H516.265C517.106 169.159 517.765 168.958 518.242 168.557C518.72 168.155 518.958 167.61 518.958 166.92C518.958 166.11 518.72 165.473 518.242 165.011C517.765 164.542 517.106 164.307 516.265 164.307H511.117V169.159ZM511.117 161.818H515.197C515.833 161.818 516.379 161.727 516.833 161.545C517.295 161.364 517.648 161.106 517.89 160.773C518.14 160.432 518.265 160.03 518.265 159.568C518.265 158.894 517.988 158.367 517.435 157.989C516.882 157.61 516.125 157.42 515.163 157.42H511.117V161.818ZM545.881 172.352C544.245 172.352 542.817 171.977 541.597 171.227C540.378 170.477 539.431 169.428 538.756 168.08C538.082 166.731 537.745 165.155 537.745 163.352C537.745 161.542 538.082 159.958 538.756 158.602C539.431 157.246 540.378 156.193 541.597 155.443C542.817 154.693 544.245 154.318 545.881 154.318C547.518 154.318 548.946 154.693 550.165 155.443C551.385 156.193 552.332 157.246 553.006 158.602C553.681 159.958 554.018 161.542 554.018 163.352C554.018 165.155 553.681 166.731 553.006 168.08C552.332 169.428 551.385 170.477 550.165 171.227C548.946 171.977 547.518 172.352 545.881 172.352ZM545.893 169.5C546.953 169.5 547.832 169.22 548.529 168.659C549.226 168.098 549.741 167.352 550.075 166.42C550.415 165.489 550.586 164.462 550.586 163.341C550.586 162.227 550.415 161.205 550.075 160.273C549.741 159.333 549.226 158.58 548.529 158.011C547.832 157.443 546.953 157.159 545.893 157.159C544.825 157.159 543.938 157.443 543.234 158.011C542.537 158.58 542.018 159.333 541.677 160.273C541.343 161.205 541.177 162.227 541.177 163.341C541.177 164.462 541.343 165.489 541.677 166.42C542.018 167.352 542.537 168.098 543.234 168.659C543.938 169.22 544.825 169.5 545.893 169.5ZM568.586 177.034V169.057H570.006C570.37 168.723 570.677 168.326 570.927 167.864C571.184 167.402 571.4 166.852 571.574 166.216C571.756 165.58 571.908 164.837 572.029 163.989C572.15 163.133 572.256 162.155 572.347 161.057L572.893 154.545H584.756V169.057H587.438V177.034H584.12V172H571.949V177.034H568.586ZM573.643 169.057H581.438V157.455H575.938L575.574 161.057C575.4 162.89 575.18 164.481 574.915 165.83C574.65 167.17 574.226 168.246 573.643 169.057ZM610.591 172.352C608.902 172.352 607.447 171.97 606.228 171.205C605.016 170.432 604.084 169.367 603.432 168.011C602.781 166.655 602.455 165.102 602.455 163.352C602.455 161.58 602.788 160.015 603.455 158.659C604.122 157.295 605.061 156.231 606.273 155.466C607.485 154.701 608.913 154.318 610.557 154.318C611.883 154.318 613.065 154.564 614.103 155.057C615.141 155.542 615.978 156.223 616.614 157.102C617.258 157.981 617.641 159.008 617.762 160.182H614.455C614.273 159.364 613.856 158.659 613.205 158.068C612.561 157.477 611.697 157.182 610.614 157.182C609.667 157.182 608.838 157.432 608.125 157.932C607.421 158.424 606.872 159.129 606.478 160.045C606.084 160.955 605.887 162.03 605.887 163.273C605.887 164.545 606.08 165.644 606.466 166.568C606.853 167.492 607.398 168.208 608.103 168.716C608.815 169.223 609.652 169.477 610.614 169.477C611.258 169.477 611.841 169.36 612.364 169.125C612.894 168.883 613.338 168.538 613.694 168.091C614.057 167.644 614.311 167.106 614.455 166.477H617.762C617.641 167.606 617.273 168.614 616.66 169.5C616.046 170.386 615.224 171.083 614.194 171.591C613.171 172.098 611.97 172.352 610.591 172.352ZM632.554 157.477V154.545H647.282V157.477H641.588V172H638.27V157.477H632.554ZM663.355 172V154.545H670.594C672.564 154.545 674.124 154.966 675.276 155.807C676.427 156.64 677.003 157.773 677.003 159.205C677.003 160.227 676.677 161.038 676.026 161.636C675.374 162.235 674.511 162.636 673.435 162.841C674.215 162.932 674.931 163.167 675.583 163.545C676.234 163.917 676.757 164.417 677.151 165.045C677.552 165.674 677.753 166.424 677.753 167.295C677.753 168.22 677.514 169.038 677.037 169.75C676.56 170.455 675.867 171.008 674.958 171.409C674.056 171.803 672.969 172 671.696 172H663.355ZM666.549 169.159H671.696C672.537 169.159 673.196 168.958 673.674 168.557C674.151 168.155 674.389 167.61 674.389 166.92C674.389 166.11 674.151 165.473 673.674 165.011C673.196 164.542 672.537 164.307 671.696 164.307H666.549V169.159ZM666.549 161.818H670.628C671.264 161.818 671.81 161.727 672.264 161.545C672.727 161.364 673.079 161.106 673.321 160.773C673.571 160.432 673.696 160.03 673.696 159.568C673.696 158.894 673.42 158.367 672.867 157.989C672.314 157.61 671.556 157.42 670.594 157.42H666.549V161.818ZM701.313 172.352C699.676 172.352 698.248 171.977 697.029 171.227C695.809 170.477 694.862 169.428 694.188 168.08C693.513 166.731 693.176 165.155 693.176 163.352C693.176 161.542 693.513 159.958 694.188 158.602C694.862 157.246 695.809 156.193 697.029 155.443C698.248 154.693 699.676 154.318 701.313 154.318C702.949 154.318 704.377 154.693 705.597 155.443C706.816 156.193 707.763 157.246 708.438 158.602C709.112 159.958 709.449 161.542 709.449 163.352C709.449 165.155 709.112 166.731 708.438 168.08C707.763 169.428 706.816 170.477 705.597 171.227C704.377 171.977 702.949 172.352 701.313 172.352ZM701.324 169.5C702.385 169.5 703.263 169.22 703.96 168.659C704.657 168.098 705.172 167.352 705.506 166.42C705.847 165.489 706.017 164.462 706.017 163.341C706.017 162.227 705.847 161.205 705.506 160.273C705.172 159.333 704.657 158.58 703.96 158.011C703.263 157.443 702.385 157.159 701.324 157.159C700.256 157.159 699.369 157.443 698.665 158.011C697.968 158.58 697.449 159.333 697.108 160.273C696.775 161.205 696.608 162.227 696.608 163.341C696.608 164.462 696.775 165.489 697.108 166.42C697.449 167.352 697.968 168.098 698.665 168.659C699.369 169.22 700.256 169.5 701.324 169.5Z" fill="white"/>
</g>
<defs>
<clipPath id="clip0_280_7">
<rect width="716" height="182.667" fill="white"/>
</clipPath>
</defs>
</svg>
